# This file is brought to you by Roblox Corporation
# Generated by Roblox Studio

mtllib 3L.mtl

g Stagfinger3l1

v -18.168 8.77342 20.2389 
v -18.0895 8.74524 20.1182 
v -18.1704 8.77248 20.098 
v -18.8547 8.07972 20.1471 
v -18.7459 7.43882 20.6396 
v -18.9608 8.15581 20.267 
v -18.8836 8.14075 20.4259 
v -18.5854 8.49587 20.3288 
v -18.5676 8.44888 19.9726 
v -18.657 8.57383 20.1333 
v -18.494 8.66291 20.0911 
v -18.4702 8.62535 20.3321 
v -18.7119 8.01764 20.2318 
v -18.4407 8.2937 20.0688 
v -18.4079 8.55489 19.8875 
v -18.4004 8.71146 20.0833 
v -18.3853 8.69142 20.3321 
v -18.3302 8.61513 19.8689 
v -18.2852 8.73954 20.2903 
v -18.2887 8.73815 20.0823 
v -18.248 8.67228 19.8989 
v -18.197 8.70075 19.9232 
v -18.1111 8.53604 20.0592 
v -18.1822 8.62074 20.2158 
v -18.2305 8.76135 20.2759 
v -18.1376 8.65431 20.2088 
v -18.0501 8.63559 20.0823 
v -18.0736 8.57801 20.0676 
v -18.1428 8.72787 19.9737 
v -18.0895 8.74524 20.1182 
v -18.7297 8.05536 20.4041 
v -18.7459 7.43882 20.6396 
v -18.7119 8.01764 20.2318 
v -18.8547 8.07972 20.1471 
v -18.5676 8.44888 19.9726 
v -18.8836 8.14075 20.4259 
v -18.5854 8.49587 20.3288 
v -18.4517 8.32274 20.2889 
v -18.4407 8.2937 20.0688 
v -18.3263 8.45745 20.2685 
v -18.4702 8.62535 20.3321 
v -18.2602 8.38471 20.0558 
v -18.4079 8.55489 19.8875 
v -18.3302 8.61513 19.8689 
v -18.2485 8.53261 20.2555 
v -18.3853 8.69142 20.3321 
v -18.1725 8.4454 20.051 
v -18.2852 8.73954 20.2903 
v -18.1111 8.53604 20.0592 
v -18.248 8.67228 19.8989 
v -18.1822 8.62074 20.2158 
v -18.197 8.70075 19.9232 
v -18.0736 8.57801 20.0676 
v -18.1376 8.65431 20.2088 
v -18.2305 8.76135 20.2759 
v -18.2887 8.73815 20.0823 
v -18.2337 8.7601 20.0884 
v -18.1428 8.72787 19.9737 
v -18.0501 8.63559 20.0823 
v -18.1704 8.77248 20.098 
v -18.0895 8.74524 20.1182 
v -18.168 8.77342 20.2389 
v -18.0982 8.69295 20.1884 
v -18.0895 8.74524 20.1182 
v -18.0895 8.74524 20.1182 

vn 0.393701 0.724409 0.566929 
vn 0.755906 0.661417 0.00787402 
vn 0.0787402 0.984252 -0.165354 
vn -0.464567 -0.330709 -0.818898 
vn 0.0944882 -0.88189 0.456693 
vn -0.976378 0.181102 -0.0944882 
vn -0.480315 0.299213 0.826772 
vn -0.251969 0.440945 0.866142 
vn -0.370079 -0.0393701 -0.929134 
vn -0.740157 0.653543 -0.15748 
vn -0.598425 0.771654 -0.212598 
vn -0.244094 0.480315 0.84252 
vn 0.606299 -0.622047 -0.496063 
vn 0.440945 -0.779528 -0.440945 
vn -0.228346 0.023622 -0.976378 
vn -0.448819 0.874016 -0.204724 
vn -0.0708661 0.582677 0.811024 
vn 0 0.228346 -0.976378 
vn 0.0551181 0.677165 0.732283 
vn -0.330709 0.92126 -0.204724 
vn 0.181102 0.409449 -0.897638 
vn 0.275591 0.456693 -0.84252 
vn 0.80315 -0.566929 -0.173228 
vn 0.559055 -0.354331 0.755906 
vn 0.0866142 0.637795 0.771654 
vn 0.551181 -0.362205 0.755906 
vn 0.992126 -0.110236 -0.0551181 
vn 0.84252 -0.519685 -0.11811 
vn 0.488189 0.598425 -0.629921 
vn 0.755906 0.661417 0.00787402 
vn 0.692913 -0.015748 0.716535 
vn 0.0944882 -0.88189 0.456693 
vn 0.606299 -0.622047 -0.496063 
vn -0.464567 -0.330709 -0.818898 
vn -0.370079 -0.0393701 -0.929134 
vn -0.480315 0.299213 0.826772 
vn -0.251969 0.440945 0.866142 
vn 0.559055 -0.456693 0.692913 
vn 0.440945 -0.779528 -0.440945 
vn 0.456693 -0.480315 0.748031 
vn -0.244094 0.480315 0.84252 
vn 0.511811 -0.818898 -0.267717 
vn -0.228346 0.023622 -0.976378 
vn 0 0.228346 -0.976378 
vn 0.543307 -0.370079 0.755906 
vn -0.0708661 0.582677 0.811024 
vn 0.716535 -0.661417 -0.204724 
vn 0.0551181 0.677165 0.732283 
vn 0.80315 -0.566929 -0.173228 
vn 0.181102 0.409449 -0.897638 
vn 0.559055 -0.354331 0.755906 
vn 0.275591 0.456693 -0.84252 
vn 0.84252 -0.519685 -0.11811 
vn 0.551181 -0.362205 0.755906 
vn 0.0866142 0.637795 0.771654 
vn -0.330709 0.92126 -0.204724 
vn -0.259843 0.944882 -0.188976 
vn 0.488189 0.598425 -0.629921 
vn 0.992126 -0.110236 -0.0551181 
vn 0.0787402 0.984252 -0.165354 
vn 0.755906 0.661417 0.00787402 
vn 0.393701 0.724409 0.566929 
vn 0.80315 0.00787402 0.598425 
vn 0.755906 0.661417 0.00787402 
vn 0.755906 0.661417 0.00787402 

vt 0.942015 0.0379108 
vt 0.942015 0.0379108 
vt 0.945827 0.0377302 
vt 0.945491 0.0225406 
vt 0.944217 0.0175977 
vt 0.942754 0.0220821 
vt 0.941362 0.0233085 
vt 0.942258 0.0315673 
vt 0.947199 0.0306658 
vt 0.943736 0.0310836 
vt 0.944782 0.0344069 
vt 0.942137 0.034739 
vt 0.94579 0.0240505 
vt 0.947861 0.0308913 
vt 0.948652 0.0340608 
vt 0.945304 0.0360686 
vt 0.942076 0.0363249 
vt 0.949379 0.0357584 
vt 0.942015 0.0379108 
vt 0.945827 0.0377302 
vt 0.950105 0.037456 
vt 0.950105 0.037456 
vt 0.949419 0.0381919 
vt 0.945236 0.0381284 
vt 0.942015 0.0379108 
vt 0.945236 0.0381284 
vt 0.949419 0.0381919 
vt 0.949419 0.0381919 
vt 0.950105 0.037456 
vt 0.950105 0.037456 
vt 0.943238 0.024525 
vt 0.944217 0.0175977 
vt 0.94579 0.0240505 
vt 0.945491 0.0225406 
vt 0.947199 0.0306658 
vt 0.941362 0.0233085 
vt 0.942258 0.0315673 
vt 0.944807 0.0314484 
vt 0.947861 0.0308913 
vt 0.945021 0.0347884 
vt 0.942137 0.034739 
vt 0.94864 0.0345416 
vt 0.948652 0.0340608 
vt 0.949379 0.0357584 
vt 0.945129 0.0364584 
vt 0.942076 0.0363249 
vt 0.949029 0.0363667 
vt 0.942015 0.0379108 
vt 0.949419 0.0381919 
vt 0.950105 0.037456 
vt 0.945236 0.0381284 
vt 0.950105 0.037456 
vt 0.949419 0.0381919 
vt 0.945236 0.0381284 
vt 0.942015 0.0379108 
vt 0.945827 0.0377302 
vt 0.945827 0.0377302 
vt 0.950105 0.037456 
vt 0.949419 0.0381919 
vt 0.945827 0.0377302 
vt 0.945827 0.0377302 
vt 0.942015 0.0379108 
vt 0.945236 0.0381284 
vt 0.949419 0.0381919 
vt 0.945236 0.0381284 

usemtl Stagfinger3l1Mtl

f 1/1/1 2/2/2 3/3/3 
f 4/4/4 5/5/5 6/6/6 
f 6/6/6 5/5/5 7/7/7 
f 8/8/8 6/6/6 7/7/7 
f 9/9/9 4/4/4 6/6/6 
f 6/6/6 8/8/8 10/10/10 
f 9/9/9 6/6/6 10/10/10 
f 11/11/11 10/10/10 8/8/8 
f 11/11/11 9/9/9 10/10/10 
f 12/12/12 11/11/11 8/8/8 
f 13/13/13 9/9/9 14/14/14 
f 15/15/15 14/14/14 9/9/9 
f 9/9/9 11/11/11 15/15/15 
f 16/16/16 11/11/11 12/12/12 
f 16/16/16 15/15/15 11/11/11 
f 17/17/17 16/16/16 12/12/12 
f 15/15/15 16/16/16 18/18/18 
f 19/19/19 16/16/16 17/17/17 
f 20/20/20 18/18/18 16/16/16 
f 16/16/16 19/19/19 20/20/20 
f 18/18/18 20/20/20 21/21/21 
f 21/21/21 20/20/20 22/22/22 
f 22/22/22 23/23/23 21/21/21 
f 19/19/19 24/24/24 25/25/25 
f 23/23/23 26/26/26 24/24/24 
f 27/27/27 26/26/26 28/28/28 
f 28/28/28 22/22/22 27/27/27 
f 29/29/29 30/30/30 27/27/27 
f 31/31/31 32/32/32 33/33/33 
f 33/33/33 32/32/32 34/34/34 
f 35/35/35 33/33/33 34/34/34 
f 36/36/36 32/32/32 31/31/31 
f 31/31/31 37/37/37 36/36/36 
f 38/38/38 31/31/31 33/33/33 
f 37/37/37 31/31/31 38/38/38 
f 33/33/33 39/39/39 38/38/38 
f 40/40/40 37/37/37 38/38/38 
f 39/39/39 40/40/40 38/38/38 
f 37/37/37 40/40/40 41/41/41 
f 39/39/39 42/42/42 40/40/40 
f 39/39/39 43/43/43 42/42/42 
f 44/44/44 42/42/42 43/43/43 
f 45/45/45 41/41/41 40/40/40 
f 45/45/45 40/40/40 42/42/42 
f 41/41/41 45/45/45 46/46/46 
f 42/42/42 44/44/44 47/47/47 
f 47/47/47 45/45/45 42/42/42 
f 45/45/45 48/48/48 46/46/46 
f 44/44/44 49/49/49 47/47/47 
f 49/49/49 45/45/45 47/47/47 
f 49/49/49 44/44/44 50/50/50 
f 48/48/48 45/45/45 51/51/51 
f 45/45/45 49/49/49 51/51/51 
f 49/49/49 52/52/52 53/53/53 
f 54/54/54 49/49/49 53/53/53 
f 54/54/54 55/55/55 51/51/51 
f 55/55/55 56/56/56 48/48/48 
f 57/57/57 52/52/52 56/56/56 
f 56/56/56 55/55/55 57/57/57 
f 52/52/52 57/57/57 58/58/58 
f 52/52/52 58/58/58 59/59/59 
f 60/60/60 58/58/58 57/57/57 
f 60/60/60 61/61/61 58/58/58 
f 57/57/57 62/62/62 60/60/60 
f 62/62/62 57/57/57 55/55/55 
f 55/55/55 54/54/54 62/62/62 
f 54/54/54 59/59/59 63/63/63 
f 63/63/63 62/62/62 54/54/54 
f 59/59/59 64/64/64 63/63/63 
f 63/63/63 65/65/65 62/62/62 

