# This file is brought to you by Roblox Corporation
# Generated by Roblox Studio

mtllib LowLegR.mtl

g Lowerlegr1

v -7.6937 0.887892 22.9774 
v -7.92856 0.981925 23.3256 
v -8.07793 0.699402 22.7777 
v -7.3079 0.683388 23.2347 
v -7.79261 0.979099 23.4063 
v -8.25362 1.50945 23.4469 
v -8.14574 2.14344 23.2708 
v -8.05772 1.45244 23.2944 
v -7.83054 2.13098 23.3117 
v -8.27346 1.5915 23.6893 
v -8.59827 1.2306 23.592 
v -8.32176 3.52545 23.2238 
v -7.92657 3.92172 23.2426 
v -7.89285 3.49005 23.2954 
v -8.23375 2.83444 23.2473 
v -7.86169 2.81052 23.3036 
v -8.37891 3.96482 23.1616 
v -7.96644 4.11515 23.2463 
v -8.33517 4.15029 23.1803 
v -8.6815 4.15433 23.3585 
v -7.62176 4.06149 23.6302 
v -7.71797 4.22908 23.5622 
v -7.70897 4.41619 23.8808 
v -8.03149 4.62139 23.7699 
v -7.95012 4.57364 24.0267 
v -8.34827 4.52824 24.0925 
v -8.31018 4.60956 23.9391 
v -7.90655 4.48418 24.2001 
v -7.61072 4.29103 24.0211 
v -7.62925 3.8315 24.1201 
v -7.606 3.61682 23.6667 
v -7.63546 3.08383 23.997 
v -7.9141 3.22061 24.2278 
v -7.94898 4.00832 24.3901 
v -7.87922 2.4329 24.0656 
v -7.64166 2.33615 23.8739 
v -7.61395 2.91363 23.614 
v -8.40389 2.36665 23.7752 
v -8.38291 2.24039 23.4625 
v -8.59827 1.2306 23.592 
v -8.38291 2.24039 23.4625 
v -8.25362 1.50945 23.4469 
v -8.59827 1.2306 23.592 
v -8.14574 2.14344 23.2708 
v -8.23375 2.83444 23.2473 
v -7.9989 1.96139 22.9908 
v -7.86169 2.81052 23.3036 
v -8.5122 2.97133 23.4781 
v -8.40389 2.36665 23.7752 
v -8.32176 3.52545 23.2238 
v -7.89285 3.49005 23.2954 
v -7.83054 2.13098 23.3117 
v -7.9989 1.96139 22.9908 
v -7.59847 1.83593 23.1586 
v -7.61395 2.91363 23.614 
v -7.606 3.61682 23.6667 
v -7.63546 3.08383 23.997 
v -7.92657 3.92172 23.2426 
v -7.62176 4.06149 23.6302 
v -8.37891 3.96482 23.1616 
v -8.6415 3.70227 23.4937 
v -8.6815 4.15433 23.3585 
v -8.53432 3.1418 23.8612 
v -8.66475 3.91695 23.9471 
v -8.19466 2.44489 24.0244 
v -8.28628 3.2443 24.1714 
v -8.12145 1.98205 24.2467 
v -8.3779 4.04372 24.3184 
v -8.10304 1.64547 23.8774 
v -8.34827 4.52824 24.0925 
v -8.27346 1.5915 23.6893 
v -8.59827 1.2306 23.592 
v -8.16538 0.969896 23.9258 
v -8.6637 4.38752 23.7315 
v -8.31018 4.60956 23.9391 
v -8.58182 4.30476 23.3407 
v -8.56732 4.49485 23.6448 
v -8.23906 4.6421 23.7194 
v -8.33517 4.15029 23.1803 
v -8.39564 4.4664 23.3745 
v -8.38728 4.57597 23.5498 
v -8.25346 4.37735 23.282 
v -8.0409 4.3571 23.3201 
v -7.96644 4.11515 23.2463 
v -7.89767 4.42277 23.5022 
v -7.71797 4.22908 23.5622 
v -8.03149 4.62139 23.7699 
v -7.89249 4.53063 23.6859 
v -7.70897 4.41619 23.8808 
v -8.31018 4.60956 23.9391 
v -8.23906 4.6421 23.7194 
v -7.95012 4.57364 24.0267 
v -7.61072 4.29103 24.0211 
v -7.62925 3.8315 24.1201 
v -7.94898 4.00832 24.3901 
v -7.90655 4.48418 24.2001 
v -8.3779 4.04372 24.3184 
v -8.34827 4.52824 24.0925 
v -8.28628 3.2443 24.1714 
v -7.9141 3.22061 24.2278 
v -8.12145 1.98205 24.2467 
v -7.87922 2.4329 24.0656 
v -8.19466 2.44489 24.0244 
v -8.12145 1.98205 24.2467 
v -8.10304 1.64547 23.8774 
v -7.84433 1.64518 23.9034 
v -8.16538 0.969896 23.9258 
v -7.64166 2.33615 23.8739 
v -7.69924 0.717357 23.9255 
v -7.944 1.02968 23.5283 
v -7.86171 0.985095 23.5282 
v -7.80847 1.02451 23.4881 
v -7.64787 1.58848 23.7508 
v -7.39772 0.940575 23.698 
v -7.79261 0.979099 23.4063 
v -7.3079 0.683388 23.2347 
v -7.6219 2.21043 23.5613 
v -7.62985 1.50724 23.5086 
v -7.59847 1.83593 23.1586 
v -7.53568 1.36043 23.2985 
v -7.53568 1.36043 23.2985 
v -7.79939 1.45144 23.3199 
v -8.05772 1.45244 23.2944 
v -7.6937 0.887892 22.9774 
v -7.86073 1.0152 23.3608 
v -7.92856 0.981925 23.3256 
v -8.07793 0.699402 22.7777 
v -8.3609 1.0028 23.4239 
v -7.97853 1.03549 23.4397 
v -7.9977 0.996172 23.4675 
v -8.46954 0.780091 23.5815 
v -7.944 1.02968 23.5283 

vn 0.417323 -0.393701 -0.818898 
vn 0.141732 -0.897638 0.425197 
vn -0.19685 -0.614173 -0.76378 
vn 0.637795 -0.716535 -0.299213 
vn -0.448819 -0.866142 0.228346 
vn -0.677165 -0.0551181 -0.732283 
vn -0.677165 -0.291339 -0.677165 
vn -0.338583 0.251969 -0.905512 
vn 0.149606 -0.338583 -0.929134 
vn -0.566929 -0.15748 0.811024 
vn -0.503937 -0.866142 0.0314961 
vn -0.291339 -0.125984 -0.952756 
vn 0.511811 0.015748 -0.858268 
vn 0.519685 -0.023622 -0.858268 
vn -0.330709 0.00787402 -0.944882 
vn 0.488189 0.165354 -0.858268 
vn -0.267717 -0.0551181 -0.96063 
vn 0.464567 0.228346 -0.850394 
vn -0.102362 0.251969 -0.96063 
vn -0.858268 0.110236 -0.496063 
vn 0.929134 0.133858 -0.346457 
vn 0.787402 0.377953 -0.488189 
vn 0.748031 0.661417 -0.0866142 
vn 0.267717 0.952756 -0.149606 
vn 0.314961 0.913386 0.251969 
vn -0.433071 0.653543 0.622047 
vn -0.275591 0.929134 0.251969 
vn 0.330709 0.637795 0.700787 
vn 0.889764 0.362205 0.283465 
vn 0.874016 -0.00787402 0.488189 
vn 0.96063 -0.00787402 -0.291339 
vn 0.874016 -0.0866142 0.472441 
vn 0.275591 -0.11811 0.952756 
vn 0.228346 0.0866142 0.968504 
vn 0.582677 -0.251969 0.771654 
vn 0.874016 -0.0866142 0.480315 
vn 0.96063 0.0472441 -0.275591 
vn -0.913386 -0.141732 0.393701 
vn -0.866142 -0.0314961 -0.503937 
vn -0.503937 -0.866142 0.0314961 
vn -0.866142 -0.0314961 -0.503937 
vn -0.677165 -0.0551181 -0.732283 
vn -0.503937 -0.866142 0.0314961 
vn -0.677165 -0.291339 -0.677165 
vn -0.330709 0.00787402 -0.944882 
vn 0.015748 -0.755906 -0.661417 
vn 0.488189 0.165354 -0.858268 
vn -0.905512 -0.149606 -0.393701 
vn -0.913386 -0.141732 0.393701 
vn -0.291339 -0.125984 -0.952756 
vn 0.519685 -0.023622 -0.858268 
vn 0.149606 -0.338583 -0.929134 
vn 0.015748 -0.755906 -0.661417 
vn 0.251969 -0.858268 -0.448819 
vn 0.96063 0.0472441 -0.275591 
vn 0.96063 -0.00787402 -0.291339 
vn 0.874016 -0.0866142 0.472441 
vn 0.511811 0.015748 -0.858268 
vn 0.929134 0.133858 -0.346457 
vn -0.267717 -0.0551181 -0.96063 
vn -0.92126 -0.165354 -0.346457 
vn -0.858268 0.110236 -0.496063 
vn -0.913386 -0.19685 0.362205 
vn -0.929134 -0.023622 0.377953 
vn -0.84252 -0.314961 0.433071 
vn -0.503937 -0.15748 0.850394 
vn -0.102362 -0.968504 0.244094 
vn -0.496063 0.110236 0.858268 
vn -0.433071 -0.0787402 0.897638 
vn -0.433071 0.653543 0.622047 
vn -0.566929 -0.15748 0.811024 
vn -0.503937 -0.866142 0.0314961 
vn -0.401575 -0.496063 0.771654 
vn -0.897638 0.417323 0.149606 
vn -0.275591 0.929134 0.251969 
vn -0.582677 0.488189 -0.645669 
vn -0.645669 0.755906 -0.110236 
vn -0.0393701 0.984252 -0.173228 
vn -0.102362 0.251969 -0.96063 
vn -0.204724 0.755906 -0.629921 
vn -0.220472 0.905512 -0.354331 
vn 0.0629921 0.606299 -0.787402 
vn 0.362205 0.582677 -0.724409 
vn 0.464567 0.228346 -0.850394 
vn 0.519685 0.661417 -0.535433 
vn 0.787402 0.377953 -0.488189 
vn 0.267717 0.952756 -0.149606 
vn 0.511811 0.795276 -0.322835 
vn 0.748031 0.661417 -0.0866142 
vn -0.275591 0.929134 0.251969 
vn -0.0393701 0.984252 -0.173228 
vn 0.314961 0.913386 0.251969 
vn 0.889764 0.362205 0.283465 
vn 0.874016 -0.00787402 0.488189 
vn 0.228346 0.0866142 0.968504 
vn 0.330709 0.637795 0.700787 
vn -0.496063 0.110236 0.858268 
vn -0.433071 0.653543 0.622047 
vn -0.503937 -0.15748 0.850394 
vn 0.275591 -0.11811 0.952756 
vn -0.102362 -0.968504 0.244094 
vn 0.582677 -0.251969 0.771654 
vn -0.84252 -0.314961 0.433071 
vn -0.102362 -0.968504 0.244094 
vn -0.433071 -0.0787402 0.897638 
vn 0.267717 -0.0551181 0.96063 
vn -0.401575 -0.496063 0.771654 
vn 0.874016 -0.0866142 0.480315 
vn 0.19685 -0.858268 0.472441 
vn -0.023622 -0.984252 -0.15748 
vn -0.165354 -0.850394 -0.503937 
vn -0.125984 -0.984252 -0.141732 
vn 0.874016 0.0866142 0.488189 
vn 0.850394 -0.377953 0.362205 
vn -0.448819 -0.866142 0.228346 
vn 0.637795 -0.716535 -0.299213 
vn 1 -0.0551181 0.0314961 
vn 0.992126 0.0708661 0.110236 
vn 0.251969 -0.858268 -0.448819 
vn 0.559055 -0.748031 -0.354331 
vn 0.559055 -0.748031 -0.354331 
vn 0.212598 0.15748 -0.96063 
vn -0.338583 0.251969 -0.905512 
vn 0.417323 -0.393701 -0.818898 
vn -0.173228 -0.952756 0.244094 
vn 0.141732 -0.897638 0.425197 
vn -0.19685 -0.614173 -0.76378 
vn -0.771654 -0.244094 -0.590551 
vn 0.0866142 -0.992126 -0.0314961 
vn 0.291339 -0.858268 -0.425197 
vn -0.653543 -0.755906 -0.023622 
vn -0.023622 -0.984252 -0.15748 

vt 0.947863 0.929701 
vt 0.953983 0.929701 
vt 0.953983 0.929701 
vt 0.941743 0.929701 
vt 0.941743 0.929701 
vt 0.960102 0.929701 
vt 0.953983 0.929701 
vt 0.953983 0.929701 
vt 0.947863 0.929701 
vt 0.966223 0.929701 
vt 0.960102 0.929701 
vt 0.953983 0.929701 
vt 0.947863 0.929701 
vt 0.947863 0.929701 
vt 0.953983 0.929701 
vt 0.947863 0.929701 
vt 0.953983 0.929701 
vt 0.947863 0.929701 
vt 0.953982 0.929701 
vt 0.960102 0.929701 
vt 0.941743 0.929701 
vt 0.941743 0.929701 
vt 0.935623 0.929701 
vt 0.929503 0.929701 
vt 0.929503 0.929701 
vt 0.923383 0.929701 
vt 0.923383 0.929701 
vt 0.929503 0.929701 
vt 0.935623 0.929701 
vt 0.935623 0.929701 
vt 0.941743 0.929701 
vt 0.935623 0.929701 
vt 0.929503 0.929701 
vt 0.929503 0.929701 
vt 0.929503 0.929701 
vt 0.935623 0.929701 
vt 0.941743 0.929701 
vt 0.966223 0.929701 
vt 0.960102 0.929701 
vt 0.966223 0.929701 
vt 0.960102 0.929701 
vt 0.960102 0.929701 
vt 0.960102 0.929701 
vt 0.953983 0.929701 
vt 0.953983 0.929701 
vt 0.953983 0.929701 
vt 0.947863 0.929701 
vt 0.960103 0.929701 
vt 0.966223 0.929701 
vt 0.953983 0.929701 
vt 0.947863 0.929701 
vt 0.947863 0.929701 
vt 0.947863 0.929701 
vt 0.947863 0.929701 
vt 0.941743 0.929701 
vt 0.941743 0.929701 
vt 0.935623 0.929701 
vt 0.947863 0.929701 
vt 0.941743 0.929701 
vt 0.953983 0.929701 
vt 0.960102 0.929701 
vt 0.960102 0.929701 
vt 0.966223 0.929701 
vt 0.966223 0.929701 
vt 0.972342 0.929701 
vt 0.972342 0.929701 
vt 0.972342 0.929701 
vt 0.972342 0.929701 
vt 0.972342 0.929701 
vt 0.972342 0.929701 
vt 0.966223 0.929701 
vt 0.966223 0.929701 
vt 0.972342 0.929701 
vt 0.966223 0.929701 
vt 0.972342 0.929701 
vt 0.960103 0.929701 
vt 0.966223 0.929701 
vt 0.972342 0.929701 
vt 0.953982 0.929701 
vt 0.960102 0.929701 
vt 0.966223 0.929701 
vt 0.953983 0.929701 
vt 0.947863 0.929701 
vt 0.947863 0.929701 
vt 0.941743 0.929701 
vt 0.941743 0.929701 
vt 0.929503 0.929701 
vt 0.935623 0.929701 
vt 0.935623 0.929701 
vt 0.923383 0.929701 
vt 0.923383 0.929701 
vt 0.929503 0.929701 
vt 0.935623 0.929701 
vt 0.935623 0.929701 
vt 0.929503 0.929701 
vt 0.929503 0.929701 
vt 0.923383 0.929701 
vt 0.923383 0.929701 
vt 0.923383 0.929701 
vt 0.929503 0.929701 
vt 0.929503 0.929701 
vt 0.929503 0.929701 
vt 0.923383 0.929701 
vt 0.923383 0.929701 
vt 0.923383 0.929701 
vt 0.929503 0.929701 
vt 0.923383 0.929701 
vt 0.935623 0.929701 
vt 0.929503 0.929701 
vt 0.923383 0.929701 
vt 0.929503 0.929701 
vt 0.935623 0.929701 
vt 0.935623 0.929701 
vt 0.935623 0.929701 
vt 0.941743 0.929701 
vt 0.941743 0.929701 
vt 0.941743 0.929701 
vt 0.941743 0.929701 
vt 0.941743 0.929701 
vt 0.941743 0.929701 
vt 0.947863 0.929701 
vt 0.947863 0.929701 
vt 0.953983 0.929701 
vt 0.947863 0.929701 
vt 0.947863 0.929701 
vt 0.953983 0.929701 
vt 0.953983 0.929701 
vt 0.960103 0.929701 
vt 0.960103 0.929701 
vt 0.966223 0.929701 
vt 0.966223 0.929701 
vt 0.972342 0.929701 

usemtl Lowerlegr1Mtl

f 1/1/1 2/2/2 3/3/3 
f 1/1/1 4/4/4 5/5/5 
f 6/6/6 7/7/7 8/8/8 
f 9/9/9 8/8/8 7/7/7 
f 6/6/6 10/10/10 11/11/11 
f 12/12/12 13/13/13 14/14/14 
f 15/15/15 14/14/14 16/16/16 
f 17/17/17 18/18/18 13/13/13 
f 18/18/18 17/17/17 19/19/19 
f 20/20/20 19/19/19 17/17/17 
f 18/18/18 21/21/21 13/13/13 
f 21/21/21 18/18/18 22/22/22 
f 23/23/23 21/21/21 22/22/22 
f 23/23/23 24/24/24 25/25/25 
f 26/26/26 25/25/25 27/27/27 
f 26/26/26 28/28/28 25/25/25 
f 29/29/29 25/25/25 28/28/28 
f 21/21/21 29/29/29 30/30/30 
f 31/31/31 21/21/21 30/30/30 
f 30/30/30 32/32/32 31/31/31 
f 32/32/32 30/30/30 33/33/33 
f 34/34/34 33/33/33 30/30/30 
f 33/33/33 35/35/35 32/32/32 
f 36/36/36 32/32/32 35/35/35 
f 32/32/32 36/36/36 37/37/37 
f 38/38/38 39/39/39 40/40/40 
f 41/41/41 42/42/42 43/43/43 
f 44/44/44 42/42/42 41/41/41 
f 41/41/41 45/45/45 44/44/44 
f 44/44/44 45/45/45 46/46/46 
f 45/45/45 47/47/47 46/46/46 
f 45/45/45 41/41/41 48/48/48 
f 49/49/49 48/48/48 41/41/41 
f 48/48/48 50/50/50 45/45/45 
f 51/51/51 45/45/45 50/50/50 
f 52/52/52 44/44/44 53/53/53 
f 47/47/47 52/52/52 53/53/53 
f 52/52/52 47/47/47 54/54/54 
f 47/47/47 55/55/55 54/54/54 
f 51/51/51 55/55/55 47/47/47 
f 56/56/56 55/55/55 51/51/51 
f 55/55/55 56/56/56 57/57/57 
f 58/58/58 56/56/56 51/51/51 
f 59/59/59 56/56/56 58/58/58 
f 58/58/58 50/50/50 60/60/60 
f 61/61/61 60/60/60 50/50/50 
f 50/50/50 48/48/48 61/61/61 
f 60/60/60 61/61/61 62/62/62 
f 63/63/63 61/61/61 48/48/48 
f 64/64/64 62/62/62 61/61/61 
f 61/61/61 63/63/63 64/64/64 
f 48/48/48 49/49/49 63/63/63 
f 65/65/65 63/63/63 49/49/49 
f 63/63/63 65/65/65 66/66/66 
f 66/66/66 64/64/64 63/63/63 
f 66/66/66 65/65/65 67/67/67 
f 64/64/64 66/66/66 68/68/68 
f 49/49/49 69/69/69 65/65/65 
f 70/70/70 64/64/64 68/68/68 
f 69/69/69 49/49/49 71/71/71 
f 71/71/71 49/49/49 72/72/72 
f 71/71/71 73/73/73 69/69/69 
f 64/64/64 70/70/70 74/74/74 
f 62/62/62 64/64/64 74/74/74 
f 74/74/74 70/70/70 75/75/75 
f 74/74/74 76/76/76 62/62/62 
f 75/75/75 77/77/77 74/74/74 
f 76/76/76 74/74/74 77/77/77 
f 77/77/77 75/75/75 78/78/78 
f 79/79/79 62/62/62 76/76/76 
f 79/79/79 76/76/76 80/80/80 
f 81/81/81 76/76/76 77/77/77 
f 76/76/76 81/81/81 80/80/80 
f 78/78/78 81/81/81 77/77/77 
f 82/82/82 79/79/79 80/80/80 
f 81/81/81 82/82/82 80/80/80 
f 83/83/83 79/79/79 82/82/82 
f 81/81/81 83/83/83 82/82/82 
f 78/78/78 83/83/83 81/81/81 
f 79/79/79 83/83/83 84/84/84 
f 83/83/83 78/78/78 85/85/85 
f 85/85/85 84/84/84 83/83/83 
f 84/84/84 85/85/85 86/86/86 
f 87/87/87 85/85/85 78/78/78 
f 88/88/88 86/86/86 85/85/85 
f 85/85/85 87/87/87 88/88/88 
f 86/86/86 88/88/88 89/89/89 
f 87/87/87 89/89/89 88/88/88 
f 90/90/90 87/87/87 91/91/91 
f 92/92/92 87/87/87 90/90/90 
f 92/92/92 93/93/93 89/89/89 
f 59/59/59 89/89/89 93/93/93 
f 94/94/94 93/93/93 95/95/95 
f 96/96/96 95/95/95 93/93/93 
f 96/96/96 97/97/97 95/95/95 
f 98/98/98 97/97/97 96/96/96 
f 97/97/97 99/99/99 95/95/95 
f 95/95/95 99/99/99 100/100/100 
f 100/100/100 99/99/99 101/101/101 
f 102/102/102 100/100/100 101/101/101 
f 103/103/103 102/102/102 104/104/104 
f 103/103/103 105/105/105 102/102/102 
f 102/102/102 105/105/105 106/106/106 
f 105/105/105 107/107/107 106/106/106 
f 102/102/102 106/106/106 108/108/108 
f 109/109/109 106/106/106 107/107/107 
f 109/109/109 107/107/107 110/110/110 
f 111/111/111 109/109/109 110/110/110 
f 112/112/112 109/109/109 111/111/111 
f 106/106/106 109/109/109 113/113/113 
f 108/108/108 106/106/106 113/113/113 
f 109/109/109 112/112/112 114/114/114 
f 113/113/113 109/109/109 114/114/114 
f 115/115/115 114/114/114 112/112/112 
f 114/114/114 115/115/115 116/116/116 
f 108/108/108 113/113/113 117/117/117 
f 117/117/117 55/55/55 108/108/108 
f 113/113/113 114/114/114 118/118/118 
f 116/116/116 118/118/118 114/114/114 
f 117/117/117 113/113/113 118/118/118 
f 55/55/55 117/117/117 119/119/119 
f 117/117/117 52/52/52 119/119/119 
f 117/117/117 118/118/118 120/120/120 
f 52/52/52 117/117/117 121/121/121 
f 118/118/118 122/122/122 120/120/120 
f 122/122/122 52/52/52 121/121/121 
f 118/118/118 116/116/116 122/122/122 
f 123/123/123 52/52/52 122/122/122 
f 122/122/122 116/116/116 124/124/124 
f 124/124/124 123/123/123 122/122/122 
f 124/124/124 115/115/115 125/125/125 
f 126/126/126 124/124/124 125/125/125 
f 127/127/127 123/123/123 124/124/124 
f 128/128/128 127/127/127 126/126/126 
f 128/128/128 123/123/123 127/127/127 
f 128/128/128 126/126/126 129/129/129 
f 123/123/123 128/128/128 42/42/42 
f 130/130/130 128/128/128 129/129/129 
f 128/128/128 71/71/71 42/42/42 
f 131/131/131 71/71/71 128/128/128 
f 128/128/128 130/130/130 131/131/131 
f 73/73/73 71/71/71 131/131/131 
f 131/131/131 130/130/130 73/73/73 
f 73/73/73 130/130/130 132/132/132 

