# This file is brought to you by Roblox Corporation
# Generated by Roblox Studio

mtllib LowLegL.mtl

g Lowerlegl1

v -11.725 0.717358 23.9255 
v -11.6158 1.02451 23.4881 
v -11.5625 0.985096 23.5282 
v -11.7944 1.50724 23.5086 
v -12.1163 0.683388 23.2347 
v -12.0265 0.940575 23.698 
v -11.6316 0.979099 23.4063 
v -11.7305 0.887893 22.9774 
v -11.4957 0.981926 23.3256 
v -11.5635 1.0152 23.3608 
v -11.037 4.57597 23.5498 
v -10.8569 4.49485 23.6448 
v -10.8424 4.30476 23.3407 
v -10.7605 4.38752 23.7315 
v -10.7427 4.15433 23.3585 
v -11.0891 4.15029 23.1803 
v -11.0286 4.4664 23.3745 
v -11.1708 4.37735 23.282 
v -11.3833 4.3571 23.3201 
v -11.4578 4.11515 23.2463 
v -11.5266 4.42277 23.5022 
v -11.5937 2.13098 23.3117 
v -11.4253 1.96139 22.9908 
v -11.2785 2.14344 23.2708 
v -10.7605 4.38752 23.7315 
v -11.114 4.60956 23.9391 
v -11.076 4.52824 24.0925 
v -10.7595 3.91695 23.9471 
v -10.7427 4.15433 23.3585 
v -10.7827 3.70227 23.4937 
v -11.0463 4.04372 24.3184 
v -11.1379 3.2443 24.1714 
v -10.8899 3.1418 23.8612 
v -10.912 2.97133 23.4781 
v -11.2296 2.44489 24.0244 
v -11.3028 1.98205 24.2467 
v -11.0203 2.36665 23.7752 
v -11.3212 1.64547 23.8774 
v -10.826 1.2306 23.592 
v -11.0413 2.24039 23.4625 
v -11.1508 1.5915 23.6893 
v -11.2588 0.969897 23.9258 
v -10.9547 0.780092 23.5815 
v -11.4265 0.996172 23.4675 
v -11.4802 1.02968 23.5283 
v -11.0633 1.0028 23.4239 
v -11.4457 1.03549 23.4397 
v -11.4957 0.981926 23.3256 
v -11.3463 0.699403 22.7777 
v -11.3665 1.45244 23.2944 
v -11.7305 0.887893 22.9774 
v -11.6248 1.45144 23.3199 
v -12.1163 0.683388 23.2347 
v -11.6316 0.979099 23.4063 
v -11.5635 1.0152 23.3608 
v -11.7944 1.50724 23.5086 
v -11.8886 1.36043 23.2985 
v -12.0265 0.940575 23.698 
v -11.8023 2.21044 23.5613 
v -11.6158 1.02451 23.4881 
v -11.7764 1.58848 23.7508 
v -11.725 0.717358 23.9255 
v -11.4802 1.02968 23.5283 
v -11.5625 0.985096 23.5282 
v -11.2588 0.969897 23.9258 
v -11.5799 1.64518 23.9034 
v -11.7826 2.33615 23.8739 
v -11.3212 1.64547 23.8774 
v -11.545 2.4329 24.0656 
v -11.2296 2.44489 24.0244 
v -11.3028 1.98205 24.2467 
v -10.826 1.2306 23.592 
v -11.1706 1.50945 23.4469 
v -11.2785 2.14344 23.2708 
v -11.1905 2.83444 23.2473 
v -11.4253 1.96139 22.9908 
v -11.5625 2.81052 23.3036 
v -11.5314 3.49005 23.2954 
v -11.5937 2.13098 23.3117 
v -11.4253 1.96139 22.9908 
v -11.8258 1.83593 23.1586 
v -11.8103 2.91363 23.614 
v -11.8182 3.61683 23.6667 
v -11.4977 3.92172 23.2426 
v -11.1025 3.52545 23.2238 
v -11.8025 4.06149 23.6302 
v -11.8886 1.36043 23.2985 
v -11.8258 1.83593 23.1586 
v -11.7888 3.08383 23.997 
v -11.795 3.8315 24.1201 
v -11.5101 3.22061 24.2278 
v -11.3028 1.98205 24.2467 
v -11.1379 3.2443 24.1714 
v -11.4752 4.00833 24.3901 
v -11.0463 4.04372 24.3184 
v -11.5177 4.48418 24.2001 
v -11.076 4.52824 24.0925 
v -11.8135 4.29103 24.0211 
v -11.4741 4.57364 24.0267 
v -11.7153 4.41619 23.8808 
v -11.3927 4.62139 23.7699 
v -11.7063 4.22908 23.5622 
v -11.5317 4.53063 23.6859 
v -11.114 4.60956 23.9391 
v -11.1852 4.6421 23.7194 
v -11.5266 4.42277 23.5022 
v -11.1852 4.6421 23.7194 
v -11.4578 4.11515 23.2463 
v -11.0453 3.96482 23.1616 
v -11.3833 4.3571 23.3201 
v -11.0891 4.15029 23.1803 
v -11.037 4.57597 23.5498 
v -11.1708 4.37735 23.282 
v -11.0286 4.4664 23.3745 
v -10.8424 4.30476 23.3407 
v -10.8569 4.49485 23.6448 
v -11.1025 3.52545 23.2238 
v -11.4977 3.92172 23.2426 
v -11.0453 3.96482 23.1616 
v -10.7827 3.70227 23.4937 
v -10.912 2.97133 23.4781 
v -11.1905 2.83444 23.2473 
v -11.5314 3.49005 23.2954 
v -11.0413 2.24039 23.4625 
v -11.0203 2.36665 23.7752 
v -11.5625 2.81052 23.3036 
v -11.8103 2.91363 23.614 
v -11.8182 3.61683 23.6667 
v -11.7888 3.08383 23.997 
v -11.795 3.8315 24.1201 
v -11.8025 4.06149 23.6302 
v -11.5101 3.22061 24.2278 
v -11.4752 4.00833 24.3901 
v -11.8135 4.29103 24.0211 
v -11.4741 4.57364 24.0267 
v -11.7153 4.41619 23.8808 
v -11.5317 4.53063 23.6859 
v -11.7063 4.22908 23.5622 
v -11.114 4.60956 23.9391 
v -11.3927 4.62139 23.7699 
v -11.076 4.52824 24.0925 
v -11.0633 1.0028 23.4239 
v -11.1706 1.50945 23.4469 
v -11.1508 1.5915 23.6893 
v -11.3665 1.45244 23.2944 

vn -0.19685 -0.858268 0.472441 
vn 0.125984 -0.984252 -0.141732 
vn 0.165354 -0.850394 -0.503937 
vn -0.992126 0.0708661 0.110236 
vn -0.629921 -0.716535 -0.299213 
vn -0.850394 -0.377953 0.362205 
vn 0.448819 -0.866142 0.228346 
vn -0.417323 -0.393701 -0.818898 
vn -0.141732 -0.897638 0.425197 
vn 0.173228 -0.952756 0.244094 
vn 0.220472 0.905512 -0.354331 
vn 0.645669 0.755906 -0.110236 
vn 0.582677 0.488189 -0.645669 
vn 0.897638 0.417323 0.149606 
vn 0.858268 0.110236 -0.496063 
vn 0.102362 0.251969 -0.96063 
vn 0.204724 0.755906 -0.629921 
vn -0.0629921 0.606299 -0.787402 
vn -0.362205 0.582677 -0.724409 
vn -0.464567 0.228346 -0.850394 
vn -0.519685 0.661417 -0.535433 
vn -0.149606 -0.338583 -0.929134 
vn -0.015748 -0.755906 -0.661417 
vn 0.677165 -0.291339 -0.677165 
vn 0.897638 0.417323 0.149606 
vn 0.275591 0.929134 0.251969 
vn 0.433071 0.653543 0.622047 
vn 0.929134 -0.023622 0.377953 
vn 0.858268 0.110236 -0.496063 
vn 0.92126 -0.165354 -0.346457 
vn 0.496063 0.110236 0.858268 
vn 0.503937 -0.15748 0.850394 
vn 0.913386 -0.19685 0.362205 
vn 0.905512 -0.149606 -0.393701 
vn 0.84252 -0.314961 0.433071 
vn 0.102362 -0.968504 0.244094 
vn 0.913386 -0.141732 0.393701 
vn 0.433071 -0.0787402 0.897638 
vn 0.503937 -0.866142 0.0314961 
vn 0.858268 -0.0314961 -0.503937 
vn 0.566929 -0.15748 0.811024 
vn 0.401575 -0.496063 0.771654 
vn 0.653543 -0.755906 -0.023622 
vn -0.291339 -0.858268 -0.425197 
vn 0.015748 -0.984252 -0.15748 
vn 0.771654 -0.244094 -0.590551 
vn -0.0866142 -0.992126 -0.0314961 
vn -0.141732 -0.897638 0.425197 
vn 0.19685 -0.614173 -0.76378 
vn 0.338583 0.251969 -0.905512 
vn -0.417323 -0.393701 -0.818898 
vn -0.212598 0.15748 -0.96063 
vn -0.629921 -0.716535 -0.299213 
vn 0.448819 -0.866142 0.228346 
vn 0.173228 -0.952756 0.244094 
vn -0.992126 0.0708661 0.110236 
vn -0.559055 -0.748031 -0.354331 
vn -0.850394 -0.377953 0.362205 
vn -1 -0.0551181 0.0314961 
vn 0.125984 -0.984252 -0.141732 
vn -0.874016 0.0866142 0.488189 
vn -0.19685 -0.858268 0.472441 
vn 0.015748 -0.984252 -0.15748 
vn 0.165354 -0.850394 -0.503937 
vn 0.401575 -0.496063 0.771654 
vn -0.267717 -0.0551181 0.96063 
vn -0.874016 -0.0866142 0.480315 
vn 0.433071 -0.0787402 0.897638 
vn -0.582677 -0.251969 0.771654 
vn 0.84252 -0.314961 0.433071 
vn 0.102362 -0.968504 0.244094 
vn 0.503937 -0.866142 0.0314961 
vn 0.677165 -0.0551181 -0.732283 
vn 0.677165 -0.291339 -0.677165 
vn 0.330709 0.00787402 -0.944882 
vn -0.015748 -0.755906 -0.661417 
vn -0.488189 0.165354 -0.858268 
vn -0.511811 -0.023622 -0.858268 
vn -0.149606 -0.338583 -0.929134 
vn -0.015748 -0.755906 -0.661417 
vn -0.251969 -0.858268 -0.448819 
vn -0.96063 0.0472441 -0.275591 
vn -0.96063 -0.00787402 -0.291339 
vn -0.511811 0.015748 -0.858268 
vn 0.291339 -0.125984 -0.952756 
vn -0.929134 0.133858 -0.346457 
vn -0.559055 -0.748031 -0.354331 
vn -0.251969 -0.858268 -0.448819 
vn -0.874016 -0.0866142 0.472441 
vn -0.874016 -0.00787402 0.488189 
vn -0.275591 -0.11811 0.952756 
vn 0.102362 -0.968504 0.244094 
vn 0.503937 -0.15748 0.850394 
vn -0.228346 0.0866142 0.968504 
vn 0.496063 0.110236 0.858268 
vn -0.330709 0.637795 0.700787 
vn 0.433071 0.653543 0.622047 
vn -0.889764 0.362205 0.283465 
vn -0.314961 0.913386 0.251969 
vn -0.748031 0.661417 -0.0866142 
vn -0.267717 0.952756 -0.149606 
vn -0.787402 0.377953 -0.488189 
vn -0.511811 0.795276 -0.322835 
vn 0.275591 0.929134 0.251969 
vn 0.0393701 0.984252 -0.173228 
vn -0.519685 0.661417 -0.535433 
vn 0.0393701 0.984252 -0.173228 
vn -0.464567 0.228346 -0.850394 
vn 0.267717 -0.0551181 -0.96063 
vn -0.362205 0.582677 -0.724409 
vn 0.102362 0.251969 -0.96063 
vn 0.220472 0.905512 -0.354331 
vn -0.0629921 0.606299 -0.787402 
vn 0.204724 0.755906 -0.629921 
vn 0.582677 0.488189 -0.645669 
vn 0.645669 0.755906 -0.110236 
vn 0.291339 -0.125984 -0.952756 
vn -0.511811 0.015748 -0.858268 
vn 0.267717 -0.0551181 -0.96063 
vn 0.92126 -0.165354 -0.346457 
vn 0.905512 -0.149606 -0.393701 
vn 0.330709 0.00787402 -0.944882 
vn -0.511811 -0.023622 -0.858268 
vn 0.858268 -0.0314961 -0.503937 
vn 0.913386 -0.141732 0.393701 
vn -0.488189 0.165354 -0.858268 
vn -0.96063 0.0472441 -0.275591 
vn -0.96063 -0.00787402 -0.291339 
vn -0.874016 -0.0866142 0.472441 
vn -0.874016 -0.00787402 0.488189 
vn -0.929134 0.133858 -0.346457 
vn -0.275591 -0.11811 0.952756 
vn -0.228346 0.0866142 0.968504 
vn -0.889764 0.362205 0.283465 
vn -0.314961 0.913386 0.251969 
vn -0.748031 0.661417 -0.0866142 
vn -0.511811 0.795276 -0.322835 
vn -0.787402 0.377953 -0.488189 
vn 0.275591 0.929134 0.251969 
vn -0.267717 0.952756 -0.149606 
vn 0.433071 0.653543 0.622047 
vn 0.771654 -0.244094 -0.590551 
vn 0.677165 -0.0551181 -0.732283 
vn 0.566929 -0.15748 0.811024 
vn 0.338583 0.251969 -0.905512 

vt 0.929503 0.929701 
vt 0.935623 0.929701 
vt 0.929503 0.929701 
vt 0.941743 0.929701 
vt 0.941743 0.929701 
vt 0.935623 0.929701 
vt 0.941743 0.929701 
vt 0.947863 0.929701 
vt 0.953983 0.929701 
vt 0.947863 0.929701 
vt 0.966223 0.929701 
vt 0.966223 0.929701 
vt 0.960103 0.929701 
vt 0.966223 0.929701 
vt 0.960102 0.929701 
vt 0.953982 0.929701 
vt 0.960102 0.929701 
vt 0.953983 0.929701 
vt 0.947863 0.929701 
vt 0.947863 0.929701 
vt 0.941743 0.929701 
vt 0.947863 0.929701 
vt 0.947863 0.929701 
vt 0.953983 0.929701 
vt 0.966223 0.929701 
vt 0.972342 0.929701 
vt 0.972342 0.929701 
vt 0.966223 0.929701 
vt 0.960102 0.929701 
vt 0.960102 0.929701 
vt 0.972342 0.929701 
vt 0.972342 0.929701 
vt 0.966223 0.929701 
vt 0.960103 0.929701 
vt 0.972342 0.929701 
vt 0.972342 0.929701 
vt 0.966223 0.929701 
vt 0.972342 0.929701 
vt 0.966223 0.929701 
vt 0.960102 0.929701 
vt 0.966223 0.929701 
vt 0.972342 0.929701 
vt 0.966223 0.929701 
vt 0.966223 0.929701 
vt 0.972342 0.929701 
vt 0.960103 0.929701 
vt 0.960103 0.929701 
vt 0.953983 0.929701 
vt 0.953983 0.929701 
vt 0.953983 0.929701 
vt 0.947863 0.929701 
vt 0.947863 0.929701 
vt 0.941743 0.929701 
vt 0.941743 0.929701 
vt 0.947863 0.929701 
vt 0.941743 0.929701 
vt 0.941743 0.929701 
vt 0.935623 0.929701 
vt 0.941743 0.929701 
vt 0.935623 0.929701 
vt 0.935623 0.929701 
vt 0.929503 0.929701 
vt 0.923383 0.929701 
vt 0.929503 0.929701 
vt 0.923383 0.929701 
vt 0.929503 0.929701 
vt 0.935623 0.929701 
vt 0.923383 0.929701 
vt 0.929503 0.929701 
vt 0.923383 0.929701 
vt 0.923383 0.929701 
vt 0.960102 0.929701 
vt 0.960102 0.929701 
vt 0.953983 0.929701 
vt 0.953983 0.929701 
vt 0.953983 0.929701 
vt 0.947863 0.929701 
vt 0.947863 0.929701 
vt 0.947863 0.929701 
vt 0.947863 0.929701 
vt 0.947863 0.929701 
vt 0.941743 0.929701 
vt 0.941743 0.929701 
vt 0.947863 0.929701 
vt 0.953983 0.929701 
vt 0.941743 0.929701 
vt 0.947863 0.929701 
vt 0.941743 0.929701 
vt 0.935623 0.929701 
vt 0.935623 0.929701 
vt 0.929503 0.929701 
vt 0.929503 0.929701 
vt 0.923383 0.929701 
vt 0.929503 0.929701 
vt 0.923383 0.929701 
vt 0.929503 0.929701 
vt 0.923383 0.929701 
vt 0.935623 0.929701 
vt 0.929503 0.929701 
vt 0.935623 0.929701 
vt 0.929503 0.929701 
vt 0.941743 0.929701 
vt 0.935623 0.929701 
vt 0.923383 0.929701 
vt 0.923383 0.929701 
vt 0.941743 0.929701 
vt 0.972342 0.929701 
vt 0.947863 0.929701 
vt 0.953983 0.929701 
vt 0.947863 0.929701 
vt 0.953982 0.929701 
vt 0.966223 0.929701 
vt 0.953983 0.929701 
vt 0.960102 0.929701 
vt 0.960103 0.929701 
vt 0.966223 0.929701 
vt 0.953983 0.929701 
vt 0.947863 0.929701 
vt 0.953983 0.929701 
vt 0.960102 0.929701 
vt 0.960103 0.929701 
vt 0.953983 0.929701 
vt 0.947863 0.929701 
vt 0.960102 0.929701 
vt 0.966223 0.929701 
vt 0.947863 0.929701 
vt 0.941743 0.929701 
vt 0.941743 0.929701 
vt 0.935623 0.929701 
vt 0.935623 0.929701 
vt 0.941743 0.929701 
vt 0.929503 0.929701 
vt 0.929503 0.929701 
vt 0.935623 0.929701 
vt 0.929503 0.929701 
vt 0.935623 0.929701 
vt 0.935623 0.929701 
vt 0.941743 0.929701 
vt 0.923383 0.929701 
vt 0.929503 0.929701 
vt 0.923383 0.929701 
vt 0.960103 0.929701 
vt 0.960102 0.929701 
vt 0.966223 0.929701 
vt 0.953983 0.929701 

usemtl Lowerlegl1Mtl

f 1/1/1 2/2/2 3/3/3 
f 4/4/4 5/5/5 6/6/6 
f 7/7/7 5/5/5 8/8/8 
f 8/8/8 9/9/9 10/10/10 
f 11/11/11 12/12/12 13/13/13 
f 13/13/13 14/14/14 15/15/15 
f 15/15/15 16/16/16 13/13/13 
f 17/17/17 16/16/16 18/18/18 
f 16/16/16 19/19/19 18/18/18 
f 19/19/19 16/16/16 20/20/20 
f 20/20/20 21/21/21 19/19/19 
f 22/22/22 23/23/23 24/24/24 
f 25/25/25 26/26/26 27/27/27 
f 28/28/28 25/25/25 27/27/27 
f 28/28/28 29/29/29 25/25/25 
f 29/29/29 28/28/28 30/30/30 
f 27/27/27 31/31/31 28/28/28 
f 32/32/32 28/28/28 31/31/31 
f 33/33/33 30/30/30 28/28/28 
f 28/28/28 32/32/32 33/33/33 
f 30/30/30 33/33/33 34/34/34 
f 35/35/35 33/33/33 32/32/32 
f 32/32/32 36/36/36 35/35/35 
f 37/37/37 34/34/34 33/33/33 
f 33/33/33 35/35/35 37/37/37 
f 38/38/38 37/37/37 35/35/35 
f 37/37/37 39/39/39 40/40/40 
f 41/41/41 39/39/39 37/37/37 
f 37/37/37 38/38/38 41/41/41 
f 42/42/42 41/41/41 38/38/38 
f 41/41/41 42/42/42 43/43/43 
f 43/43/43 42/42/42 44/44/44 
f 42/42/42 45/45/45 44/44/44 
f 41/41/41 43/43/43 46/46/46 
f 44/44/44 46/46/46 43/43/43 
f 46/46/46 44/44/44 47/47/47 
f 48/48/48 46/46/46 47/47/47 
f 46/46/46 48/48/48 49/49/49 
f 50/50/50 46/46/46 49/49/49 
f 48/48/48 51/51/51 49/49/49 
f 50/50/50 49/49/49 51/51/51 
f 50/50/50 51/51/51 52/52/52 
f 53/53/53 52/52/52 51/51/51 
f 54/54/54 51/51/51 55/55/55 
f 53/53/53 56/56/56 52/52/52 
f 56/56/56 57/57/57 52/52/52 
f 54/54/54 58/58/58 53/53/53 
f 59/59/59 57/57/57 56/56/56 
f 58/58/58 54/54/54 60/60/60 
f 59/59/59 56/56/56 61/61/61 
f 58/58/58 61/61/61 56/56/56 
f 60/60/60 62/62/62 58/58/58 
f 62/62/62 61/61/61 58/58/58 
f 63/63/63 62/62/62 64/64/64 
f 62/62/62 63/63/63 65/65/65 
f 62/62/62 66/66/66 61/61/61 
f 66/66/66 62/62/62 65/65/65 
f 67/67/67 61/61/61 66/66/66 
f 65/65/65 68/68/68 66/66/66 
f 66/66/66 69/69/69 67/67/67 
f 69/69/69 66/66/66 68/68/68 
f 68/68/68 70/70/70 69/69/69 
f 70/70/70 71/71/71 69/69/69 
f 40/40/40 72/72/72 73/73/73 
f 73/73/73 72/72/72 41/41/41 
f 73/73/73 74/74/74 40/40/40 
f 75/75/75 40/40/40 74/74/74 
f 74/74/74 73/73/73 50/50/50 
f 74/74/74 76/76/76 75/75/75 
f 75/75/75 76/76/76 77/77/77 
f 78/78/78 75/75/75 77/77/77 
f 50/50/50 79/79/79 74/74/74 
f 77/77/77 80/80/80 79/79/79 
f 79/79/79 81/81/81 77/77/77 
f 77/77/77 81/81/81 82/82/82 
f 82/82/82 83/83/83 78/78/78 
f 84/84/84 78/78/78 83/83/83 
f 84/84/84 85/85/85 78/78/78 
f 86/86/86 84/84/84 83/83/83 
f 79/79/79 50/50/50 52/52/52 
f 52/52/52 87/87/87 79/79/79 
f 79/79/79 87/87/87 59/59/59 
f 59/59/59 88/88/88 79/79/79 
f 82/82/82 88/88/88 59/59/59 
f 82/82/82 59/59/59 67/67/67 
f 67/67/67 89/89/89 82/82/82 
f 90/90/90 83/83/83 89/89/89 
f 61/61/61 67/67/67 59/59/59 
f 90/90/90 89/89/89 91/91/91 
f 89/89/89 67/67/67 69/69/69 
f 69/69/69 91/91/91 89/89/89 
f 69/69/69 92/92/92 91/91/91 
f 91/91/91 92/92/92 93/93/93 
f 94/94/94 91/91/91 93/93/93 
f 93/93/93 95/95/95 94/94/94 
f 96/96/96 94/94/94 95/95/95 
f 97/97/97 96/96/96 95/95/95 
f 96/96/96 98/98/98 94/94/94 
f 96/96/96 97/97/97 99/99/99 
f 99/99/99 98/98/98 96/96/96 
f 86/86/86 90/90/90 98/98/98 
f 100/100/100 86/86/86 98/98/98 
f 101/101/101 100/100/100 99/99/99 
f 86/86/86 100/100/100 102/102/102 
f 100/100/100 101/101/101 103/103/103 
f 104/104/104 105/105/105 101/101/101 
f 101/101/101 106/106/106 103/103/103 
f 102/102/102 103/103/103 106/106/106 
f 107/107/107 106/106/106 101/101/101 
f 108/108/108 86/86/86 102/102/102 
f 106/106/106 108/108/108 102/102/102 
f 86/86/86 108/108/108 84/84/84 
f 108/108/108 109/109/109 84/84/84 
f 106/106/106 107/107/107 110/110/110 
f 109/109/109 108/108/108 111/111/111 
f 111/111/111 29/29/29 109/109/109 
f 30/30/30 109/109/109 29/29/29 
f 112/112/112 110/110/110 107/107/107 
f 110/110/110 112/112/112 113/113/113 
f 113/113/113 112/112/112 114/114/114 
f 111/111/111 114/114/114 115/115/115 
f 112/112/112 115/115/115 114/114/114 
f 107/107/107 116/116/116 112/112/112 
f 116/116/116 107/107/107 26/26/26 
f 25/25/25 115/115/115 116/116/116 
f 26/26/26 25/25/25 116/116/116 
f 117/117/117 118/118/118 119/119/119 
f 119/119/119 120/120/120 117/117/117 
f 121/121/121 117/117/117 120/120/120 
f 117/117/117 121/121/121 122/122/122 
f 122/122/122 123/123/123 117/117/117 
f 124/124/124 122/122/122 121/121/121 
f 121/121/121 125/125/125 124/124/124 
f 123/123/123 126/126/126 127/127/127 
f 128/128/128 127/127/127 129/129/129 
f 128/128/128 130/130/130 131/131/131 
f 132/132/132 133/133/133 130/130/130 
f 134/134/134 130/130/130 133/133/133 
f 134/134/134 135/135/135 136/136/136 
f 137/137/137 138/138/138 136/136/136 
f 135/135/135 139/139/139 140/140/140 
f 139/139/139 135/135/135 141/141/141 
f 142/142/142 143/143/143 144/144/144 
f 142/142/142 145/145/145 143/143/143 

