# This file is brought to you by Roblox Corporation
# Generated by Roblox Studio

mtllib Nose.mtl

g Nose1

v -9.71212 15.8665 19.3467 
v -9.71212 15.6328 19.25 
v -9.87695 15.798 19.3467 
v -9.71212 15.6328 19.25 
v -9.94539 15.6328 19.3467 
v -9.71212 15.9633 19.5804 
v -9.94539 15.8665 19.5804 
v -10.0422 15.6328 19.5804 
v -9.87695 15.798 19.8141 
v -9.71212 15.8665 19.8141 
v -9.94539 15.6328 19.8141 
v -9.54728 15.798 19.8141 
v -9.87695 15.4675 19.8141 
v -9.47884 15.8665 19.5804 
v -9.38204 15.6328 19.5804 
v -9.47884 15.6328 19.8141 
v -9.54728 15.798 19.3467 
v -9.71212 15.6328 19.25 
v -9.47884 15.6328 19.3467 
v -9.71212 15.6328 19.25 
v -9.94539 15.3991 19.5804 
v -9.87695 15.4675 19.3467 
v -9.71212 15.6328 19.25 
v -9.71212 15.3023 19.5804 
v -9.71212 15.3991 19.8141 
v -9.71212 15.6328 19.25 
v -9.71212 15.3991 19.3467 
v -9.54728 15.4675 19.8141 
v -9.47884 15.3991 19.5804 
v -9.38204 15.6328 19.5804 
v -9.47884 15.6328 19.8141 
v -9.54728 15.4675 19.3467 
v -9.71212 15.6328 19.25 
v -9.47884 15.6328 19.3467 
v -9.71212 15.6328 19.25 
v -9.29233 15.4926 19.7107 
v -10.0088 15.8023 19.7107 
v -9.4154 15.8023 19.7107 
v -9.71212 15.9306 19.7107 
v -10.1319 15.4926 19.7107 
v -10.0088 15.1479 19.7107 
v -9.4154 15.1479 19.7107 
v -9.71212 15.0209 19.7107 
v -10.2709 16.0755 20.1959 
v -9.71212 16.3169 20.1959 
v -10.0088 15.8023 19.7107 
v -9.71212 15.9306 19.7107 
v -9.71212 16.4734 20.8434 
v -10.3737 16.1827 20.8283 
v -10.3168 16.1264 21.3019 
v -9.71212 16.3999 21.3282 
v -10.648 15.4926 20.8283 
v -10.5691 15.4926 21.2989 
v -10.5025 15.4926 20.1959 
v -10.1319 15.4926 19.7107 
v -10.0088 15.1479 19.7107 
v -10.3737 14.9337 20.9605 
v -10.3179 15.0576 21.4182 
v -10.2709 14.9437 20.1959 
v -9.71212 14.6507 21.0008 
v -9.71212 14.7984 21.4551 
v -9.71212 14.7047 20.1959 
v -9.71212 15.0209 19.7107 
v -9.10629 15.0576 21.4182 
v -9.4154 15.1479 19.7107 
v -9.05049 14.9337 20.9605 
v -8.85518 15.4926 21.2989 
v -9.15336 14.9437 20.1959 
v -8.77627 15.4926 20.8283 
v -9.10741 16.1264 21.3019 
v -8.92174 15.4926 20.1959 
v -9.29233 15.4926 19.7107 
v -9.4154 15.8023 19.7107 
v -9.05049 16.1827 20.8283 
v -9.71212 16.4734 20.8434 
v -9.71212 16.3999 21.3282 
v -9.15336 16.0755 20.1959 
v -9.71212 16.3169 20.1959 
v -9.71212 15.9306 19.7107 

vn 0 0.748031 -0.661417 
vn 0 0 -1 
vn -0.527559 0.527559 -0.661417 
vn 0 0 -1 
vn -0.748031 0 -0.661417 
vn 0 1 0 
vn -0.708661 0.708661 0 
vn -1 0 0 
vn -0.653543 0.653543 0.385827 
vn 0 0.92126 0.385827 
vn -0.92126 0 0.385827 
vn 0.653543 0.653543 0.385827 
vn -0.653543 -0.653543 0.385827 
vn 0.708661 0.708661 0 
vn 1 0 0 
vn 0.92126 0 0.385827 
vn 0.527559 0.527559 -0.661417 
vn 0 0 -1 
vn 0.748031 0 -0.661417 
vn 0 0 -1 
vn -0.708661 -0.708661 0 
vn -0.527559 -0.527559 -0.661417 
vn 0 0 -1 
vn 0 -1 0 
vn 0 -0.92126 0.385827 
vn 0 0 -1 
vn 0 -0.748031 -0.661417 
vn 0.653543 -0.653543 0.385827 
vn 0.708661 -0.708661 0 
vn 1 0 0 
vn 0.92126 0 0.385827 
vn 0.527559 -0.527559 -0.661417 
vn 0 0 -1 
vn 0.748031 0 -0.661417 
vn 0 0 -1 
vn 0.519685 0 -0.850394 
vn -0.377953 0.362205 -0.858268 
vn 0.377953 0.362205 -0.858268 
vn 0 0.519685 -0.858268 
vn -0.519685 0 -0.850394 
vn -0.385827 -0.393701 -0.834646 
vn 0.385827 -0.393701 -0.834646 
vn 0 -0.559055 -0.826772 
vn -0.653543 0.637795 -0.409449 
vn 0 0.905512 -0.417323 
vn -0.377953 0.362205 -0.858268 
vn 0 0.519685 -0.858268 
vn 0 1 -0.0314961 
vn -0.716535 0.692913 -0.0314961 
vn -0.708661 0.685039 0.165354 
vn 0 0.984252 0.15748 
vn -1 -0.0314961 -0.023622 
vn -0.984252 -0.0629921 0.188976 
vn -0.92126 -0.023622 -0.393701 
vn -0.519685 0 -0.850394 
vn -0.385827 -0.393701 -0.834646 
vn -0.692913 -0.716535 0.0708661 
vn -0.669291 -0.700787 0.251969 
vn -0.653543 -0.677165 -0.338583 
vn 0 -0.992126 0.125984 
vn 0 -0.952756 0.307087 
vn 0 -0.952756 -0.299213 
vn 0 -0.559055 -0.826772 
vn 0.669291 -0.700787 0.251969 
vn 0.385827 -0.393701 -0.834646 
vn 0.692913 -0.716535 0.0708661 
vn 0.984252 -0.0629921 0.188976 
vn 0.653543 -0.677165 -0.338583 
vn 1 -0.0314961 -0.023622 
vn 0.708661 0.685039 0.165354 
vn 0.92126 -0.023622 -0.393701 
vn 0.519685 0 -0.850394 
vn 0.377953 0.362205 -0.858268 
vn 0.716535 0.692913 -0.0314961 
vn 0 1 -0.0314961 
vn 0 0.984252 0.15748 
vn 0.653543 0.637795 -0.409449 
vn 0 0.905512 -0.417323 
vn 0 0.519685 -0.858268 

vt 0.0345328 0.952126 
vt 0.0342943 0.95308 
vt 0.0340558 0.952126 
vt 0.0338174 0.95308 
vt 0.0335789 0.952126 
vt 0.0345328 0.951172 
vt 0.0340558 0.951172 
vt 0.0335789 0.951172 
vt 0.0340558 0.950218 
vt 0.0345328 0.950218 
vt 0.0335789 0.950218 
vt 0.0350097 0.950218 
vt 0.0331019 0.950218 
vt 0.0350097 0.951172 
vt 0.0354867 0.951172 
vt 0.0354867 0.950218 
vt 0.0350097 0.952126 
vt 0.0347713 0.95308 
vt 0.0354867 0.952126 
vt 0.0352482 0.95308 
vt 0.0331019 0.951172 
vt 0.0331019 0.952126 
vt 0.0333404 0.95308 
vt 0.032625 0.951172 
vt 0.032625 0.950218 
vt 0.0328634 0.95308 
vt 0.032625 0.952126 
vt 0.032148 0.950218 
vt 0.032148 0.951172 
vt 0.031671 0.951172 
vt 0.031671 0.950218 
vt 0.032148 0.952126 
vt 0.0323865 0.95308 
vt 0.031671 0.952126 
vt 0.0319096 0.95308 
vt 0.343834 0.950218 
vt 0.345397 0.950865 
vt 0.344102 0.950865 
vt 0.344749 0.951134 
vt 0.345665 0.950218 
vt 0.345397 0.94957 
vt 0.344102 0.94957 
vt 0.344749 0.949302 
vt 0.347134 0.952444 
vt 0.347611 0.952444 
vt 0.347134 0.95308 
vt 0.347611 0.95308 
vt 0.347611 0.951808 
vt 0.347134 0.951808 
vt 0.347134 0.951172 
vt 0.347611 0.951172 
vt 0.346657 0.951808 
vt 0.346657 0.951172 
vt 0.346657 0.952444 
vt 0.346657 0.95308 
vt 0.34618 0.95308 
vt 0.34618 0.951808 
vt 0.34618 0.951172 
vt 0.34618 0.952444 
vt 0.345703 0.951808 
vt 0.345703 0.951172 
vt 0.345703 0.952444 
vt 0.345703 0.95308 
vt 0.345226 0.951172 
vt 0.345226 0.95308 
vt 0.345226 0.951808 
vt 0.344749 0.951172 
vt 0.345226 0.952444 
vt 0.344749 0.951808 
vt 0.344272 0.951172 
vt 0.344749 0.952444 
vt 0.344749 0.95308 
vt 0.344272 0.95308 
vt 0.344272 0.951808 
vt 0.343795 0.951808 
vt 0.343795 0.951172 
vt 0.344272 0.952444 
vt 0.343795 0.952444 
vt 0.343795 0.95308 

usemtl Nose1Mtl

f 1/1/1 2/2/2 3/3/3 
f 3/3/3 4/4/4 5/5/5 
f 6/6/6 1/1/1 3/3/3 
f 7/7/7 6/6/6 3/3/3 
f 8/8/8 3/3/3 5/5/5 
f 3/3/3 8/8/8 7/7/7 
f 9/9/9 6/6/6 7/7/7 
f 7/7/7 8/8/8 9/9/9 
f 6/6/6 9/9/9 10/10/10 
f 9/9/9 8/8/8 11/11/11 
f 10/10/10 12/12/12 6/6/6 
f 8/8/8 13/13/13 11/11/11 
f 12/12/12 14/14/14 6/6/6 
f 12/12/12 15/15/15 14/14/14 
f 15/15/15 12/12/12 16/16/16 
f 17/17/17 6/6/6 14/14/14 
f 17/17/17 14/14/14 15/15/15 
f 6/6/6 17/17/17 1/1/1 
f 17/17/17 18/18/18 1/1/1 
f 17/17/17 15/15/15 19/19/19 
f 19/19/19 20/20/20 17/17/17 
f 13/13/13 8/8/8 21/21/21 
f 8/8/8 22/22/22 21/21/21 
f 22/22/22 8/8/8 5/5/5 
f 5/5/5 23/23/23 22/22/22 
f 24/24/24 13/13/13 21/21/21 
f 22/22/22 24/24/24 21/21/21 
f 13/13/13 24/24/24 25/25/25 
f 22/22/22 26/26/26 27/27/27 
f 24/24/24 22/22/22 27/27/27 
f 24/24/24 28/28/28 25/25/25 
f 28/28/28 24/24/24 29/29/29 
f 30/30/30 28/28/28 29/29/29 
f 30/30/30 31/31/31 28/28/28 
f 24/24/24 32/32/32 29/29/29 
f 32/32/32 30/30/30 29/29/29 
f 32/32/32 24/24/24 27/27/27 
f 27/27/27 33/33/33 32/32/32 
f 30/30/30 32/32/32 34/34/34 
f 32/32/32 35/35/35 34/34/34 
f 36/36/36 37/37/37 38/38/38 
f 38/38/38 37/37/37 39/39/39 
f 36/36/36 40/40/40 37/37/37 
f 40/40/40 36/36/36 41/41/41 
f 42/42/42 41/41/41 36/36/36 
f 41/41/41 42/42/42 43/43/43 
f 44/44/44 45/45/45 46/46/46 
f 45/45/45 47/47/47 46/46/46 
f 48/48/48 45/45/45 44/44/44 
f 49/49/49 48/48/48 44/44/44 
f 50/50/50 48/48/48 49/49/49 
f 48/48/48 50/50/50 51/51/51 
f 49/49/49 52/52/52 50/50/50 
f 44/44/44 52/52/52 49/49/49 
f 50/50/50 52/52/52 53/53/53 
f 46/46/46 54/54/54 44/44/44 
f 52/52/52 44/44/44 54/54/54 
f 54/54/54 46/46/46 55/55/55 
f 55/55/55 56/56/56 54/54/54 
f 52/52/52 57/57/57 53/53/53 
f 53/53/53 57/57/57 58/58/58 
f 54/54/54 59/59/59 52/52/52 
f 54/54/54 56/56/56 59/59/59 
f 52/52/52 59/59/59 57/57/57 
f 60/60/60 58/58/58 57/57/57 
f 59/59/59 60/60/60 57/57/57 
f 58/58/58 60/60/60 61/61/61 
f 56/56/56 62/62/62 59/59/59 
f 60/60/60 59/59/59 62/62/62 
f 62/62/62 56/56/56 63/63/63 
f 60/60/60 64/64/64 61/61/61 
f 65/65/65 62/62/62 63/63/63 
f 64/64/64 60/60/60 66/66/66 
f 66/66/66 67/67/67 64/64/64 
f 68/68/68 60/60/60 62/62/62 
f 60/60/60 68/68/68 66/66/66 
f 62/62/62 65/65/65 68/68/68 
f 67/67/67 66/66/66 69/69/69 
f 68/68/68 69/69/69 66/66/66 
f 69/69/69 70/70/70 67/67/67 
f 65/65/65 71/71/71 68/68/68 
f 69/69/69 68/68/68 71/71/71 
f 71/71/71 65/65/65 72/72/72 
f 73/73/73 71/71/71 72/72/72 
f 70/70/70 69/69/69 74/74/74 
f 70/70/70 74/74/74 75/75/75 
f 76/76/76 70/70/70 75/75/75 
f 77/77/77 74/74/74 69/69/69 
f 77/77/77 69/69/69 71/71/71 
f 77/77/77 75/75/75 74/74/74 
f 73/73/73 77/77/77 71/71/71 
f 75/75/75 77/77/77 78/78/78 
f 73/73/73 78/78/78 77/77/77 
f 78/78/78 73/73/73 79/79/79 

