# This file is brought to you by Roblox Corporation
# Generated by Roblox Studio

mtllib UpArmR.mtl

g Upperarmr1

v -5.09018 10.9005 21.542 
v -5.04593 10.7141 21.5369 
v -5.16283 10.8316 21.4287 
v -5.27154 10.5525 21.3831 
v -5.11662 10.5327 21.5072 
v -5.12211 10.3657 21.6128 
v -5.27999 10.2958 21.5455 
v -5.23162 10.2537 21.683 
v -5.09065 10.3384 21.7022 
v -5.18324 10.2116 21.8206 
v -5.2934 10.1757 21.8356 
v -5.20751 10.2571 21.9696 
v -5.0592 10.311 21.7917 
v -5.11059 10.2805 21.9339 
v -5.01196 10.3558 21.8654 
v -4.96473 10.4006 21.9391 
v -5.03795 10.3494 22.0473 
v -4.89404 10.582 21.9687 
v -5.12163 10.3386 22.1037 
v -4.92923 10.6284 22.0928 
v -4.9931 10.6685 22.1575 
v -4.92078 10.8852 21.9305 
v -4.88854 10.749 21.8632 
v -4.92 10.7764 21.7737 
v -6.81468 12.0121 22.1951 
v -7.49702 11.9451 22.4637 
v -7.41404 12.3627 22.6246 
v -6.93011 11.5505 22.0449 
v -7.78028 12.2576 22.8876 
v -7.82289 12.0432 22.805 
v -6.74046 12.1126 22.4104 
v -7.36219 12.4492 22.8286 
v -7.75366 12.302 22.9924 
v -6.41783 11.7413 21.9626 
v -6.54188 11.296 21.8324 
v -6.33717 11.8409 22.1648 
v -6.66623 12.2131 22.6257 
v -6.25651 11.9405 22.367 
v -7.31034 12.5357 23.0326 
v -6.20446 11.8588 22.5879 
v -5.40865 11.7308 21.8791 
v -5.93388 11.5692 21.9193 
v -6.02097 11.4705 21.7301 
v -6.15364 11.0415 21.62 
v -5.71143 11.2301 21.5879 
v -5.8411 10.8481 21.5033 
v -5.62565 11.3204 21.7514 
v -5.40392 10.9979 21.4354 
v -5.53415 10.6535 21.3746 
v -5.26927 10.9086 21.3723 
v -5.3978 10.5788 21.3185 
v -5.31708 11.0821 21.577 
v -5.18338 10.9901 21.5063 
v -5.40779 10.2752 21.5104 
v -5.23024 11.1663 21.7186 
v -5.0975 11.0715 21.6404 
v -5.0403 11.0218 21.803 
v -5.53987 11.4107 21.9148 
v -5.17253 11.1132 21.8884 
v -5.84678 11.6679 22.1084 
v -5.48338 11.3475 22.1036 
v -5.78994 11.5931 22.3208 
v -5.11483 11.0601 22.0583 
v -4.9831 10.9721 21.9656 
v -4.96916 10.9273 21.793 
v -5.01754 10.9694 21.6554 
v -5.12531 10.7415 22.2556 
v -5.43871 10.9247 22.4997 
v -4.95146 10.8037 21.6843 
v -5.4269 11.2842 22.2925 
v -5.74653 11.109 22.7558 
v -5.73311 11.5182 22.5333 
v -5.87465 10.9801 23.1443 
v -6.16652 11.3466 23.0291 
v -6.15241 11.7771 22.8088 
v -6.20464 11.3049 23.4914 
v -6.58651 11.5843 23.3025 
v -6.57172 12.0359 23.0844 
v -7.26032 11.9451 23.6293 
v -6.61897 12.1245 22.855 
v -7.24667 12.3627 23.4488 
v -7.2785 12.4492 23.2407 
v -7.69434 12.2576 23.3108 
v -7.70135 12.0432 23.4035 
v -7.71069 12.302 23.204 
v -7.72704 12.3464 23.0972 
v -7.77058 11.7844 23.2162 
v -7.74396 11.8288 23.3209 
v -7.81355 11.7844 23.0046 
v -7.7972 11.74 23.1114 
v -7.8299 11.8288 22.8977 
v -7.51067 11.5275 22.6442 
v -6.89765 11.0102 22.4923 
v -7.47883 11.441 22.8523 
v -7.8299 11.8288 22.8977 
v -7.49702 11.9451 22.4637 
v -7.82289 12.0432 22.805 
v -6.93011 11.5505 22.0449 
v -7.81355 11.7844 23.0046 
v -7.7972 11.74 23.1114 
v -6.94491 11.0988 22.263 
v -6.54188 11.296 21.8324 
v -6.55599 10.8655 22.0528 
v -6.15364 11.0415 21.62 
v -6.50394 10.7838 22.2736 
v -6.16707 10.6323 21.8426 
v -5.8411 10.8481 21.5033 
v -6.11023 10.5574 22.055 
v -5.85292 10.4886 21.7105 
v -5.53415 10.6535 21.3746 
v -5.79643 10.4253 21.8993 
v -5.54463 10.335 21.5718 
v -5.48693 10.2819 21.7417 
v -5.3978 10.5788 21.3185 
v -5.42923 10.2288 21.9115 
v -5.40779 10.2752 21.5104 
v -5.35059 10.2254 21.673 
v -5.27999 10.2958 21.5455 
v -5.27154 10.5525 21.3831 
v -5.23162 10.2537 21.683 
v -5.16283 10.8316 21.4287 
v -5.26927 10.9086 21.3723 
v -5.18338 10.9901 21.5063 
v -5.09018 10.9005 21.542 
v -5.2934 10.1757 21.8356 
v -5.01754 10.9694 21.6554 
v -5.0975 11.0715 21.6404 
v -5.0403 11.0218 21.803 
v -5.34238 10.313 22.0532 
v -5.20751 10.2571 21.9696 
v -5.18324 10.2116 21.8206 
v -5.11059 10.2805 21.9339 
v -5.12163 10.3386 22.1037 
v -4.96916 10.9273 21.793 
v -4.95146 10.8037 21.6843 
v -4.99869 10.7589 21.6106 
v -5.04593 10.7141 21.5369 
v -5.11662 10.5327 21.5072 
v -4.92 10.7764 21.7737 
v -4.92078 10.8852 21.9305 
v -4.9831 10.9721 21.9656 
v -4.9931 10.6685 22.1575 
v -5.03795 10.3494 22.0473 
v -5.25554 10.3972 22.1948 
v -5.12531 10.7415 22.2556 
v -5.09065 10.3384 21.7022 
v -5.12211 10.3657 21.6128 
v -4.89404 10.582 21.9687 
v -4.92923 10.6284 22.0928 
v -4.88854 10.749 21.8632 
v -5.01196 10.3558 21.8654 
v -4.96473 10.4006 21.9391 
v -5.0592 10.311 21.7917 
v -5.56838 10.5427 22.4151 
v -5.43871 10.9247 22.4997 
v -5.65417 10.4524 22.2516 
v -5.8792 10.6801 22.6457 
v -5.74653 11.109 22.7558 
v -5.9663 10.5813 22.4566 
v -5.73995 10.3621 22.0882 
v -6.05339 10.4826 22.2674 
v -6.02694 10.2927 22.2748 
v -6.45189 10.7021 22.4945 
v -6.37123 10.8017 22.6967 
v -6.85039 10.9216 22.7216 
v -6.29057 10.9014 22.899 
v -6.16652 11.3466 23.0291 
v -6.77617 11.0221 22.9369 
v -6.70194 11.1227 23.1522 
v -6.58651 11.5843 23.3025 
v -7.44699 11.3545 23.0604 
v -7.39515 11.441 23.2644 
v -7.77058 11.7844 23.2162 
v -7.3433 11.5275 23.4684 
v -7.26032 11.9451 23.6293 
v -7.74396 11.8288 23.3209 
v -7.70135 12.0432 23.4035 

vn 0.708661 0.307087 -0.637795 
vn 0.795276 -0.0787402 -0.606299 
vn 0.622047 0.141732 -0.76378 
vn 0.464567 -0.291339 -0.834646 
vn 0.708661 -0.299213 -0.637795 
vn 0.685039 -0.519685 -0.511811 
vn 0.385827 -0.708661 -0.590551 
vn 0.377953 -0.834646 -0.393701 
vn 0.724409 -0.543307 -0.425197 
vn 0.433071 -0.897638 -0.0708661 
vn 0 -1 0.0629921 
vn 0.15748 -0.889764 0.433071 
vn 0.740157 -0.622047 -0.259843 
vn 0.496063 -0.850394 0.19685 
vn 0.811024 -0.559055 -0.173228 
vn 0.866142 -0.496063 -0.00787402 
vn 0.622047 -0.645669 0.448819 
vn 0.976378 -0.220472 0.0393701 
vn 0.330709 -0.685039 0.653543 
vn 0.826772 -0.0787402 0.551181 
vn 0.653543 0.015748 0.755906 
vn 0.905512 0.385827 0.165354 
vn 0.992126 0.023622 -0.141732 
vn 0.944882 0.023622 -0.322835 
vn -0.0551181 0.669291 -0.740157 
vn -0.614173 0.0944882 -0.779528 
vn -0.283465 0.748031 -0.606299 
vn -0.519685 0.0314961 -0.850394 
vn -0.826772 0.503937 -0.23622 
vn -0.92126 0.11811 -0.377953 
vn 0.220472 0.858268 -0.472441 
vn -0.133858 0.92126 -0.370079 
vn -0.818898 0.574803 -0.0314961 
vn -0.015748 0.637795 -0.771654 
vn -0.480315 0 -0.874016 
vn 0.15748 0.834646 -0.527559 
vn 0.417323 0.897638 -0.149606 
vn 0.330709 0.929134 -0.141732 
vn 0.023622 1 0.023622 
vn 0.574803 0.795276 0.204724 
vn 0.88189 0.0314961 -0.472441 
vn 0.220472 0.661417 -0.716535 
vn 0.023622 0.598425 -0.795276 
vn -0.433071 -0.0393701 -0.897638 
vn 0.0472441 0.566929 -0.818898 
vn -0.409449 -0.0708661 -0.913386 
vn 0.283465 0.76378 -0.574803 
vn -0.00787402 0.559055 -0.834646 
vn -0.433071 -0.0944882 -0.897638 
vn 0.23622 0.385827 -0.889764 
vn -0.0629921 -0.220472 -0.976378 
vn 0.23622 0.771654 -0.590551 
vn 0.448819 0.614173 -0.653543 
vn -0.15748 -0.787402 -0.598425 
vn 0.456693 0.84252 -0.291339 
vn 0.574803 0.716535 -0.393701 
vn 0.700787 0.716535 -0.023622 
vn 0.496063 0.818898 -0.275591 
vn 0.606299 0.795276 0.0472441 
vn 0.84252 -0.448819 -0.291339 
vn 0.637795 0.76378 0.0629921 
vn 0.755906 0.590551 0.291339 
vn 0.692913 0.622047 0.362205 
vn 0.755906 0.590551 0.283465 
vn 0.866142 0.472441 -0.15748 
vn 0.811024 0.433071 -0.401575 
vn 0.614173 0.015748 0.787402 
vn 0.629921 0 0.779528 
vn 0.905512 0.0629921 -0.417323 
vn 0.716535 0.590551 0.370079 
vn 0.692913 -0.141732 0.708661 
vn 0.708661 0.606299 0.362205 
vn 0.133858 -0.732283 0.661417 
vn 0.488189 -0.259843 0.834646 
vn 0.677165 0.653543 0.346457 
vn 0.307087 -0.551181 0.779528 
vn 0.141732 -0.0787402 0.984252 
vn 0.574803 0.661417 0.480315 
vn 0.0314961 0.0629921 1 
vn 0.566929 0.795276 0.19685 
vn 0.133858 0.708661 0.685039 
vn 0.11811 0.929134 0.354331 
vn -0.692913 0.496063 0.527559 
vn -0.724409 0.11811 0.677165 
vn -0.748031 0.559055 0.346457 
vn -0.732283 0.669291 0.141732 
vn -0.889764 -0.291339 0.346457 
vn -0.811024 -0.244094 0.527559 
vn -0.952756 -0.299213 0.023622 
vn -0.905512 -0.393701 0.181102 
vn -0.944882 -0.251969 -0.188976 
vn -0.740157 -0.511811 -0.433071 
vn -0.606299 -0.771654 -0.181102 
vn -0.700787 -0.692913 -0.165354 
vn -0.944882 -0.251969 -0.188976 
vn -0.614173 0.0944882 -0.779528 
vn -0.92126 0.11811 -0.377953 
vn -0.519685 0.0314961 -0.850394 
vn -0.952756 -0.299213 0.023622 
vn -0.905512 -0.393701 0.181102 
vn -0.669291 -0.582677 -0.464567 
vn -0.480315 0 -0.874016 
vn -0.629921 -0.622047 -0.472441 
vn -0.433071 -0.0393701 -0.897638 
vn -0.559055 -0.811024 -0.165354 
vn -0.574803 -0.661417 -0.480315 
vn -0.409449 -0.0708661 -0.913386 
vn -0.503937 -0.850394 -0.165354 
vn -0.543307 -0.692913 -0.480315 
vn -0.433071 -0.0944882 -0.897638 
vn -0.464567 -0.874016 -0.149606 
vn -0.535433 -0.708661 -0.456693 
vn -0.448819 -0.88189 -0.125984 
vn -0.0629921 -0.220472 -0.976378 
vn -0.267717 -0.937008 0.212598 
vn -0.15748 -0.787402 -0.598425 
vn -0.102362 -0.96063 -0.259843 
vn 0.385827 -0.708661 -0.590551 
vn 0.464567 -0.291339 -0.834646 
vn 0.377953 -0.834646 -0.393701 
vn 0.622047 0.141732 -0.76378 
vn 0.23622 0.385827 -0.889764 
vn 0.448819 0.614173 -0.653543 
vn 0.708661 0.307087 -0.637795 
vn 0 -1 0.0629921 
vn 0.811024 0.433071 -0.401575 
vn 0.574803 0.716535 -0.393701 
vn 0.700787 0.716535 -0.023622 
vn -0.0393701 -0.850394 0.519685 
vn 0.15748 -0.889764 0.433071 
vn 0.433071 -0.897638 -0.0708661 
vn 0.496063 -0.850394 0.19685 
vn 0.330709 -0.685039 0.653543 
vn 0.866142 0.472441 -0.15748 
vn 0.905512 0.0629921 -0.417323 
vn 0.850394 -0.0393701 -0.519685 
vn 0.795276 -0.0787402 -0.606299 
vn 0.708661 -0.299213 -0.637795 
vn 0.944882 0.023622 -0.322835 
vn 0.905512 0.385827 0.165354 
vn 0.755906 0.590551 0.283465 
vn 0.653543 0.015748 0.755906 
vn 0.622047 -0.645669 0.448819 
vn 0.220472 -0.637795 0.740157 
vn 0.614173 0.015748 0.787402 
vn 0.724409 -0.543307 -0.425197 
vn 0.685039 -0.519685 -0.511811 
vn 0.976378 -0.220472 0.0393701 
vn 0.826772 -0.0787402 0.551181 
vn 0.992126 0.023622 -0.141732 
vn 0.811024 -0.559055 -0.173228 
vn 0.866142 -0.496063 -0.00787402 
vn 0.740157 -0.622047 -0.259843 
vn 0.228346 -0.653543 0.724409 
vn 0.629921 0 0.779528 
vn -0.0472441 -0.866142 0.503937 
vn 0.173228 -0.661417 0.732283 
vn 0.692913 -0.141732 0.708661 
vn 0.0866142 -0.80315 0.590551 
vn -0.275591 -0.944882 0.188976 
vn -0.220472 -0.858268 -0.464567 
vn 0.259843 -0.897638 -0.362205 
vn -0.496063 -0.858268 0.149606 
vn -0.188976 -0.826772 0.519685 
vn -0.456693 -0.874016 0.15748 
vn 0.102362 -0.661417 0.740157 
vn 0.488189 -0.259843 0.834646 
vn -0.251969 -0.84252 0.472441 
vn 0.023622 -0.669291 0.748031 
vn 0.141732 -0.0787402 0.984252 
vn -0.598425 -0.779528 0.181102 
vn -0.480315 -0.748031 0.456693 
vn -0.889764 -0.291339 0.346457 
vn -0.267717 -0.559055 0.779528 
vn 0.0314961 0.0629921 1 
vn -0.811024 -0.244094 0.527559 
vn -0.724409 0.11811 0.677165 

vt 0.962257 0.357645 
vt 0.964769 0.357958 
vt 0.964769 0.357958 
vt 0.966541 0.363251 
vt 0.966541 0.363251 
vt 0.964021 0.37011 
vt 0.964021 0.37011 
vt 0.961354 0.372313 
vt 0.961354 0.372313 
vt 0.958686 0.374517 
vt 0.958686 0.374516 
vt 0.956174 0.374203 
vt 0.958686 0.374516 
vt 0.956174 0.374203 
vt 0.956174 0.374203 
vt 0.953661 0.37389 
vt 0.953661 0.37389 
vt 0.951889 0.368596 
vt 0.953661 0.37389 
vt 0.951889 0.368596 
vt 0.951889 0.368596 
vt 0.954409 0.361738 
vt 0.954409 0.361738 
vt 0.957076 0.359535 
vt 0.966147 0.469944 
vt 0.968039 0.516275 
vt 0.965186 0.517004 
vt 0.969119 0.471348 
vt 0.964252 0.539417 
vt 0.965937 0.538986 
vt 0.962628 0.472943 
vt 0.962001 0.520861 
vt 0.96237 0.541695 
vt 0.966081 0.440489 
vt 0.968851 0.443027 
vt 0.962687 0.442704 
vt 0.959109 0.475941 
vt 0.959292 0.44492 
vt 0.958816 0.524719 
vt 0.955877 0.449321 
vt 0.959031 0.38228 
vt 0.962745 0.412466 
vt 0.966015 0.411034 
vt 0.968582 0.414705 
vt 0.965432 0.389348 
vt 0.96763 0.393692 
vt 0.962522 0.390007 
vt 0.96485 0.367661 
vt 0.966678 0.372679 
vt 0.964769 0.357958 
vt 0.966541 0.363251 
vt 0.962298 0.367547 
vt 0.962257 0.357645 
vt 0.964021 0.37011 
vt 0.959746 0.367434 
vt 0.959744 0.357331 
vt 0.957076 0.359535 
vt 0.959611 0.390666 
vt 0.957052 0.369781 
vt 0.959476 0.413898 
vt 0.956594 0.39377 
vt 0.956136 0.417759 
vt 0.954358 0.372129 
vt 0.954409 0.361738 
vt 0.957076 0.359535 
vt 0.959744 0.357331 
vt 0.951841 0.378997 
vt 0.950865 0.404336 
vt 0.959744 0.357331 
vt 0.953577 0.396874 
vt 0.949889 0.429674 
vt 0.952796 0.421619 
vt 0.945663 0.449488 
vt 0.94959 0.461742 
vt 0.952462 0.453723 
vt 0.943634 0.479035 
vt 0.949291 0.49381 
vt 0.952127 0.485827 
vt 0.950324 0.541587 
vt 0.955618 0.480884 
vt 0.95266 0.534902 
vt 0.955738 0.529811 
vt 0.956852 0.549989 
vt 0.955473 0.553938 
vt 0.95867 0.546982 
vt 0.960489 0.543974 
vt 0.959039 0.551229 
vt 0.957158 0.553508 
vt 0.962739 0.545942 
vt 0.960921 0.54895 
vt 0.964557 0.542935 
vt 0.965703 0.522959 
vt 0.962793 0.484274 
vt 0.962625 0.528051 
vt 0.964557 0.542935 
vt 0.968039 0.516275 
vt 0.965937 0.538986 
vt 0.969119 0.471348 
vt 0.962739 0.545942 
vt 0.960921 0.54895 
vt 0.966284 0.479331 
vt 0.968851 0.443027 
vt 0.965979 0.451046 
vt 0.968582 0.414705 
vt 0.962564 0.455447 
vt 0.965675 0.42276 
vt 0.96763 0.393692 
vt 0.962335 0.426621 
vt 0.964918 0.401154 
vt 0.966678 0.372679 
vt 0.961901 0.404258 
vt 0.96416 0.379547 
vt 0.961466 0.381895 
vt 0.966541 0.363251 
vt 0.958772 0.384242 
vt 0.964021 0.37011 
vt 0.961354 0.372313 
vt 0.964021 0.37011 
vt 0.966541 0.363251 
vt 0.961354 0.372313 
vt 0.964769 0.357958 
vt 0.964769 0.357958 
vt 0.962257 0.357645 
vt 0.962257 0.357645 
vt 0.958686 0.374516 
vt 0.959744 0.357331 
vt 0.959744 0.357331 
vt 0.957076 0.359535 
vt 0.956221 0.384129 
vt 0.956174 0.374203 
vt 0.958686 0.374517 
vt 0.956174 0.374203 
vt 0.953661 0.37389 
vt 0.957076 0.359535 
vt 0.959744 0.357331 
vt 0.962257 0.357645 
vt 0.964769 0.357958 
vt 0.966541 0.363251 
vt 0.957076 0.359535 
vt 0.954409 0.361738 
vt 0.954409 0.361738 
vt 0.951889 0.368596 
vt 0.953661 0.37389 
vt 0.953669 0.384015 
vt 0.951841 0.378997 
vt 0.961354 0.372313 
vt 0.964021 0.37011 
vt 0.951889 0.368596 
vt 0.951889 0.368596 
vt 0.954409 0.361738 
vt 0.956174 0.374203 
vt 0.953661 0.37389 
vt 0.958686 0.374516 
vt 0.953063 0.40868 
vt 0.950865 0.404336 
vt 0.955973 0.408021 
vt 0.952457 0.433345 
vt 0.949889 0.429674 
vt 0.955726 0.431913 
vt 0.958884 0.407362 
vt 0.958996 0.430481 
vt 0.958681 0.42927 
vt 0.959149 0.459849 
vt 0.955754 0.462064 
vt 0.959302 0.489217 
vt 0.95236 0.46428 
vt 0.94959 0.461742 
vt 0.955782 0.492215 
vt 0.952263 0.495214 
vt 0.949291 0.49381 
vt 0.959547 0.533142 
vt 0.956362 0.537 
vt 0.959039 0.551229 
vt 0.953177 0.540858 
vt 0.950324 0.541587 
vt 0.957158 0.553508 
vt 0.955473 0.553938 

usemtl Upperarmr1Mtl

f 1/1/1 2/2/2 3/3/3 
f 4/4/4 3/3/3 2/2/2 
f 4/4/4 2/2/2 5/5/5 
f 6/6/6 4/4/4 5/5/5 
f 4/4/4 6/6/6 7/7/7 
f 6/6/6 8/8/8 7/7/7 
f 8/8/8 6/6/6 9/9/9 
f 9/9/9 10/10/10 8/8/8 
f 11/11/11 8/8/8 10/10/10 
f 11/11/11 10/10/10 12/12/12 
f 10/10/10 9/9/9 13/13/13 
f 10/10/10 13/13/13 14/14/14 
f 14/14/14 13/13/13 15/15/15 
f 16/16/16 14/14/14 15/15/15 
f 14/14/14 16/16/16 17/17/17 
f 18/18/18 17/17/17 16/16/16 
f 19/19/19 14/14/14 17/17/17 
f 17/17/17 20/20/20 21/21/21 
f 22/22/22 21/21/21 20/20/20 
f 20/20/20 23/23/23 22/22/22 
f 24/24/24 22/22/22 23/23/23 
f 25/25/25 26/26/26 27/27/27 
f 26/26/26 25/25/25 28/28/28 
f 26/26/26 29/29/29 27/27/27 
f 29/29/29 26/26/26 30/30/30 
f 27/27/27 31/31/31 25/25/25 
f 27/27/27 29/29/29 32/32/32 
f 31/31/31 27/27/27 32/32/32 
f 30/30/30 33/33/33 29/29/29 
f 32/32/32 29/29/29 33/33/33 
f 34/34/34 28/28/28 25/25/25 
f 28/28/28 34/34/34 35/35/35 
f 36/36/36 25/25/25 31/31/31 
f 25/25/25 36/36/36 34/34/34 
f 32/32/32 37/37/37 31/31/31 
f 31/31/31 38/38/38 36/36/36 
f 38/38/38 31/31/31 37/37/37 
f 37/37/37 32/32/32 39/39/39 
f 32/32/32 33/33/33 39/39/39 
f 37/37/37 40/40/40 38/38/38 
f 36/36/36 38/38/38 41/41/41 
f 38/38/38 40/40/40 41/41/41 
f 42/42/42 36/36/36 41/41/41 
f 42/42/42 34/34/34 36/36/36 
f 43/43/43 35/35/35 34/34/34 
f 34/34/34 42/42/42 43/43/43 
f 35/35/35 43/43/43 44/44/44 
f 45/45/45 44/44/44 43/43/43 
f 44/44/44 45/45/45 46/46/46 
f 47/47/47 43/43/43 42/42/42 
f 43/43/43 47/47/47 45/45/45 
f 48/48/48 46/46/46 45/45/45 
f 48/48/48 45/45/45 47/47/47 
f 46/46/46 48/48/48 49/49/49 
f 50/50/50 49/49/49 48/48/48 
f 50/50/50 51/51/51 49/49/49 
f 52/52/52 50/50/50 48/48/48 
f 47/47/47 52/52/52 48/48/48 
f 50/50/50 52/52/52 53/53/53 
f 51/51/51 7/7/7 54/54/54 
f 55/55/55 53/53/53 52/52/52 
f 47/47/47 55/55/55 52/52/52 
f 53/53/53 55/55/55 56/56/56 
f 57/57/57 56/56/56 55/55/55 
f 55/55/55 47/47/47 58/58/58 
f 42/42/42 58/58/58 47/47/47 
f 57/57/57 55/55/55 59/59/59 
f 58/58/58 59/59/59 55/55/55 
f 58/58/58 42/42/42 60/60/60 
f 60/60/60 42/42/42 41/41/41 
f 59/59/59 58/58/58 61/61/61 
f 60/60/60 61/61/61 58/58/58 
f 62/62/62 60/60/60 41/41/41 
f 61/61/61 60/60/60 62/62/62 
f 40/40/40 62/62/62 41/41/41 
f 61/61/61 63/63/63 59/59/59 
f 64/64/64 57/57/57 59/59/59 
f 64/64/64 59/59/59 63/63/63 
f 64/64/64 65/65/65 57/57/57 
f 66/66/66 57/57/57 65/65/65 
f 67/67/67 64/64/64 63/63/63 
f 64/64/64 67/67/67 21/21/21 
f 67/67/67 63/63/63 68/68/68 
f 69/69/69 65/65/65 24/24/24 
f 66/66/66 69/69/69 1/1/1 
f 63/63/63 70/70/70 68/68/68 
f 63/63/63 61/61/61 70/70/70 
f 62/62/62 70/70/70 61/61/61 
f 68/68/68 70/70/70 71/71/71 
f 70/70/70 62/62/62 72/72/72 
f 70/70/70 72/72/72 71/71/71 
f 40/40/40 72/72/72 62/62/62 
f 71/71/71 72/72/72 73/73/73 
f 74/74/74 71/71/71 73/73/73 
f 72/72/72 75/75/75 73/73/73 
f 75/75/75 74/74/74 73/73/73 
f 72/72/72 40/40/40 75/75/75 
f 74/74/74 75/75/75 76/76/76 
f 77/77/77 74/74/74 76/76/76 
f 78/78/78 77/77/77 76/76/76 
f 75/75/75 78/78/78 76/76/76 
f 77/77/77 78/78/78 79/79/79 
f 80/80/80 75/75/75 40/40/40 
f 75/75/75 80/80/80 78/78/78 
f 40/40/40 37/37/37 80/80/80 
f 39/39/39 80/80/80 37/37/37 
f 78/78/78 81/81/81 79/79/79 
f 82/82/82 78/78/78 80/80/80 
f 78/78/78 82/82/82 81/81/81 
f 80/80/80 39/39/39 82/82/82 
f 83/83/83 79/79/79 81/81/81 
f 82/82/82 83/83/83 81/81/81 
f 79/79/79 83/83/83 84/84/84 
f 83/83/83 82/82/82 85/85/85 
f 39/39/39 85/85/85 82/82/82 
f 85/85/85 84/84/84 83/83/83 
f 85/85/85 39/39/39 86/86/86 
f 39/39/39 33/33/33 86/86/86 
f 33/33/33 85/85/85 86/86/86 
f 84/84/84 85/85/85 87/87/87 
f 84/84/84 87/87/87 88/88/88 
f 33/33/33 89/89/89 85/85/85 
f 87/87/87 85/85/85 89/89/89 
f 87/87/87 89/89/89 90/90/90 
f 89/89/89 33/33/33 30/30/30 
f 89/89/89 30/30/30 91/91/91 
f 92/92/92 93/93/93 94/94/94 
f 94/94/94 95/95/95 92/92/92 
f 92/92/92 95/95/95 96/96/96 
f 96/96/96 95/95/95 97/97/97 
f 98/98/98 92/92/92 96/96/96 
f 95/95/95 94/94/94 99/99/99 
f 94/94/94 100/100/100 99/99/99 
f 92/92/92 98/98/98 101/101/101 
f 93/93/93 92/92/92 101/101/101 
f 102/102/102 101/101/101 98/98/98 
f 101/101/101 102/102/102 103/103/103 
f 104/104/104 103/103/103 102/102/102 
f 101/101/101 105/105/105 93/93/93 
f 105/105/105 101/101/101 103/103/103 
f 103/103/103 104/104/104 106/106/106 
f 107/107/107 106/106/106 104/104/104 
f 103/103/103 108/108/108 105/105/105 
f 108/108/108 103/103/103 106/106/106 
f 106/106/106 107/107/107 109/109/109 
f 110/110/110 109/109/109 107/107/107 
f 106/106/106 111/111/111 108/108/108 
f 111/111/111 106/106/106 109/109/109 
f 109/109/109 110/110/110 112/112/112 
f 109/109/109 113/113/113 111/111/111 
f 113/113/113 109/109/109 112/112/112 
f 114/114/114 112/112/112 110/110/110 
f 115/115/115 111/111/111 113/113/113 
f 114/114/114 116/116/116 112/112/112 
f 117/117/117 112/112/112 116/116/116 
f 112/112/112 117/117/117 113/113/113 
f 118/118/118 117/117/117 116/116/116 
f 118/118/118 114/114/114 119/119/119 
f 117/117/117 118/118/118 120/120/120 
f 114/114/114 121/121/121 119/119/119 
f 121/121/121 114/114/114 122/122/122 
f 123/123/123 121/121/121 122/122/122 
f 121/121/121 123/123/123 124/124/124 
f 120/120/120 125/125/125 117/117/117 
f 125/125/125 113/113/113 117/117/117 
f 113/113/113 125/125/125 115/115/115 
f 124/124/124 123/123/123 126/126/126 
f 123/123/123 127/127/127 126/126/126 
f 128/128/128 126/126/126 127/127/127 
f 115/115/115 125/125/125 129/129/129 
f 129/129/129 125/125/125 130/130/130 
f 130/130/130 131/131/131 132/132/132 
f 130/130/130 132/132/132 133/133/133 
f 133/133/133 129/129/129 130/130/130 
f 134/134/134 135/135/135 126/126/126 
f 136/136/136 124/124/124 135/135/135 
f 137/137/137 124/124/124 136/136/136 
f 138/138/138 137/137/137 136/136/136 
f 139/139/139 136/136/136 135/135/135 
f 139/139/139 138/138/138 136/136/136 
f 140/140/140 139/139/139 134/134/134 
f 134/134/134 141/141/141 140/140/140 
f 142/142/142 140/140/140 141/141/141 
f 142/142/142 133/133/133 143/143/143 
f 142/142/142 144/144/144 133/133/133 
f 129/129/129 133/133/133 144/144/144 
f 144/144/144 142/142/142 145/145/145 
f 138/138/138 139/139/139 146/146/146 
f 138/138/138 146/146/146 147/147/147 
f 139/139/139 148/148/148 146/146/146 
f 143/143/143 148/148/148 149/149/149 
f 148/148/148 139/139/139 150/150/150 
f 150/150/150 149/149/149 148/148/148 
f 146/146/146 148/148/148 151/151/151 
f 151/151/151 148/148/148 152/152/152 
f 146/146/146 151/151/151 153/153/153 
f 144/144/144 145/145/145 154/154/154 
f 145/145/145 155/155/155 154/154/154 
f 156/156/156 144/144/144 154/154/154 
f 144/144/144 156/156/156 129/129/129 
f 154/154/154 155/155/155 157/157/157 
f 155/155/155 158/158/158 157/157/157 
f 154/154/154 159/159/159 156/156/156 
f 159/159/159 154/154/154 157/157/157 
f 160/160/160 129/129/129 156/156/156 
f 129/129/129 160/160/160 115/115/115 
f 111/111/111 115/115/115 160/160/160 
f 160/160/160 108/108/108 111/111/111 
f 156/156/156 161/161/161 160/160/160 
f 108/108/108 160/160/160 161/161/161 
f 161/161/161 156/156/156 159/159/159 
f 161/161/161 105/105/105 108/108/108 
f 161/161/161 159/159/159 162/162/162 
f 105/105/105 161/161/161 163/163/163 
f 163/163/163 161/161/161 162/162/162 
f 163/163/163 93/93/93 105/105/105 
f 159/159/159 164/164/164 162/162/162 
f 164/164/164 163/163/163 162/162/162 
f 157/157/157 164/164/164 159/159/159 
f 93/93/93 163/163/163 165/165/165 
f 164/164/164 165/165/165 163/163/163 
f 165/165/165 94/94/94 93/93/93 
f 164/164/164 157/157/157 166/166/166 
f 157/157/157 158/158/158 166/166/166 
f 158/158/158 167/167/167 166/166/166 
f 166/166/166 168/168/168 164/164/164 
f 165/165/165 164/164/164 168/168/168 
f 166/166/166 167/167/167 169/169/169 
f 168/168/168 166/166/166 169/169/169 
f 167/167/167 170/170/170 169/169/169 
f 94/94/94 165/165/165 171/171/171 
f 168/168/168 171/171/171 165/165/165 
f 100/100/100 94/94/94 171/171/171 
f 171/171/171 168/168/168 172/172/172 
f 172/172/172 100/100/100 171/171/171 
f 169/169/169 172/172/172 168/168/168 
f 100/100/100 172/172/172 173/173/173 
f 169/169/169 170/170/170 174/174/174 
f 172/172/172 169/169/169 174/174/174 
f 174/174/174 173/173/173 172/172/172 
f 170/170/170 175/175/175 174/174/174 
f 173/173/173 174/174/174 176/176/176 
f 175/175/175 176/176/176 174/174/174 
f 176/176/176 175/175/175 177/177/177 

