# This file is brought to you by Roblox Corporation
# Generated by Roblox Studio

mtllib 1R.mtl

g Stagfinger1r1

v -1.13418 7.84367 18.6076 
v -1.06288 7.83709 18.7926 
v -1.29268 6.57952 18.9575 
v -1.30671 7.74577 18.6048 
v -1.6105 8.21465 18.9742 
v -1.44591 8.36653 18.9835 
v -1.35356 8.35614 19.1875 
v -1.646 8.40381 19.1322 
v -1.47942 8.46546 19.3331 
v -1.78849 8.28032 19.1075 
v -1.60529 8.57477 19.4786 
v -1.84609 8.44108 19.2809 
v -1.96647 8.34599 19.2408 
v -1.68295 8.5902 19.4944 
v -1.97341 8.40622 19.3032 
v -1.70669 8.35813 19.7287 
v -1.58389 8.27799 19.5164 
v -1.89406 8.37795 19.5187 
v -1.7645 8.41598 19.6955 
v -1.8678 8.31084 19.5088 
v -1.82693 8.48997 19.6195 
v -1.90034 8.46842 19.5193 
v -1.94531 8.48444 19.3972 
v -1.8766 8.48269 19.3354 
v -1.89045 8.52777 19.4154 
v -1.89386 8.53169 19.5055 
v -1.78071 8.58869 19.5055 
v -1.89386 8.53169 19.5055 
v -1.89386 8.53169 19.5055 
v -1.06288 7.83709 18.7926 
v -1.19135 7.73513 18.9042 
v -1.29268 6.57952 18.9575 
v -1.46108 8.19784 19.3042 
v -1.35356 8.35614 19.1875 
v -1.34205 7.67869 18.7882 
v -1.30671 7.74577 18.6048 
v -1.6105 8.21465 18.9742 
v -1.61988 8.11039 19.1724 
v -1.78849 8.28032 19.1075 
v -1.47942 8.46546 19.3331 
v -1.74384 8.21062 19.3406 
v -1.96647 8.34599 19.2408 
v -1.58389 8.27799 19.5164 
v -1.60529 8.57477 19.4786 
v -1.8678 8.31084 19.5088 
v -1.70669 8.35813 19.7287 
v -1.97341 8.40622 19.3032 
v -1.7645 8.41598 19.6955 
v -1.68295 8.5902 19.4944 
v -1.82693 8.48997 19.6195 
v -1.89406 8.37795 19.5187 
v -1.94531 8.48444 19.3972 
v -1.78071 8.58869 19.5055 
v -1.8766 8.48269 19.3354 
v -1.84609 8.44108 19.2809 
v -1.90034 8.46842 19.5193 
v -1.89386 8.53169 19.5055 
v -1.89386 8.53169 19.5055 

vn 0.496063 0.251969 -0.826772 
vn 0.984252 0.149606 0.0787402 
vn -0.0629921 -0.984252 0.173228 
vn -0.488189 -0.0866142 -0.874016 
vn -0.700787 0.0708661 -0.708661 
vn 0.165354 0.779528 -0.606299 
vn 0.80315 0.559055 0.212598 
vn -0.149606 0.80315 -0.574803 
vn 0.685039 0.716535 0.141732 
vn -0.732283 -0.141732 -0.669291 
vn 0.527559 0.834646 0.165354 
vn -0.188976 0.748031 -0.629921 
vn -0.866142 -0.15748 -0.472441 
vn 0.133858 0.984252 0.0944882 
vn -0.929134 0.283465 -0.244094 
vn 0.133858 -0.244094 0.96063 
vn 0.527559 -0.566929 0.629921 
vn -0.850394 -0.23622 0.464567 
vn -0.370079 0.275591 0.889764 
vn -0.590551 -0.716535 0.370079 
vn -0.488189 0.472441 0.732283 
vn -0.88189 0.0472441 0.472441 
vn -0.874016 0.488189 -0.0551181 
vn -0.204724 0.787402 -0.582677 
vn -0.377953 0.874016 -0.314961 
vn -0.708661 0.629921 0.314961 
vn -0.141732 0.984252 0.133858 
vn -0.708661 0.629921 0.314961 
vn -0.708661 0.629921 0.314961 
vn 0.984252 0.149606 0.0787402 
vn 0.307087 -0.259843 0.913386 
vn -0.0629921 -0.984252 0.173228 
vn 0.488189 -0.503937 0.708661 
vn 0.80315 0.559055 0.212598 
vn -0.929134 -0.299213 0.228346 
vn -0.488189 -0.0866142 -0.874016 
vn -0.700787 0.0708661 -0.708661 
vn -0.527559 -0.826772 0.181102 
vn -0.732283 -0.141732 -0.669291 
vn 0.685039 0.716535 0.141732 
vn -0.322835 -0.937008 0.165354 
vn -0.866142 -0.15748 -0.472441 
vn 0.527559 -0.566929 0.629921 
vn 0.527559 0.834646 0.165354 
vn -0.590551 -0.716535 0.370079 
vn 0.133858 -0.244094 0.96063 
vn -0.929134 0.283465 -0.244094 
vn -0.370079 0.275591 0.889764 
vn 0.133858 0.984252 0.0944882 
vn -0.488189 0.472441 0.732283 
vn -0.850394 -0.23622 0.464567 
vn -0.874016 0.488189 -0.0551181 
vn -0.141732 0.984252 0.133858 
vn -0.204724 0.787402 -0.582677 
vn -0.188976 0.748031 -0.629921 
vn -0.88189 0.0472441 0.472441 
vn -0.708661 0.629921 0.314961 
vn -0.708661 0.629921 0.314961 

vt 0.966816 0.0171751 
vt 0.964069 0.0174669 
vt 0.970465 0.00680155 
vt 0.969074 0.0182079 
vt 0.965927 0.0301216 
vt 0.963426 0.0298679 
vt 0.960271 0.0299776 
vt 0.963664 0.0338807 
vt 0.959446 0.0338668 
vt 0.965976 0.0340793 
vt 0.958621 0.0377558 
vt 0.963902 0.0378935 
vt 0.966024 0.0380369 
vt 0.958621 0.0377558 
vt 0.966024 0.0380369 
vt 0.957907 0.0382364 
vt 0.959365 0.0342677 
vt 0.962213 0.0382175 
vt 0.957907 0.0382364 
vt 0.962213 0.0382175 
vt 0.957907 0.0382364 
vt 0.962213 0.0382175 
vt 0.966024 0.0380369 
vt 0.963902 0.0378935 
vt 0.963902 0.0378935 
vt 0.963902 0.0378935 
vt 0.958621 0.0377558 
vt 0.957907 0.0382364 
vt 0.958621 0.0377558 
vt 0.964069 0.0174669 
vt 0.96463 0.0186801 
vt 0.970465 0.00680155 
vt 0.960823 0.030299 
vt 0.960271 0.0299776 
vt 0.967723 0.019138 
vt 0.969074 0.0182079 
vt 0.965927 0.0301216 
vt 0.964319 0.030388 
vt 0.965976 0.0340793 
vt 0.959446 0.0338668 
vt 0.963266 0.0343028 
vt 0.966024 0.0380369 
vt 0.959365 0.0342677 
vt 0.958621 0.0377558 
vt 0.962213 0.0382175 
vt 0.957907 0.0382364 
vt 0.966024 0.0380369 
vt 0.957907 0.0382364 
vt 0.958621 0.0377558 
vt 0.957907 0.0382364 
vt 0.962213 0.0382175 
vt 0.966024 0.0380369 
vt 0.958621 0.0377558 
vt 0.963902 0.0378935 
vt 0.963902 0.0378935 
vt 0.962213 0.0382175 
vt 0.966024 0.0380369 
vt 0.962213 0.0382175 

usemtl Stagfinger1r1Mtl

f 1/1/1 2/2/2 3/3/3 
f 4/4/4 1/1/1 3/3/3 
f 4/4/4 5/5/5 1/1/1 
f 6/6/6 2/2/2 1/1/1 
f 6/6/6 1/1/1 5/5/5 
f 7/7/7 2/2/2 6/6/6 
f 5/5/5 8/8/8 6/6/6 
f 7/7/7 6/6/6 8/8/8 
f 8/8/8 9/9/9 7/7/7 
f 8/8/8 5/5/5 10/10/10 
f 8/8/8 11/11/11 9/9/9 
f 10/10/10 12/12/12 8/8/8 
f 11/11/11 8/8/8 12/12/12 
f 12/12/12 10/10/10 13/13/13 
f 12/12/12 14/14/14 11/11/11 
f 15/15/15 12/12/12 13/13/13 
f 11/11/11 16/16/16 17/17/17 
f 18/18/18 16/16/16 19/19/19 
f 16/16/16 18/18/18 20/20/20 
f 15/15/15 20/20/20 18/18/18 
f 21/21/21 22/22/22 18/18/18 
f 23/23/23 18/18/18 22/22/22 
f 24/24/24 15/15/15 23/23/23 
f 24/24/24 23/23/23 25/25/25 
f 25/25/25 23/23/23 26/26/26 
f 27/27/27 24/24/24 25/25/25 
f 21/21/21 27/27/27 28/28/28 
f 27/27/27 25/25/25 29/29/29 
f 30/30/30 31/31/31 32/32/32 
f 30/30/30 33/33/33 31/31/31 
f 33/33/33 30/30/30 34/34/34 
f 31/31/31 35/35/35 32/32/32 
f 35/35/35 36/36/36 32/32/32 
f 35/35/35 37/37/37 36/36/36 
f 31/31/31 38/38/38 35/35/35 
f 37/37/37 35/35/35 38/38/38 
f 38/38/38 31/31/31 33/33/33 
f 38/38/38 39/39/39 37/37/37 
f 33/33/33 34/34/34 40/40/40 
f 39/39/39 38/38/38 41/41/41 
f 33/33/33 41/41/41 38/38/38 
f 41/41/41 42/42/42 39/39/39 
f 40/40/40 43/43/43 33/33/33 
f 41/41/41 33/33/33 43/43/43 
f 43/43/43 40/40/40 44/44/44 
f 42/42/42 41/41/41 45/45/45 
f 43/43/43 45/45/45 41/41/41 
f 45/45/45 43/43/43 46/46/46 
f 45/45/45 47/47/47 42/42/42 
f 44/44/44 48/48/48 46/46/46 
f 48/48/48 44/44/44 49/49/49 
f 49/49/49 50/50/50 48/48/48 
f 51/51/51 48/48/48 50/50/50 
f 51/51/51 52/52/52 47/47/47 
f 50/50/50 49/49/49 53/53/53 
f 54/54/54 53/53/53 49/49/49 
f 55/55/55 47/47/47 54/54/54 
f 49/49/49 55/55/55 54/54/54 
f 52/52/52 56/56/56 57/57/57 
f 56/56/56 50/50/50 58/58/58 

