# This file is brought to you by Roblox Corporation
# Generated by Roblox Studio

mtllib 2L.mtl

g Stagfinger2l1

v -18.7069 7.88245 19.2719 
v -18.6728 6.62731 19.7331 
v -18.7696 7.90971 19.4147 
v -18.5747 7.79629 19.2587 
v -18.7001 7.85081 19.5442 
v -18.2354 8.26434 19.3383 
v -18.4037 8.29276 19.7311 
v -18.3853 8.41141 19.3802 
v -18.4695 8.42562 19.5765 
v -18.1931 8.53423 19.5167 
v -18.029 8.41819 19.4078 
v -18.3206 8.56083 19.7228 
v -18.232 8.39046 19.9266 
v -17.9975 8.65923 19.6556 
v -18.1691 8.69842 19.8716 
v -18.0572 8.48989 20.1255 
v -18.0347 8.71816 19.8824 
v -17.916 8.69103 19.7329 
v -17.8189 8.57477 19.4786 
v -17.7924 8.63257 19.6104 
v -17.7175 8.35813 19.7287 
v -17.8786 8.40543 19.9485 
v -17.9573 8.57382 20.0582 
v -17.8337 8.51536 19.9357 
v -17.8143 8.63417 19.8704 
v -18.5053 7.7374 19.3882 
v -18.6728 6.62731 19.7331 
v -18.5747 7.79629 19.2587 
v -18.568 7.76466 19.5309 
v -18.7001 7.85081 19.5442 
v -18.1697 8.13148 19.4929 
v -18.2354 8.26434 19.3383 
v -18.2538 8.14569 19.6892 
v -18.4037 8.29276 19.7311 
v -18.232 8.39046 19.9266 
v -17.9456 8.24381 19.6097 
v -18.029 8.41819 19.4078 
v -18.0679 8.27442 19.8177 
v -18.0572 8.48989 20.1255 
v -17.7175 8.35813 19.7287 
v -17.8189 8.57477 19.4786 
v -17.8786 8.40543 19.9485 
v -17.7222 8.48262 19.7835 
v -17.7924 8.63257 19.6104 
v -17.8143 8.63417 19.8704 
v -17.8337 8.51536 19.9357 
v -17.8143 8.63417 19.8704 
v -17.9573 8.57382 20.0582 
v -18.0347 8.71816 19.8824 
v -18.1691 8.69842 19.8716 
v -17.8143 8.63417 19.8704 
v -17.916 8.69103 19.7329 
v -17.8143 8.63417 19.8704 
v -17.8143 8.63417 19.8704 

vn -0.606299 0.11811 -0.787402 
vn -0.0314961 -0.96063 0.267717 
vn -0.968504 0.23622 0 
vn 0.212598 -0.244094 -0.944882 
vn -0.574803 0.0472441 0.818898 
vn 0.354331 0 -0.937008 
vn -0.606299 -0.0787402 0.795276 
vn -0.338583 0.622047 -0.708661 
vn -0.779528 0.622047 0.0708661 
vn -0.220472 0.787402 -0.574803 
vn 0.346457 0.102362 -0.929134 
vn -0.708661 0.692913 0.133858 
vn -0.566929 -0.307087 0.76378 
vn -0.149606 0.88189 -0.448819 
vn -0.519685 0.818898 0.251969 
vn -0.133858 -0.0866142 0.984252 
vn 0.023622 0.968504 0.251969 
vn 0.181102 0.976378 -0.149606 
vn 0.519685 0.354331 -0.771654 
vn 0.637795 0.716535 -0.283465 
vn 0.850394 -0.527559 0.00787402 
vn 0.472441 -0.598425 0.645669 
vn 0.393701 0.425197 0.811024 
vn 0.755906 -0.015748 0.653543 
vn 0.677165 0.637795 0.370079 
vn 0.889764 -0.409449 -0.188976 
vn -0.0314961 -0.96063 0.267717 
vn 0.212598 -0.244094 -0.944882 
vn 0.496063 -0.244094 0.834646 
vn -0.574803 0.0472441 0.818898 
vn 0.677165 -0.700787 -0.228346 
vn 0.354331 0 -0.937008 
vn 0.188976 -0.732283 0.653543 
vn -0.606299 -0.0787402 0.795276 
vn -0.566929 -0.307087 0.76378 
vn 0.543307 -0.818898 -0.19685 
vn 0.346457 0.102362 -0.929134 
vn 0.11811 -0.858268 0.503937 
vn -0.133858 -0.0866142 0.984252 
vn 0.850394 -0.527559 0.00787402 
vn 0.519685 0.354331 -0.771654 
vn 0.472441 -0.598425 0.645669 
vn 0.968504 0.102362 0.244094 
vn 0.637795 0.716535 -0.283465 
vn 0.677165 0.637795 0.370079 
vn 0.755906 -0.015748 0.653543 
vn 0.677165 0.637795 0.370079 
vn 0.393701 0.425197 0.811024 
vn 0.023622 0.968504 0.251969 
vn -0.519685 0.818898 0.251969 
vn 0.677165 0.637795 0.370079 
vn 0.181102 0.976378 -0.149606 
vn 0.677165 0.637795 0.370079 
vn 0.677165 0.637795 0.370079 

vt 0.95501 0.0169044 
vt 0.95611 0.00581789 
vt 0.952661 0.0174103 
vt 0.956916 0.017487 
vt 0.952217 0.018499 
vt 0.95734 0.0278443 
vt 0.951137 0.0287433 
vt 0.954653 0.0279459 
vt 0.951551 0.0283954 
vt 0.954546 0.0327764 
vt 0.957975 0.0327566 
vt 0.950834 0.0328859 
vt 0.950285 0.0334262 
vt 0.954438 0.0376923 
vt 0.950105 0.037456 
vt 0.949419 0.0381919 
vt 0.950105 0.037456 
vt 0.954438 0.0376923 
vt 0.958621 0.0377558 
vt 0.958621 0.0377558 
vt 0.957907 0.0382364 
vt 0.953602 0.0382554 
vt 0.949419 0.0381919 
vt 0.953602 0.0382554 
vt 0.953602 0.0382554 
vt 0.956472 0.0185758 
vt 0.95611 0.00581789 
vt 0.956916 0.017487 
vt 0.954123 0.0190817 
vt 0.952217 0.018499 
vt 0.956926 0.0281922 
vt 0.95734 0.0278443 
vt 0.953824 0.0286417 
vt 0.951137 0.0287433 
vt 0.950285 0.0334262 
vt 0.957412 0.0331703 
vt 0.957975 0.0327566 
vt 0.953714 0.0334064 
vt 0.949419 0.0381919 
vt 0.957907 0.0382364 
vt 0.958621 0.0377558 
vt 0.953602 0.0382554 
vt 0.957907 0.0382364 
vt 0.958621 0.0377558 
vt 0.958621 0.0377558 
vt 0.953602 0.0382554 
vt 0.957907 0.0382364 
vt 0.949419 0.0381919 
vt 0.950105 0.037456 
vt 0.950105 0.037456 
vt 0.949419 0.0381919 
vt 0.954438 0.0376923 
vt 0.954438 0.0376923 
vt 0.950105 0.037456 

usemtl Stagfinger2l1Mtl

f 1/1/1 2/2/2 3/3/3 
f 4/4/4 2/2/2 1/1/1 
f 3/3/3 2/2/2 5/5/5 
f 1/1/1 6/6/6 4/4/4 
f 7/7/7 3/3/3 5/5/5 
f 6/6/6 1/1/1 8/8/8 
f 8/8/8 1/1/1 3/3/3 
f 3/3/3 7/7/7 9/9/9 
f 3/3/3 9/9/9 8/8/8 
f 10/10/10 6/6/6 8/8/8 
f 9/9/9 10/10/10 8/8/8 
f 6/6/6 10/10/10 11/11/11 
f 7/7/7 12/12/12 9/9/9 
f 10/10/10 9/9/9 12/12/12 
f 12/12/12 7/7/7 13/13/13 
f 14/14/14 11/11/11 10/10/10 
f 12/12/12 14/14/14 10/10/10 
f 13/13/13 15/15/15 12/12/12 
f 14/14/14 12/12/12 15/15/15 
f 15/15/15 13/13/13 16/16/16 
f 17/17/17 14/14/14 15/15/15 
f 14/14/14 17/17/17 18/18/18 
f 11/11/11 14/14/14 19/19/19 
f 14/14/14 18/18/18 20/20/20 
f 19/19/19 14/14/14 20/20/20 
f 20/20/20 21/21/21 19/19/19 
f 22/22/22 23/23/23 16/16/16 
f 24/24/24 25/25/25 23/23/23 
f 26/26/26 27/27/27 28/28/28 
f 29/29/29 27/27/27 26/26/26 
f 30/30/30 27/27/27 29/29/29 
f 31/31/31 26/26/26 28/28/28 
f 31/31/31 28/28/28 32/32/32 
f 33/33/33 29/29/29 26/26/26 
f 33/33/33 30/30/30 29/29/29 
f 26/26/26 31/31/31 33/33/33 
f 30/30/30 33/33/33 34/34/34 
f 33/33/33 35/35/35 34/34/34 
f 32/32/32 36/36/36 31/31/31 
f 36/36/36 33/33/33 31/31/31 
f 36/36/36 32/32/32 37/37/37 
f 33/33/33 38/38/38 35/35/35 
f 33/33/33 36/36/36 38/38/38 
f 39/39/39 35/35/35 38/38/38 
f 37/37/37 40/40/40 36/36/36 
f 40/40/40 37/37/37 41/41/41 
f 42/42/42 38/38/38 36/36/36 
f 40/40/40 42/42/42 36/36/36 
f 42/42/42 39/39/39 38/38/38 
f 43/43/43 42/42/42 40/40/40 
f 40/40/40 44/44/44 43/43/43 
f 44/44/44 45/45/45 43/43/43 
f 42/42/42 43/43/43 46/46/46 
f 43/43/43 47/47/47 46/46/46 
f 48/48/48 42/42/42 46/46/46 
f 49/49/49 39/39/39 48/48/48 
f 39/39/39 49/49/49 50/50/50 
f 48/48/48 51/51/51 49/49/49 
f 52/52/52 53/53/53 44/44/44 
f 49/49/49 54/54/54 52/52/52 

