# This file is brought to you by Roblox Corporation
# Generated by Roblox Studio

mtllib EarR.mtl

g Earr1

v -6.69576 17.5876 24.1275 
v -7.21821 17.6761 23.7309 
v -6.97328 16.9948 24.0292 
v -7.692 17.7032 23.3212 
v -7.24192 16.4513 23.8694 
v -8.18181 17.3845 22.9955 
v -7.73172 16.1326 23.5437 
v -8.57097 16.7605 22.8172 
v -8.3419 16.1233 23.0962 
v -7.11641 17.4329 23.5672 
v -6.86748 17.3919 23.8216 
v -7.15851 17.4415 23.6213 
v -6.8266 17.3836 23.7691 
v -7.02682 17.0752 23.7817 
v -6.98472 17.0667 23.7276 
v -7.07736 17.6466 23.5479 
v -6.83243 16.9653 23.8463 
v -7.55043 17.6736 23.1373 
v -7.53884 17.4573 23.2054 
v -8.04056 17.3549 22.812 
v -7.692 17.7032 23.3212 
v -7.21821 17.6761 23.7309 
v -8.18181 17.3845 22.9955 
v -6.69576 17.5876 24.1275 
v -8.57097 16.7605 22.8172 
v -6.54804 17.5567 23.9356 
v -6.97328 16.9948 24.0292 
v -7.24192 16.4513 23.8694 
v -8.42291 16.7295 22.6249 
v -7.94302 17.1928 22.9333 
v -7.58094 17.4659 23.2595 
v -7.98513 17.2014 22.9874 
v -8.21424 16.7159 22.7683 
v -8.25458 16.7241 22.8201 
v -8.06757 16.308 22.947 
v -8.1079 16.3162 22.9988 
v -8.19384 16.0923 22.9039 
v -7.59048 16.1031 23.3602 
v -7.73172 16.1326 23.5437 
v -8.3419 16.1233 23.0962 
v -7.62916 16.3199 23.3155 
v -7.67127 16.3284 23.3696 
v -7.26708 16.5929 23.6418 
v -7.10035 16.4217 23.6855 
v -7.22498 16.5843 23.5877 
v -7.02682 17.0752 23.7817 
v -7.15851 17.4415 23.6213 
v -6.86748 17.3919 23.8216 
v -7.58094 17.4659 23.2595 
v -7.26708 16.5929 23.6418 
v -7.98513 17.2014 22.9874 
v -7.67127 16.3284 23.3696 
v -8.25458 16.7241 22.8201 
v -8.1079 16.3162 22.9988 
v -8.25458 16.7241 22.8201 
v -7.94302 17.1928 22.9333 
v -7.98513 17.2014 22.9874 
v -7.58094 17.4659 23.2595 
v -7.53884 17.4573 23.2054 
v -7.11641 17.4329 23.5672 
v -7.15851 17.4415 23.6213 
v -7.26708 16.5929 23.6418 
v -7.02682 17.0752 23.7817 
v -6.98472 17.0667 23.7276 
v -8.1079 16.3162 22.9988 
v -7.62916 16.3199 23.3155 
v -8.06757 16.308 22.947 

vn 0.275591 0.464567 0.834646 
vn -0.338583 0.787402 0.519685 
vn 0.0314961 -0.244094 0.968504 
vn -0.480315 0.818898 0.322835 
vn -0.015748 -0.464567 0.88189 
vn -0.755906 0.637795 0.149606 
vn -0.299213 -0.637795 0.708661 
vn -0.84252 0.440945 0.299213 
vn -0.511811 -0.488189 0.708661 
vn 0.307087 -0.80315 -0.511811 
vn -0.307087 -0.472441 -0.826772 
vn 0.330709 -0.779528 -0.527559 
vn 0.283465 -0.299213 -0.913386 
vn -0.0314961 0.23622 -0.968504 
vn -0.0708661 0.244094 -0.968504 
vn 0.535433 0.614173 -0.582677 
vn 0.897638 -0.409449 -0.133858 
vn 0.346457 0.622047 -0.700787 
vn 0.535433 -0.732283 -0.417323 
vn 0.0472441 0.456693 -0.889764 
vn -0.480315 0.818898 0.322835 
vn -0.338583 0.787402 0.519685 
vn -0.755906 0.637795 0.149606 
vn 0.275591 0.464567 0.834646 
vn -0.84252 0.440945 0.299213 
vn 0.944882 0.307087 -0.0708661 
vn 0.0314961 -0.244094 0.968504 
vn -0.015748 -0.464567 0.88189 
vn 0.0866142 0.220472 -0.968504 
vn 0.771654 -0.582677 -0.259843 
vn 0.480315 -0.818898 -0.322835 
vn 0.771654 -0.622047 -0.149606 
vn 0.929134 -0.133858 -0.354331 
vn 0.992126 -0.0944882 0.0393701 
vn 0.755906 0.338583 -0.559055 
vn 0.740157 0.614173 -0.275591 
vn 0.425197 -0.708661 -0.559055 
vn 0.496063 -0.795276 -0.338583 
vn -0.299213 -0.637795 0.708661 
vn -0.511811 -0.488189 0.708661 
vn 0.370079 0.543307 -0.755906 
vn 0.314961 0.637795 -0.700787 
vn 0.015748 0.464567 -0.88189 
vn 0.787402 -0.590551 -0.165354 
vn 0.133858 0.385827 -0.913386 
vn -0.0314961 0.23622 -0.968504 
vn 0.330709 -0.779528 -0.527559 
vn -0.307087 -0.472441 -0.826772 
vn 0.480315 -0.818898 -0.322835 
vn 0.015748 0.464567 -0.88189 
vn 0.771654 -0.622047 -0.149606 
vn 0.314961 0.637795 -0.700787 
vn 0.992126 -0.0944882 0.0393701 
vn 0.740157 0.614173 -0.275591 
vn 0.992126 -0.0944882 0.0393701 
vn 0.771654 -0.582677 -0.259843 
vn 0.771654 -0.622047 -0.149606 
vn 0.480315 -0.818898 -0.322835 
vn 0.535433 -0.732283 -0.417323 
vn 0.307087 -0.80315 -0.511811 
vn 0.330709 -0.779528 -0.527559 
vn 0.015748 0.464567 -0.88189 
vn -0.0314961 0.23622 -0.968504 
vn -0.0708661 0.244094 -0.968504 
vn 0.740157 0.614173 -0.275591 
vn 0.370079 0.543307 -0.755906 
vn 0.755906 0.338583 -0.559055 

vt 0.964671 0.956145 
vt 0.959246 0.95705 
vt 0.964671 0.95705 
vt 0.959246 0.957954 
vt 0.964671 0.957954 
vt 0.959246 0.959762 
vt 0.964671 0.959762 
vt 0.959246 0.961571 
vt 0.964671 0.961571 
vt 0.959885 0.957254 
vt 0.962802 0.956768 
vt 0.959885 0.957254 
vt 0.962802 0.956768 
vt 0.962802 0.957254 
vt 0.962802 0.957254 
vt 0.959246 0.95705 
vt 0.964671 0.95705 
vt 0.959246 0.957954 
vt 0.960144 0.958058 
vt 0.959246 0.959762 
vt 0.959246 0.957954 
vt 0.959246 0.95705 
vt 0.959246 0.959762 
vt 0.964671 0.956145 
vt 0.959246 0.961571 
vt 0.964671 0.956145 
vt 0.964671 0.95705 
vt 0.964671 0.957954 
vt 0.959246 0.961571 
vt 0.960067 0.959618 
vt 0.960144 0.958058 
vt 0.960067 0.959618 
vt 0.960551 0.960986 
vt 0.960551 0.960986 
vt 0.963366 0.960986 
vt 0.963366 0.960986 
vt 0.964671 0.961571 
vt 0.964671 0.959762 
vt 0.964671 0.959762 
vt 0.964671 0.961571 
vt 0.96385 0.959618 
vt 0.96385 0.959618 
vt 0.96385 0.95812 
vt 0.964671 0.957954 
vt 0.96385 0.95812 
vt 0.237311 0.957254 
vt 0.234394 0.957254 
vt 0.237311 0.956768 
vt 0.234652 0.958058 
vt 0.238358 0.95812 
vt 0.234575 0.959618 
vt 0.238358 0.959618 
vt 0.235059 0.960986 
vt 0.237874 0.960986 
vt 0.960551 0.960986 
vt 0.960067 0.959618 
vt 0.960067 0.959618 
vt 0.960144 0.958058 
vt 0.960144 0.958058 
vt 0.959885 0.957254 
vt 0.959885 0.957254 
vt 0.96385 0.95812 
vt 0.962802 0.957254 
vt 0.962802 0.957254 
vt 0.963366 0.960986 
vt 0.96385 0.959618 
vt 0.963366 0.960986 

usemtl Earr1Mtl

f 1/1/1 2/2/2 3/3/3 
f 4/4/4 3/3/3 2/2/2 
f 4/4/4 5/5/5 3/3/3 
f 6/6/6 5/5/5 4/4/4 
f 6/6/6 7/7/7 5/5/5 
f 7/7/7 6/6/6 8/8/8 
f 7/7/7 8/8/8 9/9/9 
f 10/10/10 11/11/11 12/12/12 
f 11/11/11 10/10/10 13/13/13 
f 14/14/14 11/11/11 13/13/13 
f 13/13/13 15/15/15 14/14/14 
f 16/16/16 13/13/13 10/10/10 
f 13/13/13 17/17/17 15/15/15 
f 18/18/18 16/16/16 10/10/10 
f 18/18/18 10/10/10 19/19/19 
f 20/20/20 18/18/18 19/19/19 
f 21/21/21 16/16/16 18/18/18 
f 20/20/20 21/21/21 18/18/18 
f 16/16/16 21/21/21 22/22/22 
f 21/21/21 20/20/20 23/23/23 
f 24/24/24 16/16/16 22/22/22 
f 25/25/25 23/23/23 20/20/20 
f 16/16/16 24/24/24 26/26/26 
f 16/16/16 26/26/26 13/13/13 
f 27/27/27 26/26/26 24/24/24 
f 17/17/17 13/13/13 26/26/26 
f 26/26/26 27/27/27 17/17/17 
f 28/28/28 17/17/17 27/27/27 
f 20/20/20 29/29/29 25/25/25 
f 20/20/20 19/19/19 30/30/30 
f 30/30/30 29/29/29 20/20/20 
f 30/30/30 31/31/31 32/32/32 
f 30/30/30 33/33/33 29/29/29 
f 30/30/30 34/34/34 33/33/33 
f 35/35/35 29/29/29 33/33/33 
f 34/34/34 35/35/35 33/33/33 
f 35/35/35 34/34/34 36/36/36 
f 29/29/29 35/35/35 37/37/37 
f 35/35/35 38/38/38 37/37/37 
f 37/37/37 39/39/39 40/40/40 
f 39/39/39 37/37/37 38/38/38 
f 38/38/38 28/28/28 39/39/39 
f 35/35/35 41/41/41 38/38/38 
f 41/41/41 36/36/36 42/42/42 
f 43/43/43 41/41/41 42/42/42 
f 28/28/28 38/38/38 44/44/44 
f 44/44/44 38/38/38 41/41/41 
f 17/17/17 28/28/28 44/44/44 
f 41/41/41 43/43/43 45/45/45 
f 41/41/41 45/45/45 44/44/44 
f 17/17/17 44/44/44 45/45/45 
f 15/15/15 45/45/45 43/43/43 
f 17/17/17 45/45/45 15/15/15 
f 46/46/46 47/47/47 48/48/48 
f 46/46/46 49/49/49 47/47/47 
f 49/49/49 46/46/46 50/50/50 
f 50/50/50 51/51/51 49/49/49 
f 51/51/51 50/50/50 52/52/52 
f 52/52/52 53/53/53 51/51/51 
f 53/53/53 52/52/52 54/54/54 
f 55/55/55 56/56/56 57/57/57 
f 58/58/58 56/56/56 59/59/59 
f 60/60/60 58/58/58 59/59/59 
f 58/58/58 60/60/60 61/61/61 
f 62/62/62 63/63/63 64/64/64 
f 65/65/65 66/66/66 67/67/67 

