# This file is brought to you by Roblox Corporation
# Generated by Roblox Studio

mtllib LowTorso.mtl

g Lowertorso1

v -11.4288 8.38709 22.6478 
v -10.8522 7.65425 22.4951 
v -11.0385 7.6707 22.7386 
v -11.0356 8.80824 22.4401 
v -11.2424 8.83211 22.7105 
v -9.71212 9.2971 23.1866 
v -9.36275 6.9017 22.9456 
v -8.57199 7.65425 22.4951 
v -9.28634 6.90301 23.0706 
v -7.99541 8.38709 22.6478 
v -8.22743 8.36164 22.3445 
v -8.38868 8.80824 22.4401 
v -10.0348 8.76053 22.1405 
v -9.38941 8.76053 22.1405 
v -9.35009 8.30826 22.0083 
v -9.71212 9.2971 23.1866 
v -8.95001 8.75973 22.1924 
v -8.85715 8.30823 22.0666 
v -8.66528 8.78018 22.3366 
v -10.4742 8.75973 22.1924 
v -9.71212 9.2971 23.1866 
v -10.0741 8.30826 22.0083 
v -10.759 8.78018 22.3366 
v -9.71212 9.2971 23.1866 
v -10.5671 8.30823 22.0666 
v -10.8865 8.3279 22.2283 
v -10.0615 6.9017 22.9456 
v -9.71212 6.78944 23.1687 
v -10.1379 6.90301 23.0706 
v -9.07738 7.61012 22.2721 
v -9.57012 6.90177 22.8282 
v -9.45611 7.58308 22.2253 
v -9.46493 6.90173 22.8985 
v -8.82103 7.61862 22.4019 
v -9.71212 6.78944 23.1687 
v -8.85715 8.30823 22.0666 
v -8.53773 8.3279 22.2283 
v -8.66528 8.78018 22.3366 
v -9.35009 8.30826 22.0083 
v -8.95001 8.75973 22.1924 
v -9.71212 9.2971 23.1866 
v -9.38941 8.76053 22.1405 
v -9.71212 9.2971 23.1866 
v -9.67413 6.90178 22.7988 
v -10.0741 8.30826 22.0083 
v -10.0348 8.76053 22.1405 
v -9.96812 7.58308 22.2253 
v -9.7501 6.90178 22.7988 
v -9.85411 6.90177 22.8282 
v -9.9593 6.90173 22.8985 
v -10.3468 7.61012 22.2721 
v -10.6032 7.61862 22.4019 
v -10.5671 8.30823 22.0666 
v -10.4742 8.75973 22.1924 
v -10.8865 8.3279 22.2283 
v -9.36275 6.9017 22.9456 
v -8.82103 7.61862 22.4019 
v -8.57199 7.65425 22.4951 
v -9.46493 6.90173 22.8985 
v -9.71212 6.78944 23.1687 
v -8.53773 8.3279 22.2283 
v -8.22743 8.36164 22.3445 
v -8.38868 8.80824 22.4401 
v -8.66528 8.78018 22.3366 
v -9.71212 9.2971 23.1866 
v -9.9593 6.90173 22.8985 
v -10.0615 6.9017 22.9456 
v -10.6032 7.61862 22.4019 
v -10.8522 7.65425 22.4951 
v -10.8865 8.3279 22.2283 
v -11.1968 8.36164 22.3445 
v -11.0356 8.80824 22.4401 
v -10.759 8.78018 22.3366 
v -9.71212 9.2971 23.1866 
v -9.32845 7.66162 24.4554 
v -9.59401 6.92265 23.8252 
v -9.13561 7.68107 24.4351 
v -9.46239 6.91931 23.7552 
v -9.71212 6.78944 23.1687 
v -8.81482 7.66476 24.1838 
v -9.67314 6.92265 23.8161 
v -9.71212 6.78944 23.1687 
v -9.24328 8.44686 24.6638 
v -9.75109 6.92265 23.8161 
v -9.71212 6.78944 23.1687 
v -9.83022 6.92265 23.8252 
v -10.0958 7.66162 24.4554 
v -9.96184 6.91931 23.7552 
v -10.181 8.44686 24.6638 
v -10.2886 7.68107 24.4351 
v -10.6094 7.66476 24.1838 
v -8.85639 8.44686 24.6366 
v -8.94933 8.88551 24.4833 
v -8.53 8.43672 24.3026 
v -9.2942 8.88551 24.5076 
v -9.71212 9.2971 23.1866 
v -10.13 8.88551 24.5076 
v -8.65839 8.87647 24.1855 
v -9.71212 9.2971 23.1866 
v -10.4749 8.88551 24.4833 
v -10.5678 8.44686 24.6366 
v -10.8942 8.43672 24.3026 
v -10.7658 8.87647 24.1855 
v -9.71212 9.2971 23.1866 
v -8.3802 8.86985 23.9179 
v -8.21792 8.42929 24.0023 
v -8.56435 7.68238 23.9395 
v -7.98852 8.41494 23.5784 
v -8.17572 8.85706 23.54 
v -9.71212 9.2971 23.1866 
v -11.044 8.86985 23.9179 
v -9.35961 6.91686 23.7028 
v -9.71212 6.78944 23.1687 
v -9.28407 6.91214 23.5394 
v -9.71212 6.78944 23.1687 
v -11.2063 8.42929 24.0023 
v -8.38024 7.68195 23.547 
v -10.8599 7.68238 23.9395 
v -7.88591 8.40361 23.318 
v -9.25028 6.90841 23.4013 
v -9.71212 6.78944 23.1687 
v -8.29789 7.6843 23.2833 
v -8.08425 8.84695 23.3079 
v -9.71212 9.2971 23.1866 
v -8.0874 8.83595 22.9386 
v -9.71212 9.2971 23.1866 
v -7.88945 8.39126 22.9037 
v -9.25144 6.90434 23.1884 
v -9.71212 6.78944 23.1687 
v -8.30073 7.67664 22.9439 
v -8.38577 7.6707 22.7386 
v -9.28634 6.90301 23.0706 
v -9.71212 6.78944 23.1687 
v -8.57199 7.65425 22.4951 
v -9.36275 6.9017 22.9456 
v -9.71212 6.78944 23.1687 
v -7.99541 8.38709 22.6478 
v -8.18186 8.83211 22.7105 
v -8.38868 8.80824 22.4401 
v -9.71212 9.2971 23.1866 
v -9.71212 9.2971 23.1866 
v -11.3368 8.83595 22.9386 
v -11.34 8.84695 23.3079 
v -11.2424 8.83211 22.7105 
v -11.5348 8.39126 22.9037 
v -11.5383 8.40361 23.318 
v -11.4288 8.38709 22.6478 
v -11.0356 8.80824 22.4401 
v -11.1968 8.36164 22.3445 
v -10.8522 7.65425 22.4951 
v -11.0385 7.6707 22.7386 
v -10.1379 6.90301 23.0706 
v -10.0615 6.9017 22.9456 
v -11.1235 7.67664 22.9439 
v -10.1728 6.90434 23.1884 
v -11.1263 7.6843 23.2833 
v -10.174 6.90841 23.4013 
v -11.044 7.68195 23.547 
v -10.1402 6.91214 23.5394 
v -11.4357 8.41494 23.5784 
v -10.0646 6.91686 23.7028 
v -11.2485 8.85706 23.54 

vn -0.874016 -0.0393701 -0.488189 
vn -0.511811 -0.582677 -0.629921 
vn -0.685039 -0.629921 -0.362205 
vn -0.393701 0.669291 -0.622047 
vn -0.574803 0.732283 -0.362205 
vn 0 1 -0.0787402 
vn 0.330709 -0.858268 -0.385827 
vn 0.511811 -0.582677 -0.629921 
vn 0.417323 -0.889764 -0.19685 
vn 0.874016 -0.0393701 -0.488189 
vn 0.622047 -0.0314961 -0.779528 
vn 0.393701 0.669291 -0.622047 
vn -0.0472441 0.637795 -0.771654 
vn 0.0472441 0.637795 -0.771654 
vn 0.0629921 -0.00787402 -1 
vn 0 1 -0.0787402 
vn 0.204724 0.637795 -0.748031 
vn 0.307087 -0.023622 -0.952756 
vn 0.244094 0.661417 -0.708661 
vn -0.204724 0.637795 -0.748031 
vn 0 1 -0.0787402 
vn -0.0629921 -0.00787402 -1 
vn -0.244094 0.661417 -0.708661 
vn 0 1 -0.0787402 
vn -0.307087 -0.023622 -0.952756 
vn -0.401575 -0.0314961 -0.913386 
vn -0.330709 -0.858268 -0.385827 
vn 0 -1 -0.0551181 
vn -0.417323 -0.889764 -0.19685 
vn 0.275591 -0.527559 -0.80315 
vn 0.188976 -0.84252 -0.503937 
vn 0.0708661 -0.488189 -0.866142 
vn 0.244094 -0.866142 -0.440945 
vn 0.377953 -0.566929 -0.732283 
vn 0 -1 -0.0551181 
vn 0.307087 -0.023622 -0.952756 
vn 0.401575 -0.0314961 -0.913386 
vn 0.244094 0.661417 -0.708661 
vn 0.0629921 -0.00787402 -1 
vn 0.204724 0.637795 -0.748031 
vn 0 1 -0.0787402 
vn 0.0472441 0.637795 -0.771654 
vn 0 1 -0.0787402 
vn 0.0551181 -0.826772 -0.559055 
vn -0.0629921 -0.00787402 -1 
vn -0.0472441 0.637795 -0.771654 
vn -0.0708661 -0.488189 -0.866142 
vn -0.0551181 -0.826772 -0.559055 
vn -0.188976 -0.84252 -0.503937 
vn -0.244094 -0.866142 -0.440945 
vn -0.275591 -0.527559 -0.80315 
vn -0.377953 -0.566929 -0.732283 
vn -0.307087 -0.023622 -0.952756 
vn -0.204724 0.637795 -0.748031 
vn -0.401575 -0.0314961 -0.913386 
vn 0.330709 -0.858268 -0.385827 
vn 0.377953 -0.566929 -0.732283 
vn 0.511811 -0.582677 -0.629921 
vn 0.244094 -0.866142 -0.440945 
vn 0 -1 -0.0551181 
vn 0.401575 -0.0314961 -0.913386 
vn 0.622047 -0.0314961 -0.779528 
vn 0.393701 0.669291 -0.622047 
vn 0.244094 0.661417 -0.708661 
vn 0 1 -0.0787402 
vn -0.244094 -0.866142 -0.440945 
vn -0.330709 -0.858268 -0.385827 
vn -0.377953 -0.566929 -0.732283 
vn -0.511811 -0.582677 -0.629921 
vn -0.401575 -0.0314961 -0.913386 
vn -0.622047 -0.0314961 -0.779528 
vn -0.393701 0.669291 -0.622047 
vn -0.244094 0.661417 -0.708661 
vn 0 1 -0.0787402 
vn 0.0472441 -0.480315 0.874016 
vn 0.141732 -0.850394 0.503937 
vn 0.307087 -0.503937 0.811024 
vn 0.259843 -0.88189 0.393701 
vn 0 -1 -0.0551181 
vn 0.551181 -0.543307 0.637795 
vn 0.00787402 -0.866142 0.496063 
vn 0 -1 -0.0551181 
vn 0.0393701 0.0393701 1 
vn -0.00787402 -0.866142 0.496063 
vn 0 -1 -0.0551181 
vn -0.141732 -0.850394 0.503937 
vn -0.0472441 -0.480315 0.874016 
vn -0.259843 -0.88189 0.393701 
vn -0.0393701 0.0393701 1 
vn -0.307087 -0.503937 0.811024 
vn -0.551181 -0.543307 0.637795 
vn 0.433071 0.015748 0.905512 
vn 0.299213 0.700787 0.645669 
vn 0.692913 0 0.716535 
vn 0.023622 0.716535 0.692913 
vn 0 1 -0.0787402 
vn -0.023622 0.716535 0.692913 
vn 0.480315 0.740157 0.464567 
vn 0 1 -0.0787402 
vn -0.299213 0.700787 0.645669 
vn -0.433071 0.015748 0.905512 
vn -0.692913 0 0.716535 
vn -0.480315 0.740157 0.464567 
vn 0 1 -0.0787402 
vn 0.559055 0.724409 0.401575 
vn 0.811024 -0.00787402 0.582677 
vn 0.669291 -0.551181 0.496063 
vn 0.913386 -0.0314961 0.401575 
vn 0.614173 0.740157 0.259843 
vn 0 1 -0.0787402 
vn -0.559055 0.724409 0.401575 
vn 0.385827 -0.858268 0.338583 
vn 0 -1 -0.0551181 
vn 0.433071 -0.88189 0.181102 
vn 0 -1 -0.0551181 
vn -0.811024 -0.00787402 0.590551 
vn 0.740157 -0.606299 0.307087 
vn -0.669291 -0.551181 0.496063 
vn 0.984252 -0.0472441 0.165354 
vn 0.456693 -0.88189 0.0866142 
vn 0 -1 -0.0551181 
vn 0.76378 -0.629921 0.125984 
vn 0.669291 0.732283 0.102362 
vn 0 1 -0.0787402 
vn 0.661417 0.732283 -0.149606 
vn 0 1 -0.0787402 
vn 0.976378 -0.0472441 -0.19685 
vn 0.456693 -0.889764 -0.0551181 
vn 0 -1 -0.0551181 
vn 0.755906 -0.637795 -0.141732 
vn 0.685039 -0.629921 -0.362205 
vn 0.417323 -0.889764 -0.19685 
vn 0 -1 -0.0551181 
vn 0.511811 -0.582677 -0.629921 
vn 0.330709 -0.858268 -0.385827 
vn 0 -1 -0.0551181 
vn 0.874016 -0.0393701 -0.488189 
vn 0.574803 0.732283 -0.362205 
vn 0.393701 0.669291 -0.622047 
vn 0 1 -0.0787402 
vn 0 1 -0.0787402 
vn -0.661417 0.732283 -0.149606 
vn -0.669291 0.732283 0.102362 
vn -0.574803 0.732283 -0.362205 
vn -0.976378 -0.0472441 -0.19685 
vn -0.984252 -0.0472441 0.165354 
vn -0.874016 -0.0393701 -0.488189 
vn -0.393701 0.669291 -0.622047 
vn -0.622047 -0.0314961 -0.779528 
vn -0.511811 -0.582677 -0.629921 
vn -0.685039 -0.629921 -0.362205 
vn -0.417323 -0.889764 -0.19685 
vn -0.330709 -0.858268 -0.385827 
vn -0.755906 -0.637795 -0.141732 
vn -0.456693 -0.889764 -0.0551181 
vn -0.76378 -0.629921 0.125984 
vn -0.456693 -0.889764 0.0866142 
vn -0.740157 -0.606299 0.307087 
vn -0.433071 -0.88189 0.181102 
vn -0.913386 -0.0314961 0.401575 
vn -0.385827 -0.858268 0.338583 
vn -0.614173 0.740157 0.259843 

vt 0.961044 0.957709 
vt 0.961044 0.957655 
vt 0.961044 0.957709 
vt 0.961044 0.957655 
vt 0.961044 0.957709 
vt 0.961044 0.957655 
vt 0.961044 0.957655 
vt 0.961044 0.957655 
vt 0.961044 0.957709 
vt 0.961044 0.957709 
vt 0.961044 0.957655 
vt 0.961044 0.957655 
vt 0.960869 0.957816 
vt 0.96085 0.957817 
vt 0.96085 0.957817 
vt 0.96085 0.957817 
vt 0.960835 0.957818 
vt 0.960835 0.957818 
vt 0.960824 0.957818 
vt 0.960884 0.957815 
vt 0.960869 0.957816 
vt 0.960869 0.957816 
vt 0.960895 0.957814 
vt 0.960884 0.957815 
vt 0.960884 0.957815 
vt 0.960895 0.957814 
vt 0.961044 0.957655 
vt 0.961043 0.957636 
vt 0.961044 0.957709 
vt 0.96084 0.957793 
vt 0.960851 0.957762 
vt 0.960851 0.957791 
vt 0.960846 0.95776 
vt 0.96083 0.957793 
vt 0.960855 0.957743 
vt 0.960835 0.957818 
vt 0.960824 0.957818 
vt 0.960824 0.957818 
vt 0.96085 0.957817 
vt 0.960835 0.957818 
vt 0.960824 0.957818 
vt 0.96085 0.957817 
vt 0.960835 0.957818 
vt 0.960855 0.957762 
vt 0.960869 0.957816 
vt 0.960869 0.957816 
vt 0.960866 0.957791 
vt 0.960858 0.957762 
vt 0.960862 0.957761 
vt 0.960867 0.957759 
vt 0.960877 0.957791 
vt 0.960887 0.957789 
vt 0.960884 0.957815 
vt 0.960884 0.957815 
vt 0.960895 0.957814 
vt 0.961044 0.958635 
vt 0.961044 0.958605 
vt 0.961044 0.958635 
vt 0.961044 0.958605 
vt 0.961044 0.958595 
vt 0.961044 0.958605 
vt 0.961044 0.958635 
vt 0.961044 0.958635 
vt 0.961044 0.958605 
vt 0.961044 0.958635 
vt 0.961044 0.958605 
vt 0.961044 0.958635 
vt 0.961044 0.958605 
vt 0.961044 0.958635 
vt 0.961044 0.958605 
vt 0.961044 0.958635 
vt 0.961044 0.958635 
vt 0.961044 0.958605 
vt 0.961044 0.958605 
vt 0.961044 0.958012 
vt 0.961044 0.957994 
vt 0.961044 0.957994 
vt 0.961044 0.957954 
vt 0.961044 0.957947 
vt 0.961044 0.957954 
vt 0.961044 0.958012 
vt 0.961044 0.957992 
vt 0.961044 0.958012 
vt 0.961044 0.958012 
vt 0.961044 0.958011 
vt 0.961044 0.957994 
vt 0.961044 0.958012 
vt 0.961044 0.957954 
vt 0.961044 0.958012 
vt 0.961044 0.957994 
vt 0.961044 0.957954 
vt 0.961044 0.957994 
vt 0.961044 0.957994 
vt 0.961044 0.957954 
vt 0.961044 0.958012 
vt 0.961044 0.958012 
vt 0.961044 0.958012 
vt 0.961044 0.957954 
vt 0.961044 0.957994 
vt 0.961044 0.957994 
vt 0.961044 0.957994 
vt 0.961044 0.957954 
vt 0.961044 0.957954 
vt 0.961044 0.957954 
vt 0.961044 0.957925 
vt 0.961044 0.957925 
vt 0.961044 0.957925 
vt 0.961044 0.957872 
vt 0.961044 0.957872 
vt 0.961044 0.957925 
vt 0.961044 0.957925 
vt 0.961044 0.957925 
vt 0.961044 0.957915 
vt 0.961044 0.957872 
vt 0.961044 0.957856 
vt 0.961044 0.957925 
vt 0.961044 0.957872 
vt 0.961044 0.957925 
vt 0.961044 0.957831 
vt 0.961044 0.957831 
vt 0.961044 0.957814 
vt 0.961044 0.957831 
vt 0.961044 0.957831 
vt 0.961044 0.957872 
vt 0.961044 0.95775 
vt 0.961044 0.957831 
vt 0.961044 0.95775 
vt 0.961044 0.95775 
vt 0.961044 0.957725 
vt 0.961044 0.95775 
vt 0.961044 0.957709 
vt 0.961044 0.957709 
vt 0.961044 0.957689 
vt 0.961044 0.957655 
vt 0.961044 0.957655 
vt 0.961043 0.957636 
vt 0.961044 0.957709 
vt 0.961044 0.957709 
vt 0.961044 0.957655 
vt 0.961044 0.95775 
vt 0.961044 0.957709 
vt 0.961044 0.95775 
vt 0.961044 0.957831 
vt 0.961044 0.957709 
vt 0.961044 0.95775 
vt 0.961044 0.957831 
vt 0.961044 0.957709 
vt 0.961044 0.957655 
vt 0.961044 0.957655 
vt 0.961044 0.957655 
vt 0.961044 0.957709 
vt 0.961044 0.957709 
vt 0.961044 0.957655 
vt 0.961044 0.95775 
vt 0.961044 0.95775 
vt 0.961044 0.957831 
vt 0.961044 0.957831 
vt 0.961044 0.957872 
vt 0.961044 0.957872 
vt 0.961044 0.957872 
vt 0.961044 0.957925 
vt 0.961044 0.957872 

usemtl Lowertorso1Mtl

f 1/1/1 2/2/2 3/3/3 
f 4/4/4 1/1/1 5/5/5 
f 4/4/4 5/5/5 6/6/6 
f 7/7/7 8/8/8 9/9/9 
f 10/10/10 8/8/8 11/11/11 
f 10/10/10 11/11/11 12/12/12 
f 13/13/13 14/14/14 15/15/15 
f 14/14/14 13/13/13 16/16/16 
f 17/17/17 15/15/15 14/14/14 
f 15/15/15 17/17/17 18/18/18 
f 19/19/19 18/18/18 17/17/17 
f 13/13/13 20/20/20 21/21/21 
f 20/20/20 13/13/13 22/22/22 
f 20/20/20 23/23/23 24/24/24 
f 20/20/20 25/25/25 23/23/23 
f 25/25/25 26/26/26 23/23/23 
f 27/27/27 28/28/28 29/29/29 
f 30/30/30 31/31/31 32/32/32 
f 31/31/31 30/30/30 33/33/33 
f 33/33/33 30/30/30 34/34/34 
f 31/31/31 33/33/33 35/35/35 
f 36/36/36 34/34/34 30/30/30 
f 37/37/37 34/34/34 36/36/36 
f 36/36/36 38/38/38 37/37/37 
f 36/36/36 30/30/30 39/39/39 
f 39/39/39 30/30/30 32/32/32 
f 38/38/38 40/40/40 41/41/41 
f 40/40/40 42/42/42 43/43/43 
f 32/32/32 31/31/31 44/44/44 
f 44/44/44 31/31/31 35/35/35 
f 45/45/45 39/39/39 32/32/32 
f 46/46/46 39/39/39 45/45/45 
f 32/32/32 44/44/44 47/47/47 
f 45/45/45 32/32/32 47/47/47 
f 35/35/35 48/48/48 44/44/44 
f 47/47/47 44/44/44 48/48/48 
f 48/48/48 35/35/35 49/49/49 
f 47/47/47 48/48/48 49/49/49 
f 49/49/49 35/35/35 50/50/50 
f 49/49/49 51/51/51 47/47/47 
f 50/50/50 51/51/51 49/49/49 
f 45/45/45 47/47/47 51/51/51 
f 50/50/50 52/52/52 51/51/51 
f 51/51/51 53/53/53 45/45/45 
f 53/53/53 51/51/51 52/52/52 
f 45/45/45 53/53/53 54/54/54 
f 52/52/52 55/55/55 53/53/53 
f 56/56/56 57/57/57 58/58/58 
f 59/59/59 57/57/57 56/56/56 
f 59/59/59 56/56/56 60/60/60 
f 61/61/61 58/58/58 57/57/57 
f 62/62/62 58/58/58 61/61/61 
f 61/61/61 63/63/63 62/62/62 
f 63/63/63 61/61/61 64/64/64 
f 63/63/63 64/64/64 65/65/65 
f 66/66/66 60/60/60 67/67/67 
f 67/67/67 68/68/68 66/66/66 
f 67/67/67 69/69/69 68/68/68 
f 70/70/70 68/68/68 69/69/69 
f 69/69/69 71/71/71 70/70/70 
f 70/70/70 71/71/71 72/72/72 
f 73/73/73 70/70/70 72/72/72 
f 73/73/73 72/72/72 74/74/74 
f 75/75/75 76/76/76 77/77/77 
f 78/78/78 77/77/77 76/76/76 
f 78/78/78 76/76/76 79/79/79 
f 77/77/77 78/78/78 80/80/80 
f 76/76/76 75/75/75 81/81/81 
f 76/76/76 81/81/81 82/82/82 
f 77/77/77 83/83/83 75/75/75 
f 84/84/84 85/85/85 81/81/81 
f 86/86/86 82/82/82 84/84/84 
f 87/87/87 84/84/84 81/81/81 
f 87/87/87 86/86/86 84/84/84 
f 75/75/75 87/87/87 81/81/81 
f 88/88/88 79/79/79 86/86/86 
f 89/89/89 87/87/87 75/75/75 
f 83/83/83 89/89/89 75/75/75 
f 86/86/86 87/87/87 90/90/90 
f 90/90/90 88/88/88 86/86/86 
f 89/89/89 90/90/90 87/87/87 
f 88/88/88 90/90/90 91/91/91 
f 83/83/83 77/77/77 92/92/92 
f 80/80/80 92/92/92 77/77/77 
f 83/83/83 92/92/92 93/93/93 
f 92/92/92 80/80/80 94/94/94 
f 94/94/94 93/93/93 92/92/92 
f 93/93/93 95/95/95 83/83/83 
f 95/95/95 89/89/89 83/83/83 
f 95/95/95 93/93/93 96/96/96 
f 97/97/97 95/95/95 96/96/96 
f 95/95/95 97/97/97 89/89/89 
f 93/93/93 94/94/94 98/98/98 
f 93/93/93 98/98/98 99/99/99 
f 100/100/100 97/97/97 99/99/99 
f 100/100/100 89/89/89 97/97/97 
f 89/89/89 100/100/100 101/101/101 
f 90/90/90 89/89/89 101/101/101 
f 101/101/101 91/91/91 90/90/90 
f 102/102/102 101/101/101 100/100/100 
f 91/91/91 101/101/101 102/102/102 
f 103/103/103 102/102/102 100/100/100 
f 103/103/103 100/100/100 104/104/104 
f 98/98/98 105/105/105 104/104/104 
f 98/98/98 94/94/94 105/105/105 
f 94/94/94 106/106/106 105/105/105 
f 94/94/94 107/107/107 106/106/106 
f 107/107/107 94/94/94 80/80/80 
f 108/108/108 105/105/105 106/106/106 
f 106/106/106 107/107/107 108/108/108 
f 105/105/105 108/108/108 109/109/109 
f 105/105/105 109/109/109 110/110/110 
f 111/111/111 103/103/103 110/110/110 
f 111/111/111 102/102/102 103/103/103 
f 80/80/80 112/112/112 107/107/107 
f 112/112/112 80/80/80 78/78/78 
f 112/112/112 78/78/78 113/113/113 
f 114/114/114 107/107/107 112/112/112 
f 114/114/114 112/112/112 115/115/115 
f 102/102/102 111/111/111 116/116/116 
f 107/107/107 114/114/114 117/117/117 
f 108/108/108 107/107/107 117/117/117 
f 118/118/118 102/102/102 116/116/116 
f 108/108/108 117/117/117 119/119/119 
f 102/102/102 118/118/118 91/91/91 
f 119/119/119 109/109/109 108/108/108 
f 120/120/120 117/117/117 114/114/114 
f 120/120/120 114/114/114 121/121/121 
f 117/117/117 120/120/120 122/122/122 
f 119/119/119 117/117/117 122/122/122 
f 109/109/109 119/119/119 123/123/123 
f 109/109/109 123/123/123 124/124/124 
f 125/125/125 123/123/123 119/119/119 
f 123/123/123 125/125/125 126/126/126 
f 119/119/119 122/122/122 127/127/127 
f 125/125/125 119/119/119 127/127/127 
f 128/128/128 122/122/122 120/120/120 
f 128/128/128 120/120/120 129/129/129 
f 122/122/122 128/128/128 130/130/130 
f 127/127/127 122/122/122 130/130/130 
f 130/130/130 128/128/128 131/131/131 
f 131/131/131 127/127/127 130/130/130 
f 132/132/132 131/131/131 128/128/128 
f 132/132/132 128/128/128 133/133/133 
f 134/134/134 131/131/131 132/132/132 
f 135/135/135 132/132/132 136/136/136 
f 134/134/134 137/137/137 131/131/131 
f 127/127/127 131/131/131 137/137/137 
f 127/127/127 137/137/137 138/138/138 
f 125/125/125 127/127/127 138/138/138 
f 138/138/138 137/137/137 139/139/139 
f 125/125/125 138/138/138 140/140/140 
f 138/138/138 139/139/139 141/141/141 
f 142/142/142 143/143/143 140/140/140 
f 144/144/144 142/142/142 141/141/141 
f 144/144/144 145/145/145 142/142/142 
f 142/142/142 146/146/146 143/143/143 
f 146/146/146 142/142/142 145/145/145 
f 145/145/145 144/144/144 147/147/147 
f 147/147/147 148/148/148 149/149/149 
f 150/150/150 147/147/147 149/149/149 
f 151/151/151 145/145/145 147/147/147 
f 150/150/150 152/152/152 151/151/151 
f 152/152/152 150/150/150 153/153/153 
f 145/145/145 151/151/151 154/154/154 
f 155/155/155 151/151/151 152/152/152 
f 151/151/151 155/155/155 154/154/154 
f 152/152/152 133/133/133 155/155/155 
f 145/145/145 154/154/154 156/156/156 
f 155/155/155 156/156/156 154/154/154 
f 156/156/156 146/146/146 145/145/145 
f 156/156/156 155/155/155 157/157/157 
f 155/155/155 129/129/129 157/157/157 
f 146/146/146 156/156/156 158/158/158 
f 157/157/157 158/158/158 156/156/156 
f 158/158/158 157/157/157 159/159/159 
f 157/157/157 121/121/121 159/159/159 
f 159/159/159 118/118/118 158/158/158 
f 158/158/158 160/160/160 146/146/146 
f 160/160/160 158/158/158 118/118/118 
f 118/118/118 116/116/116 160/160/160 
f 160/160/160 116/116/116 111/111/111 
f 118/118/118 159/159/159 161/161/161 
f 159/159/159 115/115/115 161/161/161 
f 161/161/161 91/91/91 118/118/118 
f 91/91/91 161/161/161 88/88/88 
f 161/161/161 113/113/113 88/88/88 
f 111/111/111 162/162/162 160/160/160 
f 162/162/162 146/146/146 160/160/160 
f 162/162/162 111/111/111 124/124/124 
f 143/143/143 146/146/146 162/162/162 
f 143/143/143 162/162/162 126/126/126 

