# This file is brought to you by Roblox Corporation
# Generated by Roblox Studio

mtllib UpArmL.mtl

g Upperarml1

v -14.3021 10.3657 21.6128 
v -14.1442 10.2958 21.5455 
v -14.1926 10.2537 21.683 
v -14.1527 10.5525 21.3831 
v -14.3076 10.5327 21.5072 
v -14.3336 10.3384 21.7022 
v -14.241 10.2116 21.8206 
v -14.1308 10.1757 21.8356 
v -14.2167 10.2571 21.9696 
v -13.8901 10.6535 21.3746 
v -13.5713 10.4886 21.7105 
v -13.8796 10.335 21.5718 
v -13.6278 10.4253 21.8993 
v -13.9373 10.2819 21.7417 
v -14.0264 10.5788 21.3185 
v -13.995 10.2288 21.9115 
v -13.6843 10.3621 22.0882 
v -14.0736 10.2254 21.673 
v -14.0164 10.2752 21.5104 
v -14.1442 10.2958 21.5455 
v -14.1926 10.2537 21.683 
v -14.1527 10.5525 21.3831 
v -14.1308 10.1757 21.8356 
v -14.2614 10.8316 21.4287 
v -14.155 10.9086 21.3723 
v -14.2408 10.9901 21.5063 
v -14.4067 10.9694 21.6554 
v -14.3267 11.0715 21.6404 
v -14.3839 11.0218 21.803 
v -14.0818 10.313 22.0532 
v -14.2167 10.2571 21.9696 
v -13.7701 10.4524 22.2516 
v -13.3708 10.4826 22.2674 
v -14.3026 10.3386 22.1037 
v -14.1687 10.3972 22.1948 
v -14.3136 10.2805 21.9339 
v -14.241 10.2116 21.8206 
v -14.365 10.311 21.7917 
v -14.3863 10.3494 22.0473 
v -14.4595 10.4006 21.9391 
v -14.4311 10.6685 22.1575 
v -14.3336 10.3384 21.7022 
v -14.2989 10.7415 22.2556 
v -14.4123 10.3558 21.8654 
v -14.5302 10.582 21.9687 
v -14.495 10.6284 22.0928 
v -14.5357 10.749 21.8632 
v -14.5042 10.7764 21.7737 
v -14.5035 10.8852 21.9305 
v -14.4411 10.9721 21.9656 
v -14.4551 10.9273 21.793 
v -14.3076 10.5327 21.5072 
v -14.3021 10.3657 21.6128 
v -14.4255 10.7589 21.6106 
v -14.4728 10.8037 21.6843 
v -14.334 10.9005 21.542 
v -14.3783 10.7141 21.5369 
v -12.7223 11.1227 23.1522 
v -12.0809 11.5275 23.4684 
v -12.8377 11.5843 23.3025 
v -12.1639 11.9451 23.6293 
v -13.2577 11.3466 23.0291 
v -11.6803 11.8288 23.3209 
v -11.7229 12.0432 23.4035 
v -11.6537 11.7844 23.2162 
v -12.0291 11.441 23.2644 
v -11.627 11.74 23.1114 
v -13.1337 10.9014 22.899 
v -13.6777 11.109 22.7558 
v -12.6481 11.0221 22.9369 
v -11.9772 11.3545 23.0604 
v -11.9454 11.441 22.8523 
v -12.5738 10.9216 22.7216 
v -12.5266 11.0102 22.4923 
v -13.053 10.8017 22.6967 
v -13.545 10.6801 22.6457 
v -13.9855 10.9247 22.4997 
v -12.9723 10.7021 22.4945 
v -12.9203 10.7838 22.2736 
v -13.3973 10.2927 22.2748 
v -13.4579 10.5813 22.4566 
v -13.8558 10.5427 22.4151 
v -11.9136 11.5275 22.6442 
v -11.5943 11.8288 22.8977 
v -11.9272 11.9451 22.4637 
v -11.6013 12.0432 22.805 
v -12.4941 11.5505 22.0449 
v -11.6107 11.7844 23.0046 
v -12.4793 11.0988 22.263 
v -12.8824 11.296 21.8324 
v -12.8682 10.8655 22.0528 
v -13.2706 11.0415 21.62 
v -13.2572 10.6323 21.8426 
v -13.5831 10.8481 21.5033 
v -13.314 10.5574 22.055 
v -12.6095 12.0121 22.1951 
v -11.9272 11.9451 22.4637 
v -12.4941 11.5505 22.0449 
v -13.0064 11.7413 21.9626 
v -12.8824 11.296 21.8324 
v -12.0102 12.3627 22.6246 
v -13.4033 11.4705 21.7301 
v -13.2706 11.0415 21.62 
v -11.6439 12.2576 22.8876 
v -11.6013 12.0432 22.805 
v -13.7128 11.2301 21.5879 
v -13.5831 10.8481 21.5033 
v -13.4904 11.5692 21.9193 
v -13.7986 11.3204 21.7514 
v -14.0203 10.9979 21.4354 
v -13.8901 10.6535 21.3746 
v -14.155 10.9086 21.3723 
v -14.0264 10.5788 21.3185 
v -14.1072 11.0821 21.577 
v -14.2408 10.9901 21.5063 
v -14.194 11.1663 21.7186 
v -14.3267 11.0715 21.6404 
v -14.3839 11.0218 21.803 
v -13.8844 11.4107 21.9148 
v -14.2517 11.1132 21.8884 
v -14.4411 10.9721 21.9656 
v -14.4551 10.9273 21.793 
v -14.4067 10.9694 21.6554 
v -14.4728 10.8037 21.6843 
v -14.5042 10.7764 21.7737 
v -14.334 10.9005 21.542 
v -14.2614 10.8316 21.4287 
v -14.3783 10.7141 21.5369 
v -14.5035 10.8852 21.9305 
v -14.5357 10.749 21.8632 
v -14.495 10.6284 22.0928 
v -14.4311 10.6685 22.1575 
v -14.3863 10.3494 22.0473 
v -14.5302 10.582 21.9687 
v -14.4595 10.4006 21.9391 
v -14.3136 10.2805 21.9339 
v -14.4123 10.3558 21.8654 
v -14.365 10.311 21.7917 
v -14.2989 10.7415 22.2556 
v -14.3094 11.0601 22.0583 
v -13.9855 10.9247 22.4997 
v -13.9973 11.2842 22.2925 
v -13.9408 11.3475 22.1036 
v -13.6777 11.109 22.7558 
v -13.5774 11.6679 22.1084 
v -13.6343 11.5931 22.3208 
v -13.6911 11.5182 22.5333 
v -13.5496 10.9801 23.1443 
v -13.2577 11.3466 23.0291 
v -13.2718 11.7771 22.8088 
v -13.2198 11.8588 22.5879 
v -14.0156 11.7308 21.8791 
v -13.2196 11.3049 23.4914 
v -12.8377 11.5843 23.3025 
v -12.8525 12.0359 23.0844 
v -12.1639 11.9451 23.6293 
v -12.8053 12.1245 22.855 
v -12.1776 12.3627 23.4488 
v -12.1457 12.4492 23.2407 
v -11.7299 12.2576 23.3108 
v -11.7229 12.0432 23.4035 
v -11.7135 12.302 23.204 
v -12.1139 12.5357 23.0326 
v -11.6537 11.7844 23.2162 
v -11.6803 11.8288 23.3209 
v -11.6107 11.7844 23.0046 
v -11.627 11.74 23.1114 
v -11.6706 12.302 22.9924 
v -11.5943 11.8288 22.8977 
v -11.6972 12.3464 23.0972 
v -12.062 12.4492 22.8286 
v -12.758 12.2131 22.6257 
v -12.6838 12.1126 22.4104 
v -13.1677 11.9405 22.367 
v -13.0871 11.8409 22.1648 

vn -0.685039 -0.519685 -0.511811 
vn -0.385827 -0.708661 -0.590551 
vn -0.377953 -0.834646 -0.393701 
vn -0.464567 -0.291339 -0.834646 
vn -0.708661 -0.299213 -0.637795 
vn -0.724409 -0.543307 -0.425197 
vn -0.433071 -0.897638 -0.0708661 
vn 0 -1 0.0629921 
vn -0.15748 -0.889764 0.433071 
vn 0.433071 -0.0944882 -0.897638 
vn 0.543307 -0.692913 -0.480315 
vn 0.535433 -0.708661 -0.456693 
vn 0.464567 -0.874016 -0.149606 
vn 0.456693 -0.88189 -0.125984 
vn 0.0629921 -0.220472 -0.976378 
vn 0.267717 -0.937008 0.212598 
vn 0.275591 -0.944882 0.188976 
vn 0.102362 -0.96063 -0.259843 
vn 0.15748 -0.787402 -0.598425 
vn -0.385827 -0.708661 -0.590551 
vn -0.377953 -0.834646 -0.393701 
vn -0.464567 -0.291339 -0.834646 
vn 0 -1 0.0629921 
vn -0.622047 0.141732 -0.771654 
vn -0.23622 0.385827 -0.889764 
vn -0.448819 0.614173 -0.653543 
vn -0.811024 0.433071 -0.401575 
vn -0.574803 0.716535 -0.393701 
vn -0.700787 0.716535 -0.023622 
vn 0.0393701 -0.850394 0.519685 
vn -0.15748 -0.889764 0.433071 
vn 0.0472441 -0.866142 0.503937 
vn 0.220472 -0.858268 -0.464567 
vn -0.330709 -0.685039 0.653543 
vn -0.220472 -0.637795 0.740157 
vn -0.496063 -0.850394 0.19685 
vn -0.433071 -0.897638 -0.0708661 
vn -0.740157 -0.622047 -0.259843 
vn -0.622047 -0.645669 0.448819 
vn -0.866142 -0.496063 -0.00787402 
vn -0.653543 0.015748 0.755906 
vn -0.724409 -0.543307 -0.425197 
vn -0.614173 0.015748 0.787402 
vn -0.811024 -0.559055 -0.173228 
vn -0.976378 -0.220472 0.0393701 
vn -0.826772 -0.0787402 0.551181 
vn -0.992126 0.023622 -0.141732 
vn -0.944882 0.023622 -0.322835 
vn -0.905512 0.385827 0.165354 
vn -0.755906 0.590551 0.283465 
vn -0.866142 0.472441 -0.15748 
vn -0.708661 -0.299213 -0.637795 
vn -0.685039 -0.519685 -0.511811 
vn -0.850394 -0.0393701 -0.519685 
vn -0.905512 0.0629921 -0.417323 
vn -0.708661 0.307087 -0.637795 
vn -0.795276 -0.0787402 -0.606299 
vn -0.023622 -0.669291 0.748031 
vn 0.267717 -0.559055 0.779528 
vn -0.141732 -0.0787402 0.984252 
vn -0.0314961 0.0629921 1 
vn -0.488189 -0.259843 0.834646 
vn 0.811024 -0.244094 0.527559 
vn 0.724409 0.11811 0.677165 
vn 0.889764 -0.291339 0.346457 
vn 0.488189 -0.748031 0.456693 
vn 0.905512 -0.393701 0.181102 
vn -0.102362 -0.661417 0.740157 
vn -0.692913 -0.141732 0.708661 
vn 0.251969 -0.84252 0.472441 
vn 0.598425 -0.779528 0.181102 
vn 0.700787 -0.692913 -0.165354 
vn 0.456693 -0.874016 0.15748 
vn 0.606299 -0.771654 -0.181102 
vn 0.188976 -0.826772 0.519685 
vn -0.173228 -0.661417 0.732283 
vn -0.629921 0 0.779528 
vn 0.496063 -0.858268 0.149606 
vn 0.559055 -0.811024 -0.165354 
vn -0.259843 -0.897638 -0.362205 
vn -0.0866142 -0.80315 0.590551 
vn -0.228346 -0.653543 0.724409 
vn 0.740157 -0.511811 -0.433071 
vn 0.944882 -0.251969 -0.188976 
vn 0.614173 0.0944882 -0.779528 
vn 0.92126 0.11811 -0.377953 
vn 0.519685 0.0314961 -0.850394 
vn 0.952756 -0.299213 0.023622 
vn 0.669291 -0.582677 -0.464567 
vn 0.480315 0 -0.874016 
vn 0.629921 -0.622047 -0.472441 
vn 0.433071 -0.0393701 -0.897638 
vn 0.574803 -0.661417 -0.480315 
vn 0.409449 -0.0708661 -0.913386 
vn 0.503937 -0.850394 -0.165354 
vn 0.0551181 0.669291 -0.740157 
vn 0.614173 0.0944882 -0.779528 
vn 0.519685 0.0314961 -0.850394 
vn 0.015748 0.637795 -0.771654 
vn 0.480315 0 -0.874016 
vn 0.275591 0.748031 -0.606299 
vn -0.023622 0.598425 -0.795276 
vn 0.433071 -0.0393701 -0.897638 
vn 0.826772 0.503937 -0.23622 
vn 0.92126 0.11811 -0.377953 
vn -0.0472441 0.566929 -0.818898 
vn 0.409449 -0.0708661 -0.913386 
vn -0.220472 0.661417 -0.716535 
vn -0.283465 0.76378 -0.574803 
vn 0.00787402 0.559055 -0.834646 
vn 0.433071 -0.0944882 -0.897638 
vn -0.23622 0.385827 -0.889764 
vn 0.0629921 -0.220472 -0.976378 
vn -0.23622 0.771654 -0.590551 
vn -0.448819 0.614173 -0.653543 
vn -0.456693 0.84252 -0.291339 
vn -0.574803 0.716535 -0.393701 
vn -0.700787 0.716535 -0.023622 
vn -0.496063 0.818898 -0.275591 
vn -0.606299 0.795276 0.0472441 
vn -0.755906 0.590551 0.283465 
vn -0.866142 0.472441 -0.15748 
vn -0.811024 0.433071 -0.401575 
vn -0.905512 0.0629921 -0.417323 
vn -0.944882 0.023622 -0.322835 
vn -0.708661 0.307087 -0.637795 
vn -0.622047 0.141732 -0.771654 
vn -0.795276 -0.0787402 -0.606299 
vn -0.905512 0.385827 0.165354 
vn -0.992126 0.023622 -0.141732 
vn -0.826772 -0.0787402 0.551181 
vn -0.653543 0.015748 0.755906 
vn -0.622047 -0.645669 0.448819 
vn -0.976378 -0.220472 0.0393701 
vn -0.866142 -0.496063 -0.00787402 
vn -0.496063 -0.850394 0.19685 
vn -0.811024 -0.559055 -0.173228 
vn -0.740157 -0.622047 -0.259843 
vn -0.614173 0.015748 0.787402 
vn -0.692913 0.622047 0.362205 
vn -0.629921 0 0.779528 
vn -0.716535 0.590551 0.370079 
vn -0.637795 0.76378 0.0629921 
vn -0.692913 -0.141732 0.708661 
vn -0.84252 -0.448819 -0.291339 
vn -0.755906 0.590551 0.291339 
vn -0.708661 0.606299 0.362205 
vn -0.133858 -0.732283 0.661417 
vn -0.488189 -0.259843 0.834646 
vn -0.677165 0.653543 0.346457 
vn -0.574803 0.795276 0.204724 
vn -0.88189 0.0314961 -0.472441 
vn -0.307087 -0.551181 0.779528 
vn -0.141732 -0.0787402 0.984252 
vn -0.574803 0.661417 0.480315 
vn -0.0314961 0.0629921 1 
vn -0.566929 0.795276 0.19685 
vn -0.133858 0.708661 0.685039 
vn -0.11811 0.929134 0.354331 
vn 0.692913 0.496063 0.527559 
vn 0.724409 0.11811 0.677165 
vn 0.748031 0.559055 0.346457 
vn -0.023622 1 0.023622 
vn 0.889764 -0.291339 0.346457 
vn 0.811024 -0.244094 0.527559 
vn 0.952756 -0.299213 0.023622 
vn 0.905512 -0.393701 0.181102 
vn 0.818898 0.574803 -0.0314961 
vn 0.944882 -0.251969 -0.188976 
vn 0.732283 0.669291 0.141732 
vn 0.133858 0.92126 -0.370079 
vn -0.417323 0.897638 -0.149606 
vn -0.220472 0.858268 -0.472441 
vn -0.330709 0.929134 -0.141732 
vn -0.15748 0.834646 -0.527559 

vt 0.964021 0.37011 
vt 0.964021 0.37011 
vt 0.961354 0.372313 
vt 0.966541 0.363251 
vt 0.966541 0.363251 
vt 0.961354 0.372313 
vt 0.958686 0.374517 
vt 0.958686 0.374516 
vt 0.956174 0.374203 
vt 0.966678 0.372679 
vt 0.964918 0.401154 
vt 0.96416 0.379547 
vt 0.961901 0.404258 
vt 0.961466 0.381895 
vt 0.966541 0.363251 
vt 0.958772 0.384242 
vt 0.958884 0.407362 
vt 0.961354 0.372313 
vt 0.964021 0.37011 
vt 0.964021 0.37011 
vt 0.961354 0.372313 
vt 0.966541 0.363251 
vt 0.958686 0.374516 
vt 0.964769 0.357958 
vt 0.964769 0.357958 
vt 0.962257 0.357645 
vt 0.959744 0.357331 
vt 0.959744 0.357331 
vt 0.957076 0.359535 
vt 0.956221 0.384129 
vt 0.956174 0.374203 
vt 0.955973 0.408021 
vt 0.958996 0.430481 
vt 0.953661 0.37389 
vt 0.953669 0.384015 
vt 0.956174 0.374203 
vt 0.958686 0.374517 
vt 0.958686 0.374516 
vt 0.953661 0.37389 
vt 0.953661 0.37389 
vt 0.951889 0.368596 
vt 0.961354 0.372313 
vt 0.951841 0.378997 
vt 0.956174 0.374203 
vt 0.951889 0.368596 
vt 0.951889 0.368596 
vt 0.954409 0.361738 
vt 0.957076 0.359535 
vt 0.954409 0.361738 
vt 0.954409 0.361738 
vt 0.957076 0.359535 
vt 0.966541 0.363251 
vt 0.964021 0.37011 
vt 0.962257 0.357645 
vt 0.959744 0.357331 
vt 0.962257 0.357645 
vt 0.964769 0.357958 
vt 0.952263 0.495214 
vt 0.953177 0.540858 
vt 0.949291 0.49381 
vt 0.950324 0.541587 
vt 0.94959 0.461742 
vt 0.957158 0.553508 
vt 0.955473 0.553938 
vt 0.959039 0.551229 
vt 0.956362 0.537 
vt 0.960921 0.54895 
vt 0.95236 0.46428 
vt 0.949889 0.429674 
vt 0.955782 0.492215 
vt 0.959547 0.533142 
vt 0.962625 0.528051 
vt 0.959302 0.489217 
vt 0.962793 0.484274 
vt 0.955754 0.462064 
vt 0.952457 0.433345 
vt 0.950865 0.404336 
vt 0.959149 0.459849 
vt 0.962564 0.455447 
vt 0.958681 0.42927 
vt 0.955726 0.431913 
vt 0.953063 0.40868 
vt 0.965703 0.522959 
vt 0.964557 0.542935 
vt 0.968039 0.516275 
vt 0.965937 0.538986 
vt 0.969119 0.471348 
vt 0.962739 0.545942 
vt 0.966284 0.479331 
vt 0.968851 0.443027 
vt 0.965979 0.451046 
vt 0.968582 0.414705 
vt 0.965675 0.42276 
vt 0.96763 0.393692 
vt 0.962335 0.426621 
vt 0.966147 0.469944 
vt 0.968039 0.516275 
vt 0.969119 0.471348 
vt 0.966081 0.440489 
vt 0.968851 0.443027 
vt 0.965186 0.517004 
vt 0.966015 0.411034 
vt 0.968582 0.414705 
vt 0.964252 0.539417 
vt 0.965937 0.538986 
vt 0.965432 0.389348 
vt 0.96763 0.393692 
vt 0.962745 0.412466 
vt 0.962522 0.390007 
vt 0.96485 0.367661 
vt 0.966678 0.372679 
vt 0.964769 0.357958 
vt 0.966541 0.363251 
vt 0.962298 0.367547 
vt 0.962257 0.357645 
vt 0.959746 0.367434 
vt 0.959744 0.357331 
vt 0.957076 0.359535 
vt 0.959611 0.390666 
vt 0.957052 0.369781 
vt 0.954409 0.361738 
vt 0.957076 0.359535 
vt 0.959744 0.357331 
vt 0.959744 0.357331 
vt 0.957076 0.359535 
vt 0.962257 0.357645 
vt 0.964769 0.357958 
vt 0.964769 0.357958 
vt 0.954409 0.361738 
vt 0.954409 0.361738 
vt 0.951889 0.368596 
vt 0.951889 0.368596 
vt 0.953661 0.37389 
vt 0.951889 0.368596 
vt 0.953661 0.37389 
vt 0.956174 0.374203 
vt 0.956174 0.374203 
vt 0.958686 0.374516 
vt 0.951841 0.378997 
vt 0.954358 0.372129 
vt 0.950865 0.404336 
vt 0.953577 0.396874 
vt 0.956594 0.39377 
vt 0.949889 0.429674 
vt 0.959476 0.413898 
vt 0.956136 0.417759 
vt 0.952796 0.421619 
vt 0.945663 0.449488 
vt 0.94959 0.461742 
vt 0.952462 0.453723 
vt 0.955877 0.449321 
vt 0.959031 0.38228 
vt 0.943634 0.479035 
vt 0.949291 0.49381 
vt 0.952127 0.485827 
vt 0.950324 0.541587 
vt 0.955618 0.480884 
vt 0.95266 0.534902 
vt 0.955738 0.529811 
vt 0.956852 0.549989 
vt 0.955473 0.553938 
vt 0.95867 0.546982 
vt 0.958816 0.524719 
vt 0.959039 0.551229 
vt 0.957158 0.553508 
vt 0.962739 0.545942 
vt 0.960921 0.54895 
vt 0.96237 0.541695 
vt 0.964557 0.542935 
vt 0.960489 0.543974 
vt 0.962001 0.520861 
vt 0.959109 0.475941 
vt 0.962628 0.472943 
vt 0.959292 0.44492 
vt 0.962687 0.442704 

usemtl Upperarml1Mtl

f 1/1/1 2/2/2 3/3/3 
f 1/1/1 4/4/4 2/2/2 
f 4/4/4 1/1/1 5/5/5 
f 3/3/3 6/6/6 1/1/1 
f 6/6/6 3/3/3 7/7/7 
f 8/8/8 7/7/7 3/3/3 
f 8/8/8 9/9/9 7/7/7 
f 10/10/10 11/11/11 12/12/12 
f 11/11/11 13/13/13 14/14/14 
f 11/11/11 14/14/14 12/12/12 
f 15/15/15 10/10/10 12/12/12 
f 13/13/13 16/16/16 14/14/14 
f 13/13/13 17/17/17 16/16/16 
f 18/18/18 12/12/12 14/14/14 
f 15/15/15 12/12/12 19/19/19 
f 12/12/12 18/18/18 19/19/19 
f 20/20/20 15/15/15 19/19/19 
f 19/19/19 18/18/18 20/20/20 
f 18/18/18 21/21/21 20/20/20 
f 15/15/15 20/20/20 22/22/22 
f 18/18/18 23/23/23 21/21/21 
f 14/14/14 23/23/23 18/18/18 
f 23/23/23 14/14/14 16/16/16 
f 24/24/24 15/15/15 22/22/22 
f 15/15/15 24/24/24 25/25/25 
f 24/24/24 26/26/26 25/25/25 
f 26/26/26 27/27/27 28/28/28 
f 27/27/27 29/29/29 28/28/28 
f 16/16/16 30/30/30 23/23/23 
f 17/17/17 30/30/30 16/16/16 
f 30/30/30 31/31/31 23/23/23 
f 32/32/32 30/30/30 17/17/17 
f 33/33/33 32/32/32 17/17/17 
f 30/30/30 34/34/34 31/31/31 
f 32/32/32 35/35/35 30/30/30 
f 34/34/34 30/30/30 35/35/35 
f 31/31/31 34/34/34 36/36/36 
f 31/31/31 36/36/36 37/37/37 
f 37/37/37 36/36/36 38/38/38 
f 34/34/34 39/39/39 36/36/36 
f 40/40/40 36/36/36 39/39/39 
f 41/41/41 39/39/39 34/34/34 
f 35/35/35 41/41/41 34/34/34 
f 37/37/37 38/38/38 42/42/42 
f 41/41/41 35/35/35 43/43/43 
f 44/44/44 42/42/42 38/38/38 
f 45/45/45 44/44/44 40/40/40 
f 45/45/45 42/42/42 44/44/44 
f 45/45/45 39/39/39 46/46/46 
f 46/46/46 47/47/47 45/45/45 
f 48/48/48 45/45/45 47/47/47 
f 45/45/45 48/48/48 42/42/42 
f 49/49/49 41/41/41 50/50/50 
f 50/50/50 51/51/51 49/49/49 
f 48/48/48 49/49/49 51/51/51 
f 42/42/42 48/48/48 52/52/52 
f 42/42/42 52/52/52 53/53/53 
f 48/48/48 54/54/54 52/52/52 
f 54/54/54 48/48/48 55/55/55 
f 56/56/56 54/54/54 55/55/55 
f 56/56/56 57/57/57 54/54/54 
f 57/57/57 52/52/52 54/54/54 
f 57/57/57 22/22/22 52/52/52 
f 58/58/58 59/59/59 60/60/60 
f 60/60/60 59/59/59 61/61/61 
f 62/62/62 58/58/58 60/60/60 
f 63/63/63 61/61/61 59/59/59 
f 61/61/61 63/63/63 64/64/64 
f 59/59/59 65/65/65 63/63/63 
f 65/65/65 59/59/59 66/66/66 
f 59/59/59 58/58/58 66/66/66 
f 66/66/66 67/67/67 65/65/65 
f 68/68/68 58/58/58 62/62/62 
f 69/69/69 68/68/68 62/62/62 
f 66/66/66 58/58/58 70/70/70 
f 58/58/58 68/68/68 70/70/70 
f 67/67/67 66/66/66 71/71/71 
f 66/66/66 70/70/70 71/71/71 
f 67/67/67 71/71/71 72/72/72 
f 71/71/71 73/73/73 72/72/72 
f 71/71/71 70/70/70 73/73/73 
f 72/72/72 73/73/73 74/74/74 
f 70/70/70 68/68/68 75/75/75 
f 70/70/70 75/75/75 73/73/73 
f 76/76/76 68/68/68 69/69/69 
f 68/68/68 76/76/76 75/75/75 
f 77/77/77 76/76/76 69/69/69 
f 74/74/74 73/73/73 78/78/78 
f 73/73/73 75/75/75 78/78/78 
f 74/74/74 78/78/78 79/79/79 
f 78/78/78 33/33/33 79/79/79 
f 75/75/75 80/80/80 78/78/78 
f 78/78/78 80/80/80 33/33/33 
f 81/81/81 80/80/80 75/75/75 
f 33/33/33 80/80/80 81/81/81 
f 75/75/75 76/76/76 81/81/81 
f 81/81/81 32/32/32 33/33/33 
f 82/82/82 76/76/76 77/77/77 
f 76/76/76 82/82/82 81/81/81 
f 81/81/81 82/82/82 32/32/32 
f 43/43/43 82/82/82 77/77/77 
f 82/82/82 35/35/35 32/32/32 
f 35/35/35 82/82/82 43/43/43 
f 72/72/72 74/74/74 83/83/83 
f 84/84/84 72/72/72 83/83/83 
f 83/83/83 85/85/85 84/84/84 
f 85/85/85 86/86/86 84/84/84 
f 83/83/83 87/87/87 85/85/85 
f 72/72/72 84/84/84 88/88/88 
f 67/67/67 72/72/72 88/88/88 
f 87/87/87 83/83/83 89/89/89 
f 74/74/74 89/89/89 83/83/83 
f 89/89/89 90/90/90 87/87/87 
f 90/90/90 89/89/89 91/91/91 
f 91/91/91 92/92/92 90/90/90 
f 89/89/89 74/74/74 79/79/79 
f 89/89/89 79/79/79 91/91/91 
f 92/92/92 91/91/91 93/93/93 
f 93/93/93 94/94/94 92/92/92 
f 91/91/91 79/79/79 95/95/95 
f 91/91/91 95/95/95 93/93/93 
f 94/94/94 93/93/93 11/11/11 
f 11/11/11 10/10/10 94/94/94 
f 93/93/93 95/95/95 13/13/13 
f 93/93/93 13/13/13 11/11/11 
f 79/79/79 33/33/33 95/95/95 
f 95/95/95 17/17/17 13/13/13 
f 95/95/95 33/33/33 17/17/17 
f 96/96/96 97/97/97 98/98/98 
f 98/98/98 99/99/99 96/96/96 
f 99/99/99 98/98/98 100/100/100 
f 97/97/97 96/96/96 101/101/101 
f 100/100/100 102/102/102 99/99/99 
f 102/102/102 100/100/100 103/103/103 
f 104/104/104 97/97/97 101/101/101 
f 97/97/97 104/104/104 105/105/105 
f 103/103/103 106/106/106 102/102/102 
f 106/106/106 103/103/103 107/107/107 
f 108/108/108 99/99/99 102/102/102 
f 109/109/109 102/102/102 106/106/106 
f 102/102/102 109/109/109 108/108/108 
f 107/107/107 110/110/110 106/106/106 
f 110/110/110 109/109/109 106/106/106 
f 110/110/110 107/107/107 111/111/111 
f 111/111/111 112/112/112 110/110/110 
f 112/112/112 111/111/111 113/113/113 
f 112/112/112 114/114/114 110/110/110 
f 114/114/114 109/109/109 110/110/110 
f 114/114/114 112/112/112 115/115/115 
f 116/116/116 109/109/109 114/114/114 
f 115/115/115 116/116/116 114/114/114 
f 116/116/116 115/115/115 117/117/117 
f 118/118/118 116/116/116 117/117/117 
f 109/109/109 116/116/116 119/119/119 
f 119/119/119 108/108/108 109/109/109 
f 116/116/116 118/118/118 120/120/120 
f 120/120/120 119/119/119 116/116/116 
f 121/121/121 120/120/120 118/118/118 
f 122/122/122 121/121/121 118/118/118 
f 118/118/118 123/123/123 122/122/122 
f 124/124/124 122/122/122 123/123/123 
f 122/122/122 124/124/124 125/125/125 
f 126/126/126 124/124/124 123/123/123 
f 123/123/123 115/115/115 126/126/126 
f 115/115/115 127/127/127 126/126/126 
f 128/128/128 126/126/126 127/127/127 
f 4/4/4 128/128/128 127/127/127 
f 129/129/129 125/125/125 130/130/130 
f 130/130/130 131/131/131 129/129/129 
f 132/132/132 129/129/129 131/131/131 
f 133/133/133 132/132/132 131/131/131 
f 133/133/133 134/134/134 135/135/135 
f 136/136/136 135/135/135 137/137/137 
f 136/136/136 137/137/137 138/138/138 
f 139/139/139 121/121/121 132/132/132 
f 121/121/121 139/139/139 140/140/140 
f 141/141/141 140/140/140 139/139/139 
f 120/120/120 121/121/121 140/140/140 
f 140/140/140 141/141/141 142/142/142 
f 140/140/140 143/143/143 120/120/120 
f 143/143/143 140/140/140 142/142/142 
f 119/119/119 120/120/120 143/143/143 
f 141/141/141 144/144/144 142/142/142 
f 143/143/143 145/145/145 119/119/119 
f 108/108/108 119/119/119 145/145/145 
f 142/142/142 146/146/146 143/143/143 
f 145/145/145 143/143/143 146/146/146 
f 142/142/142 144/144/144 147/147/147 
f 146/146/146 142/142/142 147/147/147 
f 144/144/144 148/148/148 147/147/147 
f 149/149/149 148/148/148 144/144/144 
f 147/147/147 148/148/148 150/150/150 
f 150/150/150 148/148/148 149/149/149 
f 147/147/147 151/151/151 146/146/146 
f 151/151/151 147/147/147 150/150/150 
f 146/146/146 152/152/152 145/145/145 
f 145/145/145 152/152/152 108/108/108 
f 151/151/151 152/152/152 146/146/146 
f 149/149/149 153/153/153 150/150/150 
f 154/154/154 153/153/153 149/149/149 
f 155/155/155 153/153/153 154/154/154 
f 150/150/150 153/153/153 155/155/155 
f 154/154/154 156/156/156 155/155/155 
f 150/150/150 157/157/157 151/151/151 
f 157/157/157 150/150/150 155/155/155 
f 158/158/158 155/155/155 156/156/156 
f 155/155/155 159/159/159 157/157/157 
f 159/159/159 155/155/155 158/158/158 
f 160/160/160 158/158/158 156/156/156 
f 160/160/160 159/159/159 158/158/158 
f 160/160/160 156/156/156 161/161/161 
f 159/159/159 160/160/160 162/162/162 
f 161/161/161 162/162/162 160/160/160 
f 163/163/163 157/157/157 159/159/159 
f 162/162/162 163/163/163 159/159/159 
f 164/164/164 161/161/161 165/165/165 
f 162/162/162 161/161/161 164/164/164 
f 166/166/166 162/162/162 164/164/164 
f 164/164/164 167/167/167 166/166/166 
f 162/162/162 166/166/166 168/168/168 
f 105/105/105 166/166/166 169/169/169 
f 105/105/105 168/168/168 166/166/166 
f 168/168/168 105/105/105 104/104/104 
f 162/162/162 168/168/168 170/170/170 
f 163/163/163 162/162/162 170/170/170 
f 163/163/163 170/170/170 168/168/168 
f 171/171/171 168/168/168 104/104/104 
f 163/163/163 168/168/168 171/171/171 
f 104/104/104 101/101/101 171/171/171 
f 171/171/171 172/172/172 163/163/163 
f 157/157/157 163/163/163 172/172/172 
f 172/172/172 151/151/151 157/157/157 
f 101/101/101 173/173/173 171/171/171 
f 172/172/172 171/171/171 173/173/173 
f 173/173/173 101/101/101 96/96/96 
f 151/151/151 172/172/172 174/174/174 
f 173/173/173 174/174/174 172/172/172 
f 174/174/174 152/152/152 151/151/151 
f 96/96/96 175/175/175 173/173/173 
f 174/174/174 173/173/173 175/175/175 
f 175/175/175 152/152/152 174/174/174 
f 175/175/175 96/96/96 99/99/99 
f 108/108/108 152/152/152 175/175/175 
f 99/99/99 108/108/108 175/175/175 

